SplineFontDB: 3.2
FontName: Aurek-Besh
FullName: Aurek-Besh
FamilyName: Aurek-Besh
Weight: Book
Copyright: 1999 by Boba Fonts - http://www.swfans.net/multimedia/bobafonts
Version: 1.4
ItalicAngle: 0
UnderlinePosition: -119.167
UnderlineWidth: 16.6667
Ascent: 800
Descent: 200
InvalidEm: 0
sfntRevision: 0x00010000
LayerCount: 2
Layer: 0 1 "Back" 1
Layer: 1 1 "Fore" 0
XUID: [1021 178 1911899458 18614]
StyleMap: 0x0040
FSType: 0
OS2Version: 0
OS2_WeightWidthSlopeOnly: 0
OS2_UseTypoMetrics: 0
CreationTime: 944234327
ModificationTime: 1592021079
PfmFamily: 81
TTFWeight: 400
TTFWidth: 5
LineGap: 0
VLineGap: 0
Panose: 0 0 8 5 0 0 0 0 0 0
OS2TypoAscent: 667
OS2TypoAOffset: 0
OS2TypoDescent: -167
OS2TypoDOffset: 0
OS2TypoLinegap: 0
OS2WinAscent: 953
OS2WinAOffset: 0
OS2WinDescent: 77
OS2WinDOffset: 0
HheadAscent: 953
HheadAOffset: 0
HheadDescent: -77
HheadDOffset: 0
OS2SubXSize: 583
OS2SubYSize: 542
OS2SubXOff: 0
OS2SubYOff: 119
OS2SupXSize: 583
OS2SupYSize: 542
OS2SupXOff: 0
OS2SupYOff: 378
OS2StrikeYSize: 42
OS2StrikeYPos: 216
OS2Vendor: '    '
OS2UnicodeRanges: 00000000.00000000.00000000.00000000
MarkAttachClasses: 1
DEI: 91125
TtTable: prep
NPUSHB
 19
 12
 12
 11
 11
 10
 10
 9
 9
 8
 8
 3
 3
 2
 2
 1
 1
 0
 0
 1
SCANTYPE
PUSHW_1
 511
SCANCTRL
RCVT
ROUND[Grey]
WCVTP
RCVT
ROUND[Grey]
WCVTP
RCVT
ROUND[Grey]
WCVTP
RCVT
ROUND[Grey]
WCVTP
RCVT
ROUND[Grey]
WCVTP
RCVT
ROUND[Grey]
WCVTP
RCVT
ROUND[Grey]
WCVTP
RCVT
ROUND[Grey]
WCVTP
RCVT
ROUND[Grey]
WCVTP
PUSHB_4
 5
 4
 70
 0
CALL
PUSHB_4
 7
 6
 70
 0
CALL
PUSHB_2
 4
 4
RCVT
ROUND[Grey]
WCVTP
PUSHB_2
 6
 6
RCVT
ROUND[Grey]
WCVTP
EndTTInstrs
TtTable: fpgm
NPUSHB
 1
 0
FDEF
SROUND
RCVT
DUP
PUSHB_1
 3
CINDEX
RCVT
SWAP
SUB
ROUND[Grey]
RTG
SWAP
ROUND[Grey]
ADD
WCVTP
ENDF
EndTTInstrs
ShortTable: cvt  104
  -27
  582
  609
  760
  154
  165
  158
  311
  187
  131
  98
  470
  465
  27169
  -16777
  -30142
  -15476
  1666
  10359
  -12355
  12170
  22882
  -3563
  9114
  3193
  1011
  -823
  9062
  18966
  -6263
  -8410
  16365
  31106

StartChar: .notdef
Encoding: 65536 -1 0
Width: 416
VWidth: 833
Flags: W
LayerCount: 2
Fore
SplineSet
52 0 m 1,0,-1
 52 667 l 1,1,-1
 365 667 l 1,2,-1
 365 0 l 1,3,-1
 52 0 l 1,0,-1
104 52 m 1,4,-1
 312 52 l 1,5,-1
 312 615 l 1,6,-1
 104 615 l 1,7,-1
 104 52 l 1,4,-1
EndSplineSet
EndChar

StartChar: exclam
Encoding: 33 33 4
Width: 399
VWidth: 833
Flags: W
LayerCount: 2
Fore
SplineSet
337 307 m 1,0,-1
 88 60 l 1,1,-1
 88 235 l 1,2,-1
 337 482 l 1,3,-1
 337 307 l 1,0,-1
335 593 m 1,4,-1
 87 347 l 1,5,-1
 87 522 l 1,6,-1
 335 768 l 1,7,-1
 335 593 l 1,4,-1
EndSplineSet
EndChar

StartChar: quotedbl
Encoding: 34 34 5
Width: 826
VWidth: 833
Flags: W
LayerCount: 2
Fore
SplineSet
727 813 m 1,0,-1
 727 394 l 1,1,-1
 432 394 l 1,2,-1
 18 813 l 1,3,-1
 254 813 l 1,4,-1
 540 520 l 1,5,-1
 540 813 l 1,6,-1
 727 813 l 1,0,-1
EndSplineSet
EndChar

StartChar: numbersign
Encoding: 35 35 6
Width: 1452
VWidth: 833
Flags: W
LayerCount: 2
Fore
SplineSet
1418 807 m 1,0,-1
 1041 -1 l 1,1,-1
 300 -1 l 1,2,-1
 300 248 l 1,3,-1
 456 248 l 1,4,-1
 456 188 l 1,5,-1
 931 188 l 1,6,-1
 1136 622 l 1,7,-1
 1148 642 l 1,8,-1
 1148 644 l 1,9,-1
 456 644 l 1,10,-1
 456 590 l 1,11,-1
 300 590 l 1,12,-1
 300 807 l 1,13,-1
 1418 807 l 1,0,-1
208 807 m 1,14,-1
 208 590 l 1,15,-1
 21 590 l 1,16,-1
 21 807 l 1,17,-1
 208 807 l 1,14,-1
21 248 m 1,18,-1
 208 248 l 1,19,-1
 208 -1 l 1,20,-1
 21 -1 l 1,21,-1
 21 248 l 1,18,-1
EndSplineSet
EndChar

StartChar: dollar
Encoding: 36 36 7
Width: 935
VWidth: 833
Flags: W
LayerCount: 2
Fore
SplineSet
223 807 m 1,0,-1
 223 644 l 1,1,-1
 317 644 l 1,2,-1
 317 807 l 1,3,-1
 410 807 l 1,4,-1
 410 644 l 1,5,-1
 910 644 l 1,6,-1
 419 -1 l 1,7,-1
 184 -1 l 1,8,-1
 542 467 l 1,9,-1
 410 467 l 1,10,-1
 410 304 l 1,11,-1
 317 304 l 1,12,-1
 317 467 l 1,13,-1
 223 467 l 1,14,-1
 223 304 l 1,15,-1
 130 304 l 1,16,-1
 130 467 l 1,17,-1
 38 467 l 1,18,-1
 38 644 l 1,19,-1
 130 644 l 1,20,-1
 130 807 l 1,21,-1
 223 807 l 1,0,-1
EndSplineSet
EndChar

StartChar: percent
Encoding: 37 37 8
Width: 1297
VWidth: 833
Flags: W
LayerCount: 2
Fore
SplineSet
887 807 m 1,0,-1
 1276 -1 l 1,1,-1
 17 -1 l 1,2,-1
 17 188 l 1,3,-1
 992 188 l 1,4,-1
 780 621 l 1,5,-1
 17 621 l 1,6,-1
 17 807 l 1,7,-1
 887 807 l 1,0,-1
EndSplineSet
EndChar

StartChar: ampersand
Encoding: 38 38 9
Width: 1183
VWidth: 833
Flags: W
LayerCount: 2
Fore
SplineSet
1152 807 m 1,0,-1
 1152 -1 l 1,1,-1
 85 -1 l 1,2,-1
 34 50 l 1,3,-1
 34 328 l 1,4,-1
 220 328 l 1,5,-1
 220 171 l 1,6,-1
 982 171 l 1,7,-1
 982 325 l 1,8,-1
 498 325 l 1,9,-1
 498 495 l 1,10,-1
 982 495 l 1,11,-1
 982 637 l 1,12,-1
 220 637 l 1,13,-1
 220 469 l 1,14,-1
 34 469 l 1,15,-1
 34 765 l 1,16,-1
 76 807 l 1,17,-1
 1152 807 l 1,0,-1
EndSplineSet
EndChar

StartChar: quotesingle
Encoding: 39 39 10
Width: 500
VWidth: 833
Flags: W
LayerCount: 2
Fore
SplineSet
327 904 m 1,0,-1
 427 830 l 1,1,-1
 277 830 l 1,2,-1
 277 321 l 1,3,-1
 92 498 l 1,4,-1
 92 904 l 1,5,-1
 327 904 l 1,0,-1
EndSplineSet
EndChar

StartChar: parenleft
Encoding: 40 40 11
Width: 485
VWidth: 833
Flags: W
LayerCount: 2
Fore
SplineSet
205 -1 m 1,0,-1
 205 315 l 1,1,-1
 50 315 l 1,2,-1
 50 493 l 1,3,-1
 205 493 l 1,4,-1
 205 807 l 1,5,-1
 377 807 l 1,6,-1
 377 -1 l 1,7,-1
 205 -1 l 1,0,-1
EndSplineSet
EndChar

StartChar: parenright
Encoding: 41 41 12
Width: 481
VWidth: 833
Flags: W
LayerCount: 2
Fore
SplineSet
248 -1 m 1,0,-1
 248 315 l 1,1,-1
 403 315 l 1,2,-1
 403 493 l 1,3,-1
 248 493 l 1,4,-1
 248 807 l 1,5,-1
 77 807 l 1,6,-1
 77 -1 l 1,7,-1
 248 -1 l 1,0,-1
EndSplineSet
EndChar

StartChar: asterisk
Encoding: 42 42 13
Width: 850
VWidth: 833
Flags: W
LayerCount: 2
Fore
SplineSet
759 805 m 1,0,-1
 810 754 l 1,1,-1
 810 51 l 1,2,-1
 759 0 l 1,3,-1
 468 0 l 1,4,-1
 468 186 l 1,5,-1
 624 186 l 1,6,-1
 624 619 l 1,7,-1
 468 619 l 1,8,-1
 468 805 l 1,9,-1
 759 805 l 1,0,-1
387 805 m 1,10,-1
 387 619 l 1,11,-1
 231 619 l 1,12,-1
 231 186 l 1,13,-1
 387 186 l 1,14,-1
 387 0 l 1,15,-1
 96 0 l 1,16,-1
 44 51 l 1,17,-1
 44 754 l 1,18,-1
 96 805 l 1,19,-1
 387 805 l 1,10,-1
EndSplineSet
EndChar

StartChar: plus
Encoding: 43 43 14
Width: 1180
VWidth: 833
Flags: W
LayerCount: 2
Fore
SplineSet
1126 11 m 1,0,-1
 1105 5 l 1,1,-1
 1074 0 l 1,2,-1
 92 0 l 1,3,-1
 59 3 l 1,4,-1
 39 10 l 1,5,-1
 31 27 l 1,6,-1
 28 54 l 1,7,-1
 28 758 l 1,8,-1
 32 784 l 1,9,-1
 41 800 l 1,10,-1
 58 809 l 1,11,-1
 92 812 l 1,12,-1
 1074 812 l 1,13,-1
 1110 810 l 1,14,-1
 1128 803 l 1,15,-1
 1135 788 l 1,16,-1
 1139 758 l 1,17,-1
 1139 54 l 1,18,-1
 1136 25 l 1,19,-1
 1126 11 l 1,0,-1
957 163 m 1,20,-1
 957 630 l 1,21,-1
 213 630 l 1,22,-1
 213 493 l 1,23,-1
 677 493 l 1,24,-1
 677 327 l 1,25,-1
 210 327 l 1,26,-1
 210 163 l 1,27,-1
 957 163 l 1,20,-1
EndSplineSet
EndChar

StartChar: comma
Encoding: 44 44 15
Width: 340
VWidth: 833
Flags: W
LayerCount: 2
Fore
SplineSet
68 0 m 1,0,-1
 68 410 l 1,1,-1
 250 410 l 1,2,-1
 250 0 l 1,3,-1
 68 0 l 1,0,-1
EndSplineSet
EndChar

StartChar: hyphen
Encoding: 45 45 16
AltUni2: 002010.ffffffff.0
Width: 640
VWidth: 833
Flags: W
LayerCount: 2
Fore
SplineSet
75 813 m 1,0,-1
 75 641 l 1,1,-1
 548 641 l 1,2,-1
 548 813 l 1,3,-1
 75 813 l 1,0,-1
EndSplineSet
EndChar

StartChar: period
Encoding: 46 46 17
Width: 638
VWidth: 833
Flags: W
LayerCount: 2
Fore
SplineSet
318 0 m 1,0,-1
 318 410 l 1,1,-1
 501 410 l 1,2,-1
 501 0 l 1,3,-1
 318 0 l 1,0,-1
68 -1 m 1,4,-1
 68 409 l 1,5,-1
 250 409 l 1,6,-1
 250 -1 l 1,7,-1
 68 -1 l 1,4,-1
EndSplineSet
EndChar

StartChar: slash
Encoding: 47 47 18
Width: 464
VWidth: 833
Flags: W
LayerCount: 2
Fore
SplineSet
430 458 m 1,0,-1
 275 337 l 1,1,-1
 275 0 l 1,2,-1
 92 0 l 1,3,-1
 92 335 l 1,4,-1
 248 458 l 1,5,-1
 248 815 l 1,6,-1
 431 814 l 1,7,-1
 430 458 l 1,0,-1
EndSplineSet
EndChar

StartChar: zero
Encoding: 48 48 19
Width: 273
VWidth: 833
Flags: W
LayerCount: 2
Fore
SplineSet
72 368 m 1,0,1
 64 383 64 383 62 394 c 128,-1,2
 60 405 60 405 60 435.5 c 128,-1,3
 60 466 60 466 62 477 c 128,-1,4
 64 488 64 488 66 495 c 128,-1,5
 68 502 68 502 75 505 c 128,-1,6
 82 508 82 508 93.5 510 c 128,-1,7
 105 512 105 512 135.5 512 c 128,-1,8
 166 512 166 512 177 510 c 128,-1,9
 188 508 188 508 195 505 c 128,-1,10
 202 502 202 502 204.5 496.5 c 128,-1,11
 207 491 207 491 209.5 478.5 c 128,-1,12
 212 466 212 466 212 435.5 c 128,-1,13
 212 405 212 405 209.5 395 c 128,-1,14
 207 385 207 385 204 378 c 128,-1,15
 201 371 201 371 193.5 367 c 128,-1,16
 186 363 186 363 176 360.5 c 128,-1,17
 166 358 166 358 135.5 358 c 128,-1,18
 105 358 105 358 95 359.5 c 128,-1,19
 85 361 85 361 72 368 c 1,0,1
EndSplineSet
EndChar

StartChar: one
Encoding: 49 49 20
Width: 443
VWidth: 833
Flags: W
LayerCount: 2
Fore
SplineSet
72 368 m 1,0,1
 64 383 64 383 62 394 c 128,-1,2
 60 405 60 405 60 435.5 c 128,-1,3
 60 466 60 466 62 477 c 128,-1,4
 64 488 64 488 66 495 c 128,-1,5
 68 502 68 502 75 505 c 128,-1,6
 82 508 82 508 93.5 510 c 128,-1,7
 105 512 105 512 135.5 512 c 128,-1,8
 166 512 166 512 177 510 c 128,-1,9
 188 508 188 508 195 505 c 128,-1,10
 202 502 202 502 204.5 496.5 c 128,-1,11
 207 491 207 491 209.5 478.5 c 128,-1,12
 212 466 212 466 212 435.5 c 128,-1,13
 212 405 212 405 209.5 395 c 128,-1,14
 207 385 207 385 204 378 c 128,-1,15
 201 371 201 371 193.5 367 c 128,-1,16
 186 363 186 363 176 360.5 c 128,-1,17
 166 358 166 358 135.5 358 c 128,-1,18
 105 358 105 358 95 359.5 c 128,-1,19
 85 361 85 361 72 368 c 1,0,1
252 368 m 1,20,21
 244 383 244 383 242 394 c 128,-1,22
 240 405 240 405 240 435.5 c 128,-1,23
 240 466 240 466 242 477 c 128,-1,24
 244 488 244 488 246 495 c 128,-1,25
 248 502 248 502 255 505 c 128,-1,26
 262 508 262 508 273.5 510 c 128,-1,27
 285 512 285 512 315.5 512 c 128,-1,28
 346 512 346 512 357 510 c 128,-1,29
 368 508 368 508 375 505 c 128,-1,30
 382 502 382 502 384.5 496.5 c 128,-1,31
 387 491 387 491 389.5 478.5 c 128,-1,32
 392 466 392 466 392 435.5 c 128,-1,33
 392 405 392 405 389.5 395 c 128,-1,34
 387 385 387 385 384 378 c 128,-1,35
 381 371 381 371 373.5 367 c 128,-1,36
 366 363 366 363 356 360.5 c 128,-1,37
 346 358 346 358 315.5 358 c 128,-1,38
 285 358 285 358 275 359.5 c 128,-1,39
 265 361 265 361 252 368 c 1,20,21
EndSplineSet
EndChar

StartChar: two
Encoding: 50 50 21
Width: 443
VWidth: 833
Flags: W
LayerCount: 2
Fore
SplineSet
72 368 m 1,0,1
 64 383 64 383 62 394 c 128,-1,2
 60 405 60 405 60 435.5 c 128,-1,3
 60 466 60 466 62 477 c 128,-1,4
 64 488 64 488 66 495 c 128,-1,5
 68 502 68 502 75 505 c 128,-1,6
 82 508 82 508 93.5 510 c 128,-1,7
 105 512 105 512 135.5 512 c 128,-1,8
 166 512 166 512 177 510 c 128,-1,9
 188 508 188 508 195 505 c 128,-1,10
 202 502 202 502 204.5 496.5 c 128,-1,11
 207 491 207 491 209.5 478.5 c 128,-1,12
 212 466 212 466 212 435.5 c 128,-1,13
 212 405 212 405 209.5 395 c 128,-1,14
 207 385 207 385 204 378 c 128,-1,15
 201 371 201 371 193.5 367 c 128,-1,16
 186 363 186 363 176 360.5 c 128,-1,17
 166 358 166 358 135.5 358 c 128,-1,18
 105 358 105 358 95 359.5 c 128,-1,19
 85 361 85 361 72 368 c 1,0,1
252 368 m 1,20,21
 244 383 244 383 242 394 c 128,-1,22
 240 405 240 405 240 435.5 c 128,-1,23
 240 466 240 466 242 477 c 128,-1,24
 244 488 244 488 246 495 c 128,-1,25
 248 502 248 502 255 505 c 128,-1,26
 262 508 262 508 273.5 510 c 128,-1,27
 285 512 285 512 315.5 512 c 128,-1,28
 346 512 346 512 357 510 c 128,-1,29
 368 508 368 508 375 505 c 128,-1,30
 382 502 382 502 384.5 496.5 c 128,-1,31
 387 491 387 491 389.5 478.5 c 128,-1,32
 392 466 392 466 392 435.5 c 128,-1,33
 392 405 392 405 389.5 395 c 128,-1,34
 387 385 387 385 384 378 c 128,-1,35
 381 371 381 371 373.5 367 c 128,-1,36
 366 363 366 363 356 360.5 c 128,-1,37
 346 358 346 358 315.5 358 c 128,-1,38
 285 358 285 358 275 359.5 c 128,-1,39
 265 361 265 361 252 368 c 1,20,21
253 188 m 1,40,41
 245 203 245 203 243.5 213.5 c 128,-1,42
 242 224 242 224 242 254.5 c 128,-1,43
 242 285 242 285 244 296 c 128,-1,44
 246 307 246 307 248 314 c 128,-1,45
 250 321 250 321 257 324 c 128,-1,46
 264 327 264 327 275.5 329 c 128,-1,47
 287 331 287 331 317.5 331 c 128,-1,48
 348 331 348 331 359 329 c 128,-1,49
 370 327 370 327 377 324.5 c 128,-1,50
 384 322 384 322 386 316 c 128,-1,51
 388 310 388 310 390.5 297.5 c 128,-1,52
 393 285 393 285 393 254.5 c 128,-1,53
 393 224 393 224 390.5 214 c 128,-1,54
 388 204 388 204 385 197 c 128,-1,55
 382 190 382 190 375 186 c 128,-1,56
 368 182 368 182 358 180 c 128,-1,57
 348 178 348 178 317.5 178 c 128,-1,58
 287 178 287 178 276.5 179.5 c 128,-1,59
 266 181 266 181 253 188 c 1,40,41
EndSplineSet
EndChar

StartChar: three
Encoding: 51 51 22
Width: 443
VWidth: 833
Flags: W
LayerCount: 2
Fore
SplineSet
252 11 m 1,0,1
 244 26 244 26 242 37 c 128,-1,2
 240 48 240 48 240 78 c 128,-1,3
 240 108 240 108 242 119 c 128,-1,4
 244 130 244 130 246 137 c 128,-1,5
 248 144 248 144 255 147 c 128,-1,6
 262 150 262 150 273.5 152 c 128,-1,7
 285 154 285 154 315.5 154 c 128,-1,8
 346 154 346 154 357 152 c 128,-1,9
 368 150 368 150 375 147.5 c 128,-1,10
 382 145 382 145 384.5 139 c 128,-1,11
 387 133 387 133 389.5 120.5 c 128,-1,12
 392 108 392 108 392 78 c 128,-1,13
 392 48 392 48 389.5 38 c 128,-1,14
 387 28 387 28 384 20.5 c 128,-1,15
 381 13 381 13 373.5 9.5 c 128,-1,16
 366 6 366 6 356 3.5 c 128,-1,17
 346 1 346 1 315.5 1 c 128,-1,18
 285 1 285 1 275 2.5 c 128,-1,19
 265 4 265 4 252 11 c 1,0,1
72 368 m 1,20,21
 64 383 64 383 62 394 c 128,-1,22
 60 405 60 405 60 435.5 c 128,-1,23
 60 466 60 466 62 477 c 128,-1,24
 64 488 64 488 66 495 c 128,-1,25
 68 502 68 502 75 505 c 128,-1,26
 82 508 82 508 93.5 510 c 128,-1,27
 105 512 105 512 135.5 512 c 128,-1,28
 166 512 166 512 177 510 c 128,-1,29
 188 508 188 508 195 505 c 128,-1,30
 202 502 202 502 204.5 496.5 c 128,-1,31
 207 491 207 491 209.5 478.5 c 128,-1,32
 212 466 212 466 212 435.5 c 128,-1,33
 212 405 212 405 209.5 395 c 128,-1,34
 207 385 207 385 204 378 c 128,-1,35
 201 371 201 371 193.5 367 c 128,-1,36
 186 363 186 363 176 360.5 c 128,-1,37
 166 358 166 358 135.5 358 c 128,-1,38
 105 358 105 358 95 359.5 c 128,-1,39
 85 361 85 361 72 368 c 1,20,21
252 368 m 1,40,41
 244 383 244 383 242 394 c 128,-1,42
 240 405 240 405 240 435.5 c 128,-1,43
 240 466 240 466 242 477 c 128,-1,44
 244 488 244 488 246 495 c 128,-1,45
 248 502 248 502 255 505 c 128,-1,46
 262 508 262 508 273.5 510 c 128,-1,47
 285 512 285 512 315.5 512 c 128,-1,48
 346 512 346 512 357 510 c 128,-1,49
 368 508 368 508 375 505 c 128,-1,50
 382 502 382 502 384.5 496.5 c 128,-1,51
 387 491 387 491 389.5 478.5 c 128,-1,52
 392 466 392 466 392 435.5 c 128,-1,53
 392 405 392 405 389.5 395 c 128,-1,54
 387 385 387 385 384 378 c 128,-1,55
 381 371 381 371 373.5 367 c 128,-1,56
 366 363 366 363 356 360.5 c 128,-1,57
 346 358 346 358 315.5 358 c 128,-1,58
 285 358 285 358 275 359.5 c 128,-1,59
 265 361 265 361 252 368 c 1,40,41
253 188 m 1,60,61
 245 203 245 203 243.5 213.5 c 128,-1,62
 242 224 242 224 242 254.5 c 128,-1,63
 242 285 242 285 244 296 c 128,-1,64
 246 307 246 307 248 314 c 128,-1,65
 250 321 250 321 257 324 c 128,-1,66
 264 327 264 327 275.5 329 c 128,-1,67
 287 331 287 331 317.5 331 c 128,-1,68
 348 331 348 331 359 329 c 128,-1,69
 370 327 370 327 377 324.5 c 128,-1,70
 384 322 384 322 386 316 c 128,-1,71
 388 310 388 310 390.5 297.5 c 128,-1,72
 393 285 393 285 393 254.5 c 128,-1,73
 393 224 393 224 390.5 214 c 128,-1,74
 388 204 388 204 385 197 c 128,-1,75
 382 190 382 190 375 186 c 128,-1,76
 368 182 368 182 358 180 c 128,-1,77
 348 178 348 178 317.5 178 c 128,-1,78
 287 178 287 178 276.5 179.5 c 128,-1,79
 266 181 266 181 253 188 c 1,60,61
EndSplineSet
EndChar

StartChar: four
Encoding: 52 52 23
Width: 443
VWidth: 833
Flags: W
LayerCount: 2
Fore
SplineSet
252 368 m 1,0,1
 244 383 244 383 242 394 c 128,-1,2
 240 405 240 405 240 435.5 c 128,-1,3
 240 466 240 466 242 477 c 128,-1,4
 244 488 244 488 246 495 c 128,-1,5
 248 502 248 502 255 505 c 128,-1,6
 262 508 262 508 273.5 510 c 128,-1,7
 285 512 285 512 315.5 512 c 128,-1,8
 346 512 346 512 357 510 c 128,-1,9
 368 508 368 508 375 505 c 128,-1,10
 382 502 382 502 384.5 496.5 c 128,-1,11
 387 491 387 491 389.5 478.5 c 128,-1,12
 392 466 392 466 392 435.5 c 128,-1,13
 392 405 392 405 389.5 395 c 128,-1,14
 387 385 387 385 384 378 c 128,-1,15
 381 371 381 371 373.5 367 c 128,-1,16
 366 363 366 363 356 360.5 c 128,-1,17
 346 358 346 358 315.5 358 c 128,-1,18
 285 358 285 358 275 359.5 c 128,-1,19
 265 361 265 361 252 368 c 1,0,1
68 199 m 1,20,-1
 64 233 l 1,21,-1
 64 461 l 2,22,23
 65 495 65 495 72 501.5 c 128,-1,24
 79 508 79 508 92 510 c 128,-1,25
 105 512 105 512 135.5 512 c 128,-1,26
 166 512 166 512 178 510 c 128,-1,27
 190 508 190 508 197.5 503 c 128,-1,28
 205 498 205 498 207 468 c 2,29,-1
 207 236 l 2,30,31
 205 202 205 202 199 194 c 128,-1,32
 193 186 193 186 179.5 182 c 128,-1,33
 166 178 166 178 135.5 178 c 128,-1,34
 105 178 105 178 92.5 181 c 128,-1,35
 80 184 80 184 68 199 c 1,20,-1
EndSplineSet
EndChar

StartChar: five
Encoding: 53 53 24
Width: 443
VWidth: 833
Flags: W
LayerCount: 2
Fore
SplineSet
252 368 m 1,0,1
 244 383 244 383 242 394 c 128,-1,2
 240 405 240 405 240 435.5 c 128,-1,3
 240 466 240 466 242 477 c 128,-1,4
 244 488 244 488 246 495 c 128,-1,5
 248 502 248 502 255 505 c 128,-1,6
 262 508 262 508 273.5 510 c 128,-1,7
 285 512 285 512 315.5 512 c 128,-1,8
 346 512 346 512 357 510 c 128,-1,9
 368 508 368 508 375 505 c 128,-1,10
 382 502 382 502 384.5 496.5 c 128,-1,11
 387 491 387 491 389.5 478.5 c 128,-1,12
 392 466 392 466 392 435.5 c 128,-1,13
 392 405 392 405 389.5 395 c 128,-1,14
 387 385 387 385 384 378 c 128,-1,15
 381 371 381 371 373.5 367 c 128,-1,16
 366 363 366 363 356 360.5 c 128,-1,17
 346 358 346 358 315.5 358 c 128,-1,18
 285 358 285 358 275 359.5 c 128,-1,19
 265 361 265 361 252 368 c 1,0,1
253 188 m 1,20,21
 245 203 245 203 243.5 213.5 c 128,-1,22
 242 224 242 224 242 254.5 c 128,-1,23
 242 285 242 285 244 296 c 128,-1,24
 246 307 246 307 248 314 c 128,-1,25
 250 321 250 321 257 324 c 128,-1,26
 264 327 264 327 275.5 329 c 128,-1,27
 287 331 287 331 317.5 331 c 128,-1,28
 348 331 348 331 359 329 c 128,-1,29
 370 327 370 327 377 324.5 c 128,-1,30
 384 322 384 322 386 316 c 128,-1,31
 388 310 388 310 390.5 297.5 c 128,-1,32
 393 285 393 285 393 254.5 c 128,-1,33
 393 224 393 224 390.5 214 c 128,-1,34
 388 204 388 204 385 197 c 128,-1,35
 382 190 382 190 375 186 c 128,-1,36
 368 182 368 182 358 180 c 128,-1,37
 348 178 348 178 317.5 178 c 128,-1,38
 287 178 287 178 276.5 179.5 c 128,-1,39
 266 181 266 181 253 188 c 1,20,21
68 199 m 1,40,-1
 64 233 l 1,41,-1
 64 461 l 2,42,43
 65 495 65 495 72 501.5 c 128,-1,44
 79 508 79 508 92 510 c 128,-1,45
 105 512 105 512 135.5 512 c 128,-1,46
 166 512 166 512 178 510 c 128,-1,47
 190 508 190 508 197.5 503 c 128,-1,48
 205 498 205 498 207 468 c 2,49,-1
 207 236 l 2,50,51
 205 202 205 202 199 194 c 128,-1,52
 193 186 193 186 179.5 182 c 128,-1,53
 166 178 166 178 135.5 178 c 128,-1,54
 105 178 105 178 92.5 181 c 128,-1,55
 80 184 80 184 68 199 c 1,40,-1
EndSplineSet
EndChar

StartChar: six
Encoding: 54 54 25
Width: 443
VWidth: 833
Flags: W
LayerCount: 2
Fore
SplineSet
252 368 m 1,0,1
 244 383 244 383 242 394 c 128,-1,2
 240 405 240 405 240 435.5 c 128,-1,3
 240 466 240 466 242 477 c 128,-1,4
 244 488 244 488 246 495 c 128,-1,5
 248 502 248 502 255 505 c 128,-1,6
 262 508 262 508 273.5 510 c 128,-1,7
 285 512 285 512 315.5 512 c 128,-1,8
 346 512 346 512 357 510 c 128,-1,9
 368 508 368 508 375 505 c 128,-1,10
 382 502 382 502 384.5 496.5 c 128,-1,11
 387 491 387 491 389.5 478.5 c 128,-1,12
 392 466 392 466 392 435.5 c 128,-1,13
 392 405 392 405 389.5 395 c 128,-1,14
 387 385 387 385 384 378 c 128,-1,15
 381 371 381 371 373.5 367 c 128,-1,16
 366 363 366 363 356 360.5 c 128,-1,17
 346 358 346 358 315.5 358 c 128,-1,18
 285 358 285 358 275 359.5 c 128,-1,19
 265 361 265 361 252 368 c 1,0,1
253 188 m 1,20,21
 245 203 245 203 243.5 213.5 c 128,-1,22
 242 224 242 224 242 254.5 c 128,-1,23
 242 285 242 285 244 296 c 128,-1,24
 246 307 246 307 248 314 c 128,-1,25
 250 321 250 321 257 324 c 128,-1,26
 264 327 264 327 275.5 329 c 128,-1,27
 287 331 287 331 317.5 331 c 128,-1,28
 348 331 348 331 359 329 c 128,-1,29
 370 327 370 327 377 324.5 c 128,-1,30
 384 322 384 322 386 316 c 128,-1,31
 388 310 388 310 390.5 297.5 c 128,-1,32
 393 285 393 285 393 254.5 c 128,-1,33
 393 224 393 224 390.5 214 c 128,-1,34
 388 204 388 204 385 197 c 128,-1,35
 382 190 382 190 375 186 c 128,-1,36
 368 182 368 182 358 180 c 128,-1,37
 348 178 348 178 317.5 178 c 128,-1,38
 287 178 287 178 276.5 179.5 c 128,-1,39
 266 181 266 181 253 188 c 1,20,21
252 11 m 1,40,41
 244 26 244 26 242 37 c 128,-1,42
 240 48 240 48 240 78 c 128,-1,43
 240 108 240 108 242 119 c 128,-1,44
 244 130 244 130 246 137 c 128,-1,45
 248 144 248 144 255 147 c 128,-1,46
 262 150 262 150 273.5 152 c 128,-1,47
 285 154 285 154 315.5 154 c 128,-1,48
 346 154 346 154 357 152 c 128,-1,49
 368 150 368 150 375 147.5 c 128,-1,50
 382 145 382 145 384.5 139 c 128,-1,51
 387 133 387 133 389.5 120.5 c 128,-1,52
 392 108 392 108 392 78 c 128,-1,53
 392 48 392 48 389.5 38 c 128,-1,54
 387 28 387 28 384 20.5 c 128,-1,55
 381 13 381 13 373.5 9.5 c 128,-1,56
 366 6 366 6 356 3.5 c 128,-1,57
 346 1 346 1 315.5 1 c 128,-1,58
 285 1 285 1 275 2.5 c 128,-1,59
 265 4 265 4 252 11 c 1,40,41
68 199 m 1,60,-1
 64 233 l 1,61,-1
 64 461 l 2,62,63
 65 495 65 495 72 501.5 c 128,-1,64
 79 508 79 508 92 510 c 128,-1,65
 105 512 105 512 135.5 512 c 128,-1,66
 166 512 166 512 178 510 c 128,-1,67
 190 508 190 508 197.5 503 c 128,-1,68
 205 498 205 498 207 468 c 2,69,-1
 207 236 l 2,70,71
 205 202 205 202 199 194 c 128,-1,72
 193 186 193 186 179.5 182 c 128,-1,73
 166 178 166 178 135.5 178 c 128,-1,74
 105 178 105 178 92.5 181 c 128,-1,75
 80 184 80 184 68 199 c 1,60,-1
EndSplineSet
EndChar

StartChar: seven
Encoding: 55 55 26
Width: 443
VWidth: 833
Flags: W
LayerCount: 2
Fore
SplineSet
68 28 m 1,0,-1
 64 85 l 1,1,-1
 64 434 l 2,2,3
 66 484 66 484 71 495 c 128,-1,4
 76 506 76 506 90.5 509 c 128,-1,5
 105 512 105 512 135.5 512 c 128,-1,6
 166 512 166 512 182 510 c 128,-1,7
 198 508 198 508 202.5 497 c 128,-1,8
 207 486 207 486 207 444 c 2,9,-1
 207 90 l 2,10,11
 206 30 206 30 200.5 19 c 128,-1,12
 195 8 195 8 180.5 4.5 c 128,-1,13
 166 1 166 1 135.5 1 c 128,-1,14
 105 1 105 1 90 5.5 c 128,-1,15
 75 10 75 10 68 28 c 1,0,-1
252 368 m 1,16,17
 244 383 244 383 242 394 c 128,-1,18
 240 405 240 405 240 435.5 c 128,-1,19
 240 466 240 466 242 477 c 128,-1,20
 244 488 244 488 246 495 c 128,-1,21
 248 502 248 502 255 505 c 128,-1,22
 262 508 262 508 273.5 510 c 128,-1,23
 285 512 285 512 315.5 512 c 128,-1,24
 346 512 346 512 357 510 c 128,-1,25
 368 508 368 508 375 505 c 128,-1,26
 382 502 382 502 384.5 496.5 c 128,-1,27
 387 491 387 491 389.5 478.5 c 128,-1,28
 392 466 392 466 392 435.5 c 128,-1,29
 392 405 392 405 389.5 395 c 128,-1,30
 387 385 387 385 384 378 c 128,-1,31
 381 371 381 371 373.5 367 c 128,-1,32
 366 363 366 363 356 360.5 c 128,-1,33
 346 358 346 358 315.5 358 c 128,-1,34
 285 358 285 358 275 359.5 c 128,-1,35
 265 361 265 361 252 368 c 1,16,17
EndSplineSet
EndChar

StartChar: eight
Encoding: 56 56 27
Width: 443
VWidth: 833
Flags: W
LayerCount: 2
Fore
SplineSet
68 28 m 1,0,-1
 64 85 l 1,1,-1
 64 434 l 2,2,3
 66 484 66 484 71 495 c 128,-1,4
 76 506 76 506 90.5 509 c 128,-1,5
 105 512 105 512 135.5 512 c 128,-1,6
 166 512 166 512 182 510 c 128,-1,7
 198 508 198 508 202.5 497 c 128,-1,8
 207 486 207 486 207 444 c 2,9,-1
 207 90 l 2,10,11
 206 30 206 30 200.5 19 c 128,-1,12
 195 8 195 8 180.5 4.5 c 128,-1,13
 166 1 166 1 135.5 1 c 128,-1,14
 105 1 105 1 90 5.5 c 128,-1,15
 75 10 75 10 68 28 c 1,0,-1
252 368 m 1,16,17
 244 383 244 383 242 394 c 128,-1,18
 240 405 240 405 240 435.5 c 128,-1,19
 240 466 240 466 242 477 c 128,-1,20
 244 488 244 488 246 495 c 128,-1,21
 248 502 248 502 255 505 c 128,-1,22
 262 508 262 508 273.5 510 c 128,-1,23
 285 512 285 512 315.5 512 c 128,-1,24
 346 512 346 512 357 510 c 128,-1,25
 368 508 368 508 375 505 c 128,-1,26
 382 502 382 502 384.5 496.5 c 128,-1,27
 387 491 387 491 389.5 478.5 c 128,-1,28
 392 466 392 466 392 435.5 c 128,-1,29
 392 405 392 405 389.5 395 c 128,-1,30
 387 385 387 385 384 378 c 128,-1,31
 381 371 381 371 373.5 367 c 128,-1,32
 366 363 366 363 356 360.5 c 128,-1,33
 346 358 346 358 315.5 358 c 128,-1,34
 285 358 285 358 275 359.5 c 128,-1,35
 265 361 265 361 252 368 c 1,16,17
253 188 m 1,36,37
 245 203 245 203 243.5 213.5 c 128,-1,38
 242 224 242 224 242 254.5 c 128,-1,39
 242 285 242 285 244 296 c 128,-1,40
 246 307 246 307 248 314 c 128,-1,41
 250 321 250 321 257 324 c 128,-1,42
 264 327 264 327 275.5 329 c 128,-1,43
 287 331 287 331 317.5 331 c 128,-1,44
 348 331 348 331 359 329 c 128,-1,45
 370 327 370 327 377 324.5 c 128,-1,46
 384 322 384 322 386 316 c 128,-1,47
 388 310 388 310 390.5 297.5 c 128,-1,48
 393 285 393 285 393 254.5 c 128,-1,49
 393 224 393 224 390.5 214 c 128,-1,50
 388 204 388 204 385 197 c 128,-1,51
 382 190 382 190 375 186 c 128,-1,52
 368 182 368 182 358 180 c 128,-1,53
 348 178 348 178 317.5 178 c 128,-1,54
 287 178 287 178 276.5 179.5 c 128,-1,55
 266 181 266 181 253 188 c 1,36,37
EndSplineSet
EndChar

StartChar: nine
Encoding: 57 57 28
Width: 443
VWidth: 833
Flags: W
LayerCount: 2
Fore
SplineSet
68 28 m 1,0,-1
 64 85 l 1,1,-1
 64 434 l 2,2,3
 66 484 66 484 71 495 c 128,-1,4
 76 506 76 506 90.5 509 c 128,-1,5
 105 512 105 512 135.5 512 c 128,-1,6
 166 512 166 512 182 510 c 128,-1,7
 198 508 198 508 202.5 497 c 128,-1,8
 207 486 207 486 207 444 c 2,9,-1
 207 90 l 2,10,11
 206 30 206 30 200.5 19 c 128,-1,12
 195 8 195 8 180.5 4.5 c 128,-1,13
 166 1 166 1 135.5 1 c 128,-1,14
 105 1 105 1 90 5.5 c 128,-1,15
 75 10 75 10 68 28 c 1,0,-1
252 368 m 1,16,17
 244 383 244 383 242 394 c 128,-1,18
 240 405 240 405 240 435.5 c 128,-1,19
 240 466 240 466 242 477 c 128,-1,20
 244 488 244 488 246 495 c 128,-1,21
 248 502 248 502 255 505 c 128,-1,22
 262 508 262 508 273.5 510 c 128,-1,23
 285 512 285 512 315.5 512 c 128,-1,24
 346 512 346 512 357 510 c 128,-1,25
 368 508 368 508 375 505 c 128,-1,26
 382 502 382 502 384.5 496.5 c 128,-1,27
 387 491 387 491 389.5 478.5 c 128,-1,28
 392 466 392 466 392 435.5 c 128,-1,29
 392 405 392 405 389.5 395 c 128,-1,30
 387 385 387 385 384 378 c 128,-1,31
 381 371 381 371 373.5 367 c 128,-1,32
 366 363 366 363 356 360.5 c 128,-1,33
 346 358 346 358 315.5 358 c 128,-1,34
 285 358 285 358 275 359.5 c 128,-1,35
 265 361 265 361 252 368 c 1,16,17
253 188 m 1,36,37
 245 203 245 203 243.5 213.5 c 128,-1,38
 242 224 242 224 242 254.5 c 128,-1,39
 242 285 242 285 244 296 c 128,-1,40
 246 307 246 307 248 314 c 128,-1,41
 250 321 250 321 257 324 c 128,-1,42
 264 327 264 327 275.5 329 c 128,-1,43
 287 331 287 331 317.5 331 c 128,-1,44
 348 331 348 331 359 329 c 128,-1,45
 370 327 370 327 377 324.5 c 128,-1,46
 384 322 384 322 386 316 c 128,-1,47
 388 310 388 310 390.5 297.5 c 128,-1,48
 393 285 393 285 393 254.5 c 128,-1,49
 393 224 393 224 390.5 214 c 128,-1,50
 388 204 388 204 385 197 c 128,-1,51
 382 190 382 190 375 186 c 128,-1,52
 368 182 368 182 358 180 c 128,-1,53
 348 178 348 178 317.5 178 c 128,-1,54
 287 178 287 178 276.5 179.5 c 128,-1,55
 266 181 266 181 253 188 c 1,36,37
252 11 m 1,56,57
 244 26 244 26 242 37 c 128,-1,58
 240 48 240 48 240 78 c 128,-1,59
 240 108 240 108 242 119 c 128,-1,60
 244 130 244 130 246 137 c 128,-1,61
 248 144 248 144 255 147 c 128,-1,62
 262 150 262 150 273.5 152 c 128,-1,63
 285 154 285 154 315.5 154 c 128,-1,64
 346 154 346 154 357 152 c 128,-1,65
 368 150 368 150 375 147.5 c 128,-1,66
 382 145 382 145 384.5 139 c 128,-1,67
 387 133 387 133 389.5 120.5 c 128,-1,68
 392 108 392 108 392 78 c 128,-1,69
 392 48 392 48 389.5 38 c 128,-1,70
 387 28 387 28 384 20.5 c 128,-1,71
 381 13 381 13 373.5 9.5 c 128,-1,72
 366 6 366 6 356 3.5 c 128,-1,73
 346 1 346 1 315.5 1 c 128,-1,74
 285 1 285 1 275 2.5 c 128,-1,75
 265 4 265 4 252 11 c 1,56,57
EndSplineSet
EndChar

StartChar: colon
Encoding: 58 58 29
Width: 531
VWidth: 833
Flags: W
LayerCount: 2
Fore
SplineSet
72 0 m 1,0,-1
 72 172 l 1,1,-1
 232 172 l 1,2,-1
 72 336 l 1,3,-1
 72 578 l 1,4,-1
 472 172 l 1,5,-1
 472 0 l 1,6,-1
 72 0 l 1,0,-1
EndSplineSet
EndChar

StartChar: semicolon
Encoding: 59 59 30
Width: 430
VWidth: 833
Flags: W
LayerCount: 2
Fore
SplineSet
287 813 m 1,0,-1
 287 -1 l 1,1,-1
 122 -1 l 1,2,-1
 122 813 l 1,3,-1
 287 813 l 1,0,-1
EndSplineSet
EndChar

StartChar: less
Encoding: 60 60 31
Width: 967
VWidth: 833
Flags: W
LayerCount: 2
Fore
SplineSet
938 807 m 1,0,-1
 938 -1 l 1,1,-1
 752 -1 l 1,2,-1
 752 311 l 1,3,-1
 463 311 l 1,4,-1
 247 -1 l 1,5,-1
 30 -1 l 1,6,-1
 375 498 l 1,7,-1
 752 498 l 1,8,-1
 752 807 l 1,9,-1
 938 807 l 1,0,-1
EndSplineSet
EndChar

StartChar: equal
Encoding: 61 61 32
Width: 1042
VWidth: 833
Flags: W
LayerCount: 2
Fore
SplineSet
1005 807 m 1,0,-1
 1005 -1 l 1,1,-1
 840 -1 l 1,2,-1
 840 621 l 1,3,-1
 512 621 l 1,4,-1
 207 -1 l 1,5,-1
 22 -1 l 1,6,-1
 318 607 l 1,7,-1
 318 621 l 1,8,-1
 165 621 l 1,9,-1
 165 807 l 1,10,-1
 1005 807 l 1,0,-1
EndSplineSet
EndChar

StartChar: greater
Encoding: 62 62 33
Width: 1373
VWidth: 833
Flags: W
LayerCount: 2
Fore
SplineSet
82 189 m 1,0,-1
 136 0 l 1,1,-1
 1226 0 l 1,2,-1
 1277 189 l 1,3,-1
 82 189 l 1,0,-1
78 217 m 1,4,-1
 25 371 l 1,5,-1
 106 410 l 1,6,-1
 175 460 l 1,7,-1
 243 521 l 1,8,-1
 301 583 l 1,9,-1
 340 655 l 1,10,-1
 369 728 l 1,11,-1
 392 810 l 1,12,-1
 986 810 l 1,13,-1
 1002 746 l 1,14,-1
 1032 664 l 1,15,-1
 1071 588 l 1,16,-1
 1128 517 l 1,17,-1
 1198 457 l 1,18,-1
 1263 414 l 1,19,-1
 1345 371 l 1,20,-1
 1286 217 l 1,21,-1
 1186 266 l 1,22,-1
 1086 331 l 1,23,-1
 982 420 l 1,24,-1
 917 491 l 1,25,-1
 872 561 l 1,26,-1
 842 629 l 1,27,-1
 518 629 l 1,28,-1
 478 548 l 1,29,-1
 437 492 l 1,30,-1
 367 414 l 1,31,-1
 275 338 l 1,32,-1
 175 270 l 1,33,-1
 78 217 l 1,4,-1
EndSplineSet
EndChar

StartChar: question
Encoding: 63 63 34
Width: 538
VWidth: 833
Flags: W
LayerCount: 2
Fore
SplineSet
146 20 m 1,0,-1
 129 0 l 1,1,-1
 315 0 l 1,2,-1
 343 28 l 1,3,-1
 368 63 l 1,4,-1
 393 102 l 1,5,-1
 419 152 l 1,6,-1
 441 212 l 1,7,-1
 458 275 l 1,8,-1
 465 349 l 1,9,-1
 470 422 l 1,10,-1
 465 496 l 1,11,-1
 458 563 l 1,12,-1
 443 628 l 1,13,-1
 427 678 l 1,14,-1
 402 723 l 1,15,-1
 379 762 l 1,16,-1
 351 795 l 1,17,-1
 334 812 l 1,18,-1
 65 812 l 1,19,-1
 65 422 l 1,20,-1
 241 422 l 1,21,-1
 241 715 l 1,22,-1
 260 676 l 1,23,-1
 277 628 l 1,24,-1
 291 565 l 1,25,-1
 302 496 l 1,26,-1
 308 427 l 1,27,-1
 302 358 l 1,28,-1
 293 282 l 1,29,-1
 277 226 l 1,30,-1
 255 173 l 1,31,-1
 229 130 l 1,32,-1
 202 89 l 1,33,-1
 174 54 l 1,34,-1
 146 20 l 1,0,-1
EndSplineSet
EndChar

StartChar: at
Encoding: 64 64 35
Width: 919
VWidth: 833
Flags: W
LayerCount: 2
Fore
SplineSet
881 460 m 1,0,-1
 875 353 l 1,1,-1
 858 278 l 1,2,-1
 840 233 l 1,3,-1
 833 231 l 1,4,5
 789 133 789 133 680 60 c 0,6,7
 622 22 622 22 524 6 c 1,8,-1
 416 6 l 1,9,-1
 362 15 l 1,10,-1
 356 22 l 1,11,-1
 316 32 l 1,12,-1
 249 66 l 1,13,-1
 202 98 l 1,14,-1
 162 139 l 1,15,16
 74 246 74 246 58 368 c 1,17,18
 49 476 49 476 87 592 c 1,19,-1
 102 622 l 1,20,-1
 109 624 l 1,21,22
 107 636 107 636 166 712 c 1,23,-1
 202 747 l 1,24,25
 313 830 313 830 411 838 c 1,26,-1
 527 838 l 1,27,28
 614 823 614 823 680 782 c 0,29,30
 855 672 855 672 881 460 c 1,0,-1
138 256 m 1,31,32
 150 253 150 253 156 261 c 1,33,-1
 134 325 l 1,34,-1
 166 338 l 1,35,-1
 168 338 l 1,36,-1
 160 403 l 2,37,38
 156 428 156 428 168 502 c 1,39,-1
 134 511 l 1,40,-1
 153 571 l 1,41,-1
 146 583 l 1,42,-1
 131 580 l 1,43,-1
 102 463 l 1,44,45
 100 319 100 319 138 256 c 1,31,32
174 614 m 1,46,-1
 216 665 l 1,47,-1
 227 665 l 1,48,-1
 242 647 l 1,49,-1
 252 643 l 1,50,51
 316 704 316 704 383 722 c 1,52,-1
 374 762 l 1,53,-1
 443 772 l 1,54,-1
 446 772 l 1,55,-1
 443 798 l 1,56,-1
 378 788 l 1,57,-1
 324 769 l 1,58,-1
 258 732 l 1,59,60
 216 697 216 697 196 672 c 1,61,-1
 188 672 l 1,62,-1
 160 632 l 1,63,-1
 162 622 l 1,64,-1
 174 614 l 1,46,-1
680 647 m 1,65,-1
 689 649 l 1,66,-1
 710 672 l 1,67,-1
 724 656 l 1,68,69
 733 659 733 659 754 622 c 1,70,71
 761 618 761 618 773 632 c 1,72,-1
 754 662 l 1,73,-1
 745 662 l 1,74,-1
 736 681 l 1,75,-1
 699 719 l 1,76,77
 624 776 624 776 496 798 c 1,78,-1
 486 794 l 1,79,-1
 490 772 l 1,80,-1
 539 769 l 1,81,-1
 555 762 l 1,82,-1
 549 722 l 1,83,84
 658 686 658 686 680 647 c 1,65,-1
428 48 m 1,85,-1
 448 48 l 1,86,-1
 448 69 l 1,87,-1
 380 78 l 1,88,-1
 387 120 l 1,89,90
 316 145 316 145 290 164 c 0,91,92
 265 180 265 180 252 198 c 1,93,-1
 232 173 l 1,94,-1
 218 173 l 1,95,-1
 177 223 l 1,96,-1
 162 213 l 1,97,98
 160 204 160 204 182 182 c 2,99,-1
 249 116 l 1,100,-1
 328 72 l 1,101,-1
 428 48 l 1,85,-1
493 48 m 1,102,-1
 549 53 l 1,103,104
 597 65 597 65 655 95 c 0,105,106
 680 108 680 108 733 158 c 1,107,-1
 778 211 l 1,108,-1
 778 221 l 1,109,-1
 764 226 l 1,110,-1
 752 221 l 1,111,-1
 745 202 l 1,112,-1
 720 177 l 1,113,-1
 710 177 l 1,114,-1
 692 198 l 1,115,-1
 682 198 l 1,116,-1
 636 155 l 1,117,-1
 578 126 l 1,118,-1
 552 120 l 1,119,-1
 558 86 l 1,120,121
 535 69 535 69 496 69 c 1,122,-1
 493 48 l 1,102,-1
795 258 m 1,123,124
 807 256 807 256 822 315 c 2,125,-1
 836 388 l 1,126,127
 840 451 840 451 831 504 c 1,128,-1
 798 589 l 1,129,-1
 780 580 l 1,130,-1
 802 517 l 1,131,-1
 773 508 l 2,132,133
 764 505 764 505 767 489 c 1,134,135
 787 463 787 463 767 343 c 1,136,-1
 802 334 l 1,137,-1
 784 265 l 1,138,139
 795 265 795 265 795 258 c 1,123,124
277 261 m 1,140,-1
 287 265 l 1,141,-1
 309 290 l 1,142,143
 330 300 330 300 369 338 c 1,144,-1
 378 338 l 1,145,-1
 392 322 l 1,146,-1
 428 302 l 1,147,-1
 448 296 l 1,148,-1
 430 192 l 1,149,-1
 430 173 l 1,150,-1
 508 173 l 1,151,-1
 490 296 l 1,152,-1
 537 315 l 1,153,-1
 564 340 l 1,154,-1
 616 296 l 1,155,-1
 624 296 l 1,156,-1
 655 265 l 1,157,158
 667 265 667 265 699 331 c 1,159,-1
 699 340 l 1,160,-1
 592 375 l 2,161,162
 584 375 584 375 587 391 c 1,163,164
 597 407 597 407 592 434 c 2,165,-1
 587 469 l 1,166,167
 599 469 599 469 699 511 c 1,168,-1
 689 536 l 1,169,-1
 658 577 l 1,170,-1
 658 583 l 1,171,-1
 564 504 l 1,172,173
 522 542 522 542 490 546 c 1,174,-1
 504 668 l 1,175,-1
 490 672 l 1,176,-1
 425 668 l 1,177,-1
 446 546 l 1,178,179
 398 534 398 534 374 504 c 1,180,-1
 365 504 l 1,181,-1
 282 577 l 1,182,-1
 274 577 l 1,183,-1
 238 514 l 1,184,-1
 238 504 l 1,185,-1
 352 463 l 1,186,187
 343 456 343 456 346 391 c 1,188,-1
 352 378 l 1,189,-1
 346 372 l 1,190,-1
 334 372 l 1,191,192
 265 338 265 338 242 338 c 1,193,-1
 238 331 l 1,194,-1
 277 261 l 1,140,-1
EndSplineSet
EndChar

StartChar: A
Encoding: 65 65 36
Width: 1405
VWidth: 833
InSpiro: 1
Flags: W
LayerCount: 2
Fore
SplineSet
36.6669921875 810 m 1,0,-1
 233.333007812 810 l 1,1,2
 227.161756273 770.956460478 227.161756273 770.956460478 225 732.5 c 0,3,4
 222.841153427 691.168920175 222.841153427 691.168920175 225 650.833007812 c 1,5,-1
 734.166992188 650.833007812 l 1,6,7
 813.6288387 688.281860891 813.6288387 688.281860891 886.666992188 735 c 0,8,9
 947.266774546 773.991991206 947.266774546 773.991991206 1002.5 818.333007812 c 1,10,-1
 1172.5 685 l 1,11,-1
 734.166992188 463.333007812 l 1,12,-1
 36.6669921875 463.333007812 l 1,13,-1
 36.6669921875 810 l 1,0,-1
  Spiro
    36.6667 810 v
    233.333 810 v
    225 732.5 o
    225 650.833 v
    734.167 650.833 v
    886.667 735 o
    1002.5 818.333 v
    1172.5 685 v
    734.167 463.333 v
    36.6667 463.333 v
    0 0 z
  EndSpiro
36.6669921875 346.666992188 m 1,14,-1
 755 346.666992188 l 1,15,-1
 1172.5 125 l 1,16,-1
 1018.33300781 -8.3330078125 l 1,17,18
 946.127866 37.7555647869 946.127866 37.7555647869 872.5 79.1669921875 c 0,19,20
 796.875438446 121.586793045 796.875438446 121.586793045 720 159.166992188 c 1,21,-1
 222.5 159.166992188 l 1,22,23
 220.658831997 119.918293491 220.658831997 119.918293491 222.5 81.6669921875 c 0,24,25
 224.658298275 40.1175124121 224.658298275 40.1175124121 230.833007812 0 c 1,26,-1
 36.6669921875 0 l 1,27,-1
 36.6669921875 346.666992188 l 1,14,-1
  Spiro
    36.6667 346.667 v
    755 346.667 v
    1172.5 125 v
    1018.33 -8.33333 v
    872.5 79.1667 o
    720 159.167 v
    222.5 159.167 v
    222.5 81.6667 o
    230.833 0 v
    36.6667 0 v
    0 0 z
  EndSpiro
EndSplineSet
EndChar

StartChar: B
Encoding: 66 66 37
Width: 1305
VWidth: 833
Flags: W
LayerCount: 2
Fore
SplineSet
258 804 m 1,0,-1
 1049 804 l 1,1,-1
 1282 542 l 1,2,-1
 1282 499 l 1,3,-1
 1077 499 l 1,4,-1
 983 623 l 1,5,-1
 327 623 l 1,6,-1
 229 499 l 1,7,-1
 25 499 l 1,8,-1
 25 542 l 1,9,-1
 258 804 l 1,0,-1
400 502 m 1,10,-1
 928 502 l 1,11,-1
 928 308 l 1,12,-1
 400 308 l 1,13,-1
 400 502 l 1,10,-1
22 286 m 1,14,-1
 228 286 l 1,15,-1
 323 178 l 1,16,-1
 982 178 l 1,17,-1
 1076 284 l 1,18,-1
 1280 284 l 1,19,-1
 1280 247 l 1,20,-1
 1048 -1 l 1,21,-1
 255 -1 l 1,22,-1
 22 247 l 1,23,-1
 22 286 l 1,14,-1
EndSplineSet
EndChar

StartChar: C
Encoding: 67 67 38
Width: 750
VWidth: 833
Flags: W
LayerCount: 2
Fore
SplineSet
32 805 m 1,0,-1
 219 805 l 1,1,-1
 219 248 l 1,2,-1
 32 248 l 1,3,-1
 32 805 l 1,0,-1
279 557 m 1,4,-1
 464 557 l 1,5,-1
 464 248 l 1,6,-1
 279 248 l 1,7,-1
 279 557 l 1,4,-1
524 557 m 1,8,-1
 712 557 l 1,9,-1
 712 0 l 1,10,-1
 524 0 l 1,11,-1
 524 557 l 1,8,-1
EndSplineSet
EndChar

StartChar: D
Encoding: 68 68 39
Width: 1033
VWidth: 833
Flags: W
LayerCount: 2
Fore
SplineSet
1001 804 m 1,0,-1
 998 790 l 1,1,-1
 328 0 l 1,2,-1
 85 0 l 1,3,-1
 358 308 l 1,4,-1
 62 308 l 1,5,-1
 188 493 l 1,6,-1
 519 493 l 1,7,-1
 628 619 l 1,8,-1
 18 620 l 1,9,-1
 138 804 l 1,10,-1
 1001 804 l 1,0,-1
EndSplineSet
EndChar

StartChar: E
Encoding: 69 69 40
Width: 1258
VWidth: 833
Flags: W
LayerCount: 2
Fore
SplineSet
1233 811 m 1,0,-1
 1233 624 l 1,1,-1
 1109 624 l 1,2,-1
 1109 0 l 1,3,-1
 941 0 l 1,4,-1
 941 624 l 1,5,-1
 918 624 l 1,6,-1
 621 0 l 1,7,-1
 405 0 l 1,8,-1
 16 811 l 1,9,-1
 225 811 l 1,10,-1
 515 231 l 1,11,-1
 796 811 l 1,12,-1
 1233 811 l 1,0,-1
EndSplineSet
EndChar

StartChar: F
Encoding: 70 70 41
Width: 1263
VWidth: 833
Flags: W
LayerCount: 2
Fore
SplineSet
710 806 m 1,0,-1
 710 612 l 1,1,2
 867 638 867 638 960 672 c 128,-1,3
 1053 706 1053 706 1230 817 c 1,4,-1
 1230 650 l 1,5,6
 1090 557 1090 557 981 512.5 c 128,-1,7
 872 468 872 468 710 434 c 1,8,-1
 710 186 l 1,9,-1
 1230 186 l 1,10,-1
 1230 0 l 1,11,-1
 33 0 l 1,12,-1
 33 558 l 1,13,-1
 252 558 l 1,14,15
 400 565 400 565 538 588 c 1,16,-1
 539 806 l 1,17,-1
 710 806 l 1,0,-1
218 186 m 1,18,-1
 539 186 l 1,19,-1
 539 395 l 1,20,21
 427 380 427 380 305 377 c 1,22,-1
 217 377 l 1,23,-1
 218 186 l 1,18,-1
EndSplineSet
EndChar

StartChar: G
Encoding: 71 71 42
Width: 1245
VWidth: 833
Flags: W
LayerCount: 2
Fore
SplineSet
1203 812 m 1,0,-1
 1201 798 l 1,1,-1
 765 0 l 1,2,-1
 55 0 l 1,3,-1
 55 812 l 1,4,-1
 208 812 l 1,5,-1
 208 188 l 1,6,-1
 675 188 l 1,7,-1
 908 639 l 1,8,-1
 908 644 l 1,9,-1
 518 644 l 1,10,-1
 518 595 l 1,11,-1
 363 595 l 1,12,-1
 363 812 l 1,13,-1
 1203 812 l 1,0,-1
EndSplineSet
EndChar

StartChar: H
Encoding: 72 72 43
Width: 1308
VWidth: 833
Flags: W
LayerCount: 2
Fore
SplineSet
1282 812 m 1,0,-1
 1282 626 l 1,1,-1
 21 626 l 1,2,-1
 21 812 l 1,3,-1
 1282 812 l 1,0,-1
238 501 m 1,4,-1
 1066 501 l 1,5,-1
 1066 314 l 1,6,-1
 238 314 l 1,7,-1
 238 501 l 1,4,-1
21 188 m 1,8,-1
 1282 188 l 1,9,-1
 1282 0 l 1,10,-1
 21 0 l 1,11,-1
 21 188 l 1,8,-1
EndSplineSet
EndChar

StartChar: I
Encoding: 73 73 44
Width: 524
VWidth: 833
Flags: W
LayerCount: 2
Fore
SplineSet
477 812 m 1,0,-1
 477 0 l 1,1,-1
 322 0 l 1,2,-1
 322 608 l 1,3,-1
 158 445 l 1,4,-1
 39 565 l 2,5,6
 37 572 37 572 46 578 c 2,7,-1
 276 812 l 1,8,-1
 477 812 l 1,0,-1
EndSplineSet
EndChar

StartChar: J
Encoding: 74 74 45
Width: 1217
VWidth: 833
Flags: W
LayerCount: 2
Fore
SplineSet
1188 809 m 1,0,-1
 800 0 l 1,1,-1
 43 0 l 1,2,-1
 43 182 l 1,3,-1
 687 182 l 1,4,-1
 800 436 l 1,5,6
 713 385 713 385 640 366.5 c 128,-1,7
 567 348 567 348 472 334.5 c 0,8,9
 377 322 377 322 163 318 c 1,10,-1
 47 318 l 1,11,-1
 47 500 l 1,12,-1
 167 500 l 1,13,14
 377 513 377 513 437 521.5 c 128,-1,15
 497 530 497 530 600 561 c 1,16,17
 727 608 727 608 807 650 c 128,-1,18
 887 692 887 692 987 810 c 1,19,-1
 1188 809 l 1,0,-1
EndSplineSet
EndChar

StartChar: K
Encoding: 75 75 46
Width: 1267
VWidth: 833
Flags: W
LayerCount: 2
Fore
SplineSet
1198 809 m 1,0,1
 1214 802 1214 802 1220 786 c 1,2,-1
 1220 28 l 1,3,4
 1214 8 1214 8 1193 0 c 1,5,-1
 52 0 l 1,6,-1
 52 187 l 1,7,-1
 1036 187 l 1,8,-1
 1036 623 l 1,9,-1
 52 623 l 1,10,-1
 52 809 l 1,11,-1
 1198 809 l 1,0,1
EndSplineSet
EndChar

StartChar: L
Encoding: 76 76 47
Width: 839
VWidth: 833
Flags: W
LayerCount: 2
Fore
SplineSet
787 813 m 1,0,-1
 787 -1 l 1,1,-1
 570 -1 l 1,2,-1
 45 343 l 1,3,-1
 142 496 l 1,4,-1
 622 185 l 1,5,-1
 622 813 l 1,6,-1
 787 813 l 1,0,-1
EndSplineSet
EndChar

StartChar: M
Encoding: 77 77 48
Width: 833
VWidth: 833
Flags: W
LayerCount: 2
Fore
SplineSet
745 810 m 1,0,-1
 745 592 l 1,1,-1
 572 591 l 1,2,-1
 341 187 l 1,3,-1
 801 187 l 1,4,-1
 688 0 l 1,5,-1
 26 0 l 1,6,-1
 472 810 l 1,7,-1
 745 810 l 1,0,-1
EndSplineSet
EndChar

StartChar: N
Encoding: 78 78 49
Width: 1318
VWidth: 833
Flags: W
LayerCount: 2
Fore
SplineSet
265 157 m 1,0,-1
 285 158 l 1,1,-1
 626 810 l 1,2,-1
 840 810 l 1,3,-1
 1293 0 l 1,4,-1
 1083 0 l 1,5,-1
 735 640 l 1,6,-1
 397 0 l 1,7,-1
 188 0 l 1,8,-1
 176 1 l 1,9,-1
 155 31 l 1,10,-1
 136 63 l 1,11,-1
 110 108 l 1,12,-1
 88 160 l 1,13,-1
 66 214 l 1,14,-1
 53 277 l 1,15,-1
 40 348 l 1,16,-1
 35 421 l 1,17,-1
 40 494 l 1,18,-1
 47 561 l 1,19,-1
 60 626 l 1,20,-1
 74 675 l 1,21,-1
 97 720 l 1,22,-1
 118 759 l 1,23,-1
 144 792 l 1,24,-1
 159 808 l 1,25,-1
 313 808 l 1,26,-1
 287 782 l 1,27,-1
 265 751 l 1,28,-1
 243 712 l 1,29,-1
 227 673 l 1,30,-1
 212 626 l 1,31,-1
 198 563 l 1,32,-1
 188 494 l 1,33,-1
 183 425 l 1,34,-1
 188 356 l 1,35,-1
 201 282 l 1,36,-1
 218 227 l 1,37,-1
 235 192 l 1,38,-1
 265 157 l 1,0,-1
EndSplineSet
EndChar

StartChar: O
Encoding: 79 79 50
Width: 1156
VWidth: 833
Flags: W
LayerCount: 2
Fore
SplineSet
863 810 m 1,0,-1
 1139 166 l 1,1,-1
 1029 0 l 1,2,-1
 140 0 l 1,3,-1
 26 168 l 1,4,-1
 292 810 l 1,5,-1
 863 810 l 1,0,-1
219 178 m 1,6,-1
 945 178 l 1,7,-1
 757 623 l 1,8,-1
 406 623 l 1,9,-1
 219 178 l 1,6,-1
EndSplineSet
EndChar

StartChar: P
Encoding: 80 80 51
Width: 851
VWidth: 833
Flags: W
LayerCount: 2
Fore
SplineSet
806 806 m 1,0,-1
 806 0 l 1,1,-1
 192 0 l 1,2,3
 39 112 39 112 29 362 c 1,4,5
 50 630 50 630 228 805 c 1,6,-1
 494 805 l 1,7,-1
 494 610 l 1,8,-1
 309 610 l 1,9,-1
 309 653 l 1,10,-1
 279 653 l 1,11,12
 216 580 216 580 216 362 c 1,13,14
 212 200 212 200 262 185 c 1,15,-1
 619 185 l 1,16,-1
 619 807 l 1,17,-1
 806 806 l 1,0,-1
EndSplineSet
EndChar

StartChar: Q
Encoding: 81 81 52
Width: 1110
VWidth: 833
Flags: W
LayerCount: 2
Fore
SplineSet
1051 810 m 1,0,-1
 1081 780 l 1,1,-1
 1081 488 l 1,2,-1
 894 488 l 1,3,-1
 894 642 l 1,4,-1
 210 642 l 1,5,-1
 210 187 l 1,6,-1
 784 187 l 1,7,-1
 537 0 l 1,8,-1
 93 0 l 1,9,-1
 32 61 l 1,10,-1
 32 778 l 1,11,-1
 65 810 l 1,12,-1
 1051 810 l 1,0,-1
EndSplineSet
EndChar

StartChar: R
Encoding: 82 82 53
Width: 1085
VWidth: 833
Flags: W
LayerCount: 2
Fore
SplineSet
1062 810 m 1,0,-1
 382 0 l 1,1,-1
 147 0 l 1,2,-1
 647 600 l 1,3,-1
 647 614 l 1,4,-1
 47 614 l 1,5,-1
 193 810 l 1,6,-1
 1062 810 l 1,0,-1
EndSplineSet
EndChar

StartChar: S
Encoding: 83 83 54
Width: 1232
VWidth: 833
Flags: W
LayerCount: 2
Fore
SplineSet
402 810 m 1,0,-1
 1018 192 l 1,1,-1
 1018 810 l 1,2,-1
 1191 810 l 1,3,-1
 1191 0 l 1,4,-1
 953 0 l 1,5,-1
 142 810 l 1,6,-1
 402 810 l 1,0,-1
75 385 m 1,7,-1
 705 157 l 1,8,-1
 649 0 l 1,9,-1
 17 224 l 1,10,-1
 75 385 l 1,7,-1
EndSplineSet
EndChar

StartChar: T
Encoding: 84 84 55
Width: 1339
VWidth: 833
Flags: W
LayerCount: 2
Fore
SplineSet
740 810 m 1,0,-1
 740 154 l 1,1,-1
 793 154 l 1,2,-1
 1069 434 l 1,3,-1
 1312 434 l 1,4,-1
 875 0 l 1,5,-1
 451 0 l 1,6,-1
 10 437 l 1,7,-1
 254 437 l 1,8,-1
 532 157 l 1,9,-1
 583 157 l 1,10,-1
 583 810 l 1,11,-1
 740 810 l 1,0,-1
EndSplineSet
EndChar

StartChar: U
Encoding: 85 85 56
Width: 1184
VWidth: 833
Flags: W
LayerCount: 2
Fore
SplineSet
1113 810 m 1,0,-1
 1153 770 l 1,1,-1
 1153 42 l 1,2,-1
 1111 0 l 1,3,-1
 32 0 l 1,4,-1
 32 810 l 1,5,-1
 219 810 l 1,6,-1
 219 175 l 1,7,-1
 967 175 l 1,8,-1
 967 623 l 1,9,-1
 726 623 l 1,10,-1
 612 469 l 1,11,-1
 371 469 l 1,12,-1
 626 810 l 1,13,-1
 1113 810 l 1,0,-1
EndSplineSet
EndChar

StartChar: V
Encoding: 86 86 57
Width: 1050
VWidth: 833
Flags: W
LayerCount: 2
Fore
SplineSet
294 810 m 1,0,-1
 509 592 l 1,1,-1
 544 592 l 1,2,-1
 758 810 l 1,3,-1
 1022 810 l 1,4,-1
 604 390 l 1,5,-1
 604 0 l 1,6,-1
 448 0 l 1,7,-1
 448 390 l 1,8,-1
 30 808 l 1,9,-1
 294 810 l 1,0,-1
EndSplineSet
EndChar

StartChar: W
Encoding: 87 87 58
Width: 1224
VWidth: 833
Flags: W
LayerCount: 2
Fore
SplineSet
1189 798 m 1,0,-1
 1196 785 l 1,1,-1
 1201 755 l 1,2,-1
 1201 50 l 1,3,-1
 1197 24 l 1,4,-1
 1190 10 l 1,5,-1
 1173 5 l 1,6,-1
 1142 0 l 1,7,-1
 79 0 l 1,8,-1
 46 3 l 1,9,-1
 29 12 l 1,10,-1
 22 29 l 1,11,-1
 18 54 l 1,12,-1
 18 755 l 1,13,-1
 22 780 l 1,14,-1
 28 798 l 1,15,-1
 45 807 l 1,16,-1
 77 808 l 1,17,-1
 1142 808 l 1,18,-1
 1175 804 l 1,19,-1
 1189 798 l 1,0,-1
1040 196 m 1,20,-1
 1040 623 l 1,21,-1
 201 623 l 1,22,-1
 201 196 l 1,23,-1
 1040 196 l 1,20,-1
EndSplineSet
EndChar

StartChar: X
Encoding: 88 88 59
Width: 1007
VWidth: 833
Flags: W
LayerCount: 2
Fore
SplineSet
978 82 m 1,0,-1
 802 0 l 1,1,-1
 199 0 l 1,2,-1
 25 82 l 1,3,-1
 428 808 l 1,4,-1
 606 808 l 1,5,-1
 978 82 l 1,0,-1
749 160 m 1,6,-1
 518 630 l 1,7,-1
 262 160 l 1,8,-1
 749 160 l 1,6,-1
EndSplineSet
EndChar

StartChar: Y
Encoding: 89 89 60
Width: 1190
VWidth: 833
Flags: W
LayerCount: 2
Fore
SplineSet
1165 812 m 1,0,-1
 717 0 l 1,1,-1
 437 0 l 1,2,-1
 25 742 l 1,3,-1
 25 780 l 1,4,-1
 48 806 l 1,5,-1
 75 812 l 1,6,-1
 451 812 l 1,7,-1
 640 475 l 1,8,-1
 445 475 l 1,9,-1
 323 720 l 1,10,-1
 232 720 l 1,11,-1
 558 130 l 1,12,-1
 600 130 l 1,13,-1
 982 812 l 1,14,-1
 1165 812 l 1,0,-1
EndSplineSet
EndChar

StartChar: Z
Encoding: 90 90 61
Width: 1077
VWidth: 833
Flags: W
LayerCount: 2
Fore
SplineSet
1054 807 m 1,0,-1
 1054 -1 l 1,1,-1
 72 -1 l 1,2,-1
 30 41 l 1,3,-1
 30 264 l 1,4,-1
 246 264 l 1,5,-1
 246 188 l 1,6,-1
 868 188 l 1,7,-1
 868 467 l 1,8,-1
 481 467 l 1,9,-1
 358 341 l 1,10,-1
 76 341 l 1,11,-1
 386 651 l 1,12,-1
 868 651 l 1,13,-1
 868 807 l 1,14,-1
 1054 807 l 1,0,-1
EndSplineSet
EndChar

StartChar: bracketleft
Encoding: 91 91 62
Width: 850
VWidth: 833
Flags: W
LayerCount: 2
Fore
SplineSet
266 266 m 1,0,-1
 270 257 l 1,1,-1
 275 257 l 1,2,-1
 275 266 l 1,3,-1
 266 266 l 1,0,-1
360 401 m 1,4,-1
 352 388 l 1,5,-1
 338 392 l 1,6,-1
 342 392 l 1,7,-1
 360 401 l 1,4,-1
126 40 m 1,8,-1
 122 32 l 1,9,-1
 168 48 l 1,10,-1
 362 258 l 1,11,-1
 369 262 l 1,12,-1
 275 243 l 1,13,-1
 126 40 l 1,8,-1
288 365 m 1,14,-1
 374 365 l 1,15,-1
 392 352 l 1,16,-1
 388 338 l 1,17,-1
 352 320 l 1,18,19
 334 333 334 333 262 329 c 1,20,-1
 288 365 l 1,14,-1
423 382 m 1,21,-1
 428 374 l 1,22,-1
 442 374 l 1,23,-1
 432 369 l 1,24,25
 436 356 436 356 446 356 c 1,26,-1
 442 342 l 1,27,-1
 423 360 l 1,28,-1
 428 365 l 1,29,-1
 423 382 l 1,21,-1
423 307 m 1,30,-1
 423 292 l 1,31,-1
 437 292 l 1,32,-1
 446 311 l 1,33,-1
 459 307 l 1,34,-1
 459 315 l 1,35,-1
 446 320 l 1,36,-1
 423 307 l 1,30,-1
442 292 m 1,37,-1
 446 284 l 1,38,-1
 464 288 l 1,39,-1
 464 292 l 1,40,-1
 442 292 l 1,37,-1
468 382 m 1,41,-1
 459 378 l 1,42,-1
 468 382 l 1,41,-1
468 352 m 1,43,-1
 468 347 l 1,44,-1
 473 347 l 1,45,-1
 473 352 l 1,46,-1
 468 352 l 1,43,-1
468 292 m 1,47,-1
 473 284 l 1,48,-1
 478 284 l 1,49,-1
 478 292 l 1,50,-1
 468 292 l 1,47,-1
468 307 m 1,51,-1
 468 298 l 1,52,-1
 478 298 l 1,53,-1
 478 307 l 1,54,-1
 468 307 l 1,51,-1
482 288 m 1,55,-1
 482 284 l 1,56,-1
 487 284 l 1,57,-1
 487 288 l 1,58,-1
 482 288 l 1,55,-1
482 329 m 1,59,-1
 482 324 l 1,60,-1
 491 324 l 1,61,-1
 491 329 l 1,62,-1
 482 329 l 1,59,-1
487 342 m 1,63,-1
 487 338 l 1,64,-1
 491 338 l 1,65,-1
 491 342 l 1,66,-1
 487 342 l 1,63,-1
491 338 m 1,67,-1
 491 333 l 1,68,-1
 496 333 l 1,69,-1
 496 338 l 1,70,-1
 491 338 l 1,67,-1
496 347 m 1,71,-1
 496 342 l 1,72,-1
 504 342 l 1,73,-1
 504 347 l 1,74,-1
 496 347 l 1,71,-1
482 442 m 2,75,76
 478 437 478 437 496 423 c 1,77,-1
 518 428 l 1,78,-1
 513 451 l 1,79,-1
 491 446 l 1,80,-1
 491 451 l 1,81,-1
 482 442 l 2,75,76
518 459 m 1,82,-1
 518 451 l 1,83,-1
 527 451 l 1,84,-1
 527 459 l 1,85,-1
 518 459 l 1,82,-1
527 442 m 1,86,-1
 527 437 l 1,87,-1
 532 437 l 1,88,-1
 532 442 l 1,89,-1
 527 442 l 1,86,-1
442 775 m 1,90,91
 451 784 451 784 513 757 c 1,92,-1
 545 432 l 1,93,-1
 518 423 l 1,94,-1
 513 423 l 1,95,-1
 518 405 l 1,96,-1
 487 414 l 1,97,-1
 491 423 l 1,98,-1
 478 423 l 1,99,-1
 459 401 l 1,100,-1
 410 401 l 1,101,-1
 437 428 l 1,102,-1
 459 428 l 1,103,-1
 455 437 l 1,104,-1
 365 437 l 1,105,-1
 342 487 l 1,106,107
 337 509 337 509 356 549 c 2,108,-1
 442 775 l 1,90,91
491 324 m 1,109,-1
 500 311 l 1,110,111
 532 311 532 311 532 329 c 1,112,-1
 549 324 l 1,113,-1
 549 333 l 1,114,-1
 522 338 l 1,115,-1
 500 338 l 1,116,-1
 491 324 l 1,109,-1
549 324 m 1,117,-1
 549 320 l 1,118,-1
 554 320 l 1,119,-1
 554 324 l 1,120,-1
 549 324 l 1,117,-1
558 329 m 1,121,-1
 558 320 l 1,122,-1
 563 320 l 1,123,-1
 563 329 l 1,124,-1
 558 329 l 1,121,-1
568 374 m 1,125,-1
 572 365 l 1,126,-1
 568 374 l 1,125,-1
577 248 m 1,127,-1
 581 238 l 1,128,-1
 590 243 l 1,129,-1
 590 248 l 1,130,-1
 577 248 l 1,127,-1
626 234 m 1,131,-1
 612 230 l 1,132,-1
 626 234 l 1,131,-1
640 230 m 1,133,-1
 631 230 l 1,134,-1
 640 230 l 1,133,-1
208 270 m 1,135,-1
 212 284 l 1,136,137
 288 288 288 288 292 270 c 1,138,139
 436 338 436 338 451 338 c 1,140,-1
 451 324 l 1,141,142
 474 333 474 333 478 320 c 1,143,-1
 487 333 l 1,144,-1
 459 342 l 1,145,-1
 455 356 l 1,146,-1
 459 356 l 1,147,-1
 446 378 l 1,148,149
 482 369 482 369 478 356 c 1,150,-1
 482 374 l 1,151,-1
 500 365 l 1,152,153
 508 374 508 374 522 365 c 1,154,-1
 518 347 l 1,155,-1
 577 352 l 1,156,-1
 572 347 l 1,157,-1
 581 329 l 1,158,-1
 572 324 l 1,159,-1
 612 324 l 1,160,-1
 612 333 l 1,161,-1
 618 320 l 1,162,-1
 631 324 l 1,163,-1
 631 320 l 1,164,-1
 644 333 l 1,165,-1
 640 292 l 1,166,-1
 626 307 l 1,167,168
 622 293 622 293 635 288 c 1,169,-1
 631 279 l 1,170,-1
 626 284 l 1,171,-1
 608 279 l 1,172,-1
 595 298 l 1,173,-1
 586 298 l 1,174,-1
 612 270 l 1,175,-1
 612 262 l 1,176,-1
 658 270 l 1,177,-1
 667 252 l 1,178,-1
 667 243 l 1,179,-1
 653 262 l 1,180,-1
 590 252 l 1,181,-1
 671 234 l 1,182,183
 622 252 622 252 586 234 c 1,184,-1
 601 208 l 1,185,-1
 750 19 l 1,186,-1
 758 9 l 1,187,-1
 779 18 l 1,188,-1
 779 32 l 1,189,-1
 676 225 l 1,190,-1
 653 230 l 1,191,192
 685 234 685 234 693 202 c 1,193,-1
 788 22 l 1,194,-1
 757 4 l 1,195,-1
 581 230 l 1,196,-1
 563 234 l 1,197,-1
 541 257 l 1,198,-1
 558 248 l 1,199,-1
 563 252 l 1,200,-1
 558 262 l 1,201,-1
 577 262 l 1,202,203
 586 266 586 266 558 292 c 1,204,-1
 549 284 l 1,205,-1
 545 288 l 1,206,-1
 527 284 l 1,207,-1
 532 275 l 1,208,-1
 442 279 l 1,209,-1
 437 275 l 1,210,211
 400 293 400 293 382 275 c 2,212,-1
 167 45 l 1,213,-1
 112 27 l 1,214,-1
 275 248 l 1,215,-1
 262 266 l 1,216,-1
 216 262 l 1,217,-1
 208 270 l 1,135,-1
509 754 m 1,218,219
 454 780 454 780 443 772 c 1,220,-1
 358 549 l 2,221,222
 340 509 340 509 345 488 c 1,223,-1
 366 442 l 1,224,-1
 370 439 l 1,225,-1
 473 440 l 1,226,-1
 494 461 l 1,227,-1
 498 451 l 1,228,-1
 512 456 l 1,229,-1
 515 463 l 1,230,-1
 530 467 l 1,231,-1
 534 452 l 1,232,-1
 538 435 l 1,233,-1
 542 437 l 1,234,-1
 509 754 l 1,218,219
349 512 m 1,235,-1
 446 770 l 1,236,-1
 451 770 l 1,237,-1
 352 512 l 1,238,-1
 349 512 l 1,235,-1
525 585 m 1,239,-1
 512 583 l 1,240,-1
 504 679 l 1,241,-1
 515 678 l 1,242,-1
 525 585 l 1,239,-1
455 648 m 1,243,-1
 505 642 l 1,244,-1
 505 640 l 1,245,-1
 455 648 l 1,243,-1
443 591 m 1,246,-1
 509 586 l 1,247,-1
 509 583 l 1,248,-1
 443 591 l 1,246,-1
403 444 m 1,249,-1
 473 747 l 1,250,-1
 476 744 l 1,251,-1
 406 445 l 1,252,-1
 403 444 l 1,249,-1
304 203 m 1,253,-1
 240 190 l 1,254,-1
 238 185 l 1,255,-1
 308 201 l 1,256,-1
 308 204 l 1,257,-1
 304 203 l 1,253,-1
190 126 m 1,258,-1
 254 143 l 1,259,-1
 251 140 l 1,260,-1
 188 122 l 1,261,-1
 190 126 l 1,258,-1
726 58 m 1,262,-1
 737 63 l 1,263,-1
 747 44 l 1,264,-1
 739 39 l 1,265,-1
 732 49 l 1,266,-1
 747 56 l 1,267,-1
 746 58 l 1,268,-1
 730 51 l 1,269,-1
 726 58 l 1,262,-1
726 125 m 1,270,-1
 684 108 l 1,271,-1
 688 104 l 1,272,-1
 726 125 l 1,270,-1
693 106 m 1,273,-1
 705 87 l 1,274,-1
 708 89 l 1,275,-1
 696 108 l 1,276,-1
 693 106 l 1,273,-1
232 182 m 1,277,-1
 196 132 l 1,278,-1
 234 142 l 1,279,-1
 275 192 l 1,280,-1
 232 182 l 1,277,-1
235 175 m 1,281,-1
 227 164 l 1,282,-1
 271 172 l 1,283,-1
 279 182 l 1,284,-1
 235 175 l 1,281,-1
244 171 m 1,285,-1
 234 158 l 1,286,-1
 257 162 l 1,287,-1
 267 172 l 1,288,-1
 244 171 l 1,285,-1
196 122 m 1,289,-1
 173 88 l 1,290,-1
 160 82 l 1,291,-1
 186 118 l 1,292,-1
 196 122 l 1,289,-1
282 242 m 1,293,-1
 262 217 l 1,294,-1
 268 220 l 1,295,-1
 283 239 l 1,296,-1
 298 239 l 1,297,-1
 302 245 l 1,298,-1
 282 242 l 1,293,-1
133 42 m 1,299,-1
 166 54 l 1,300,-1
 183 73 l 1,301,-1
 148 66 l 1,302,-1
 133 42 l 1,299,-1
746 32 m 1,303,-1
 769 43 l 1,304,-1
 777 28 l 1,305,-1
 778 22 l 1,306,-1
 760 14 l 1,307,-1
 746 32 l 1,303,-1
673 199 m 1,308,-1
 713 125 l 1,309,-1
 723 128 l 1,310,-1
 716 141 l 1,311,-1
 712 139 l 1,312,-1
 708 148 l 1,313,-1
 712 150 l 1,314,-1
 705 166 l 1,315,-1
 699 164 l 1,316,-1
 694 173 l 1,317,-1
 699 176 l 1,318,-1
 683 203 l 1,319,-1
 673 199 l 1,308,-1
646 205 m 1,320,-1
 650 196 l 1,321,-1
 677 205 l 1,322,-1
 675 212 l 1,323,-1
 668 210 l 1,324,-1
 672 200 l 1,325,-1
 666 198 l 1,326,-1
 658 209 l 1,327,-1
 646 205 l 1,320,-1
642 159 m 1,328,-1
 684 177 l 1,329,-1
 687 173 l 1,330,-1
 645 157 l 1,331,-1
 642 159 l 1,328,-1
648 152 m 1,332,-1
 688 168 l 1,333,-1
 691 163 l 1,334,-1
 652 148 l 1,335,-1
 648 152 l 1,332,-1
447 752 m 1,336,-1
 457 749 l 1,337,-1
 450 735 l 1,338,-1
 442 738 l 1,339,-1
 447 752 l 1,336,-1
439 732 m 1,340,-1
 448 728 l 1,341,-1
 438 702 l 1,342,-1
 429 705 l 1,343,-1
 439 732 l 1,340,-1
427 699 m 1,344,-1
 446 692 l 1,345,-1
 445 688 l 1,346,-1
 427 696 l 1,347,-1
 427 699 l 1,344,-1
424 690 m 1,348,-1
 445 682 l 1,349,-1
 442 678 l 1,350,-1
 421 687 l 1,351,-1
 424 690 l 1,348,-1
418 682 m 1,352,-1
 441 673 l 1,353,-1
 439 668 l 1,354,-1
 419 678 l 1,355,-1
 418 682 l 1,352,-1
357 488 m 1,356,-1
 408 482 l 1,357,-1
 408 479 l 1,358,-1
 350 486 l 1,359,-1
 351 488 l 1,360,-1
 357 488 l 1,356,-1
424 508 m 1,361,-1
 436 506 l 1,362,-1
 430 445 l 1,363,-1
 412 443 l 1,364,-1
 424 508 l 1,361,-1
642 340 m 1,365,-1
 643 352 l 1,366,-1
 642 363 l 1,367,-1
 632 370 l 1,368,-1
 608 371 l 1,369,-1
 580 371 l 1,370,-1
 592 372 l 1,371,-1
 619 373 l 1,372,-1
 636 372 l 1,373,-1
 647 368 l 1,374,-1
 649 354 l 1,375,-1
 642 340 l 1,365,-1
544 426 m 1,376,-1
 554 408 l 1,377,-1
 549 404 l 1,378,-1
 557 389 l 1,379,-1
 562 386 l 1,380,-1
 570 378 l 1,381,-1
 561 382 l 1,382,-1
 557 383 l 1,383,-1
 545 402 l 1,384,-1
 548 408 l 1,385,-1
 544 426 l 1,376,-1
EndSplineSet
EndChar

StartChar: bracketright
Encoding: 93 93 64
Width: 776
VWidth: 833
Flags: W
LayerCount: 2
Fore
SplineSet
31 401 m 1,0,-1
 35 393 l 1,1,-1
 31 401 l 1,0,-1
35 424 m 1,2,-1
 38 417 l 1,3,-1
 35 424 l 1,2,-1
47 308 m 1,4,-1
 50 301 l 1,5,-1
 47 308 l 1,4,-1
50 286 m 1,6,-1
 54 278 l 1,7,-1
 50 286 l 1,6,-1
54 262 m 1,8,-1
 58 255 l 1,9,-1
 54 262 l 1,8,-1
54 537 m 1,10,-1
 58 528 l 1,11,-1
 54 537 l 1,10,-1
58 239 m 1,12,-1
 62 232 l 1,13,-1
 58 239 l 1,12,-1
58 559 m 1,14,-1
 62 552 l 1,15,-1
 58 559 l 1,14,-1
62 582 m 1,16,-1
 66 575 l 1,17,-1
 62 582 l 1,16,-1
66 606 m 1,18,-1
 69 598 l 1,19,-1
 66 606 l 1,18,-1
69 629 m 1,20,-1
 73 621 l 1,21,-1
 69 629 l 1,20,-1
73 652 m 1,22,-1
 78 644 l 1,23,-1
 73 652 l 1,22,-1
78 128 m 1,24,-1
 81 120 l 1,25,-1
 78 128 l 1,24,-1
78 675 m 1,26,-1
 81 668 l 1,27,-1
 78 675 l 1,26,-1
81 104 m 1,28,-1
 85 97 l 1,29,-1
 81 104 l 1,28,-1
81 698 m 1,30,-1
 85 691 l 1,31,-1
 81 698 l 1,30,-1
85 81 m 1,32,-1
 88 73 l 1,33,-1
 85 81 l 1,32,-1
97 729 m 1,34,-1
 88 725 l 1,35,-1
 97 729 l 1,34,-1
139 718 m 1,36,-1
 131 713 l 1,37,-1
 139 718 l 1,36,-1
170 390 m 1,38,-1
 170 386 l 1,39,-1
 173 386 l 1,40,-1
 173 390 l 1,41,-1
 170 390 l 1,38,-1
97 698 m 1,42,-1
 173 467 l 2,43,44
 181 452 181 452 158 409 c 1,45,-1
 97 405 l 1,46,-1
 47 409 l 1,47,-1
 97 698 l 1,42,-1
178 405 m 1,48,-1
 170 401 l 1,49,-1
 178 405 l 1,48,-1
189 339 m 1,50,-1
 182 336 l 1,51,-1
 189 339 l 1,50,-1
182 440 m 1,52,-1
 182 432 l 1,53,-1
 189 436 l 1,54,-1
 189 440 l 1,55,-1
 182 440 l 1,52,-1
173 428 m 1,56,-1
 185 452 l 1,57,-1
 192 443 l 1,58,-1
 182 412 l 1,59,-1
 178 417 l 1,60,-1
 170 412 l 1,61,-1
 182 428 l 1,62,-1
 182 432 l 1,63,-1
 173 428 l 1,56,-1
192 386 m 1,64,-1
 192 382 l 1,65,-1
 201 382 l 1,66,-1
 201 386 l 1,67,-1
 192 386 l 1,64,-1
197 436 m 1,68,-1
 201 424 l 1,69,-1
 197 436 l 1,68,-1
201 463 m 1,70,-1
 201 459 l 1,71,-1
 208 459 l 1,72,-1
 208 463 l 1,73,-1
 201 463 l 1,70,-1
212 698 m 1,74,-1
 204 694 l 1,75,-1
 212 698 l 1,74,-1
208 336 m 1,76,-1
 208 332 l 1,77,-1
 216 332 l 1,78,-1
 216 336 l 1,79,-1
 208 336 l 1,76,-1
212 378 m 1,80,-1
 212 374 l 1,81,-1
 216 374 l 1,82,-1
 216 378 l 1,83,-1
 212 378 l 1,80,-1
220 328 m 1,84,-1
 220 320 l 1,85,-1
 224 320 l 1,86,-1
 224 328 l 1,87,-1
 220 328 l 1,84,-1
224 317 m 1,88,-1
 224 312 l 1,89,-1
 228 312 l 1,90,-1
 228 317 l 1,91,-1
 224 317 l 1,88,-1
224 448 m 1,92,-1
 224 440 l 1,93,-1
 232 440 l 1,94,-1
 232 452 l 1,95,-1
 224 448 l 1,92,-1
228 474 m 1,96,-1
 232 467 l 1,97,-1
 228 474 l 1,96,-1
239 528 m 1,98,-1
 239 525 l 1,99,-1
 243 525 l 1,100,-1
 243 528 l 1,101,-1
 239 528 l 1,98,-1
266 116 m 1,102,-1
 266 112 l 1,103,-1
 270 112 l 1,104,-1
 270 116 l 1,105,-1
 266 116 l 1,102,-1
232 308 m 1,106,-1
 286 147 l 1,107,-1
 286 128 l 1,108,-1
 293 131 l 1,109,-1
 239 308 l 1,110,-1
 232 308 l 1,106,-1
212 455 m 1,111,-1
 212 448 l 1,112,-1
 220 448 l 1,113,-1
 224 463 l 1,114,-1
 235 452 l 1,115,-1
 286 637 l 1,116,-1
 293 648 l 1,117,-1
 289 668 l 1,118,-1
 270 598 l 1,119,-1
 262 598 l 1,120,-1
 266 587 l 1,121,-1
 258 582 l 1,122,-1
 262 575 l 1,123,-1
 255 571 l 1,124,-1
 258 563 l 1,125,-1
 251 559 l 1,126,-1
 255 552 l 1,127,-1
 247 548 l 1,128,-1
 251 540 l 1,129,-1
 243 537 l 1,130,-1
 247 525 l 1,131,-1
 228 494 l 1,132,-1
 228 486 l 1,133,-1
 235 490 l 1,134,-1
 232 482 l 1,135,-1
 228 486 l 1,136,-1
 212 455 l 1,111,-1
108 713 m 1,137,-1
 255 679 l 1,138,-1
 251 687 l 1,139,-1
 297 672 l 1,140,-1
 324 478 l 1,141,142
 332 459 332 459 308 440 c 1,143,-1
 262 424 l 1,144,-1
 255 417 l 1,145,-1
 224 421 l 1,146,-1
 228 432 l 1,147,-1
 220 432 l 1,148,-1
 204 412 l 1,149,-1
 192 412 l 1,150,-1
 192 405 l 1,151,-1
 189 401 l 1,152,-1
 189 417 l 1,153,-1
 208 428 l 1,154,-1
 204 432 l 1,155,-1
 208 443 l 1,156,-1
 197 443 l 1,157,-1
 197 463 l 1,158,159
 155 555 155 555 108 710 c 1,160,-1
 108 713 l 1,137,-1
370 339 m 1,161,-1
 370 336 l 1,162,-1
 382 339 l 1,163,-1
 382 343 l 1,164,-1
 370 339 l 1,161,-1
378 494 m 1,165,-1
 393 490 l 1,166,-1
 378 490 l 1,167,-1
 378 494 l 1,165,-1
382 351 m 1,168,-1
 386 339 l 1,169,170
 398 339 398 339 401 355 c 1,171,172
 408 347 408 347 432 374 c 1,173,-1
 428 393 l 1,174,-1
 417 378 l 1,175,-1
 398 378 l 1,176,-1
 390 355 l 1,177,-1
 382 351 l 1,168,-1
417 482 m 1,178,-1
 436 474 l 1,179,-1
 417 474 l 1,180,-1
 417 482 l 1,178,-1
443 382 m 1,181,-1
 443 378 l 1,182,-1
 459 382 l 1,183,-1
 459 386 l 1,184,-1
 443 382 l 1,181,-1
459 452 m 1,185,186
 440 448 440 448 440 467 c 1,187,-1
 459 452 l 1,185,186
455 374 m 1,188,-1
 455 367 l 1,189,-1
 467 367 l 1,190,-1
 463 374 l 1,191,-1
 455 374 l 1,188,-1
73 398 m 1,192,193
 139 390 139 390 189 398 c 1,194,-1
 192 390 l 1,195,-1
 235 393 l 1,196,-1
 235 390 l 1,197,-1
 247 398 l 1,198,-1
 258 390 l 1,199,200
 255 402 255 402 289 398 c 1,201,-1
 289 386 l 1,202,-1
 305 436 l 1,203,204
 386 486 386 486 401 393 c 1,205,-1
 398 382 l 1,206,-1
 417 386 l 1,207,-1
 412 398 l 1,208,-1
 424 398 l 1,209,210
 432 417 432 417 443 409 c 1,211,-1
 448 409 l 1,212,-1
 443 417 l 1,213,-1
 455 412 l 1,214,-1
 448 409 l 1,215,-1
 443 398 l 1,216,-1
 467 393 l 1,217,-1
 463 374 l 1,218,-1
 474 362 l 1,219,-1
 463 355 l 1,220,-1
 440 320 l 1,221,-1
 398 301 l 1,222,-1
 343 312 l 1,223,-1
 320 332 l 1,224,225
 328 313 328 313 317 308 c 1,226,-1
 320 286 l 1,227,-1
 312 274 l 1,228,-1
 317 258 l 1,229,-1
 308 243 l 1,230,-1
 312 228 l 1,231,-1
 301 173 l 1,232,-1
 305 170 l 1,233,-1
 297 116 l 1,234,-1
 258 104 l 1,235,-1
 258 112 l 1,236,-1
 108 78 l 1,237,-1
 201 359 l 1,238,-1
 192 355 l 1,239,-1
 208 367 l 1,240,-1
 204 374 l 1,241,-1
 197 367 l 1,242,-1
 189 370 l 1,243,244
 197 378 197 378 189 390 c 1,245,-1
 178 382 l 1,246,-1
 189 355 l 1,247,-1
 185 348 l 1,248,-1
 178 348 l 1,249,-1
 182 370 l 1,250,-1
 173 362 l 1,251,252
 177 385 177 385 162 382 c 1,253,-1
 173 351 l 1,254,-1
 170 312 l 1,255,-1
 100 92 l 1,256,-1
 47 382 l 1,257,-1
 58 386 l 1,258,-1
 62 386 l 1,259,-1
 58 393 l 1,260,-1
 73 398 l 1,192,193
474 336 m 1,261,-1
 478 324 l 1,262,-1
 474 336 l 1,261,-1
474 471 m 1,263,-1
 478 463 l 1,264,-1
 474 471 l 1,263,-1
478 301 m 1,265,-1
 482 289 l 1,266,-1
 478 301 l 1,265,-1
478 505 m 1,267,-1
 482 498 l 1,268,-1
 478 505 l 1,267,-1
482 266 m 1,269,-1
 486 255 l 1,270,-1
 482 266 l 1,269,-1
482 540 m 1,271,-1
 486 528 l 1,272,-1
 482 540 l 1,271,-1
486 232 m 1,273,-1
 490 224 l 1,274,-1
 486 232 l 1,273,-1
486 390 m 1,275,-1
 486 386 l 1,276,-1
 490 386 l 1,277,-1
 490 390 l 1,278,-1
 486 390 l 1,275,-1
486 575 m 1,279,-1
 490 563 l 1,280,-1
 486 575 l 1,279,-1
490 197 m 1,281,-1
 494 189 l 1,282,-1
 490 197 l 1,281,-1
490 609 m 1,283,-1
 494 598 l 1,284,-1
 490 609 l 1,283,-1
494 166 m 1,285,-1
 498 154 l 1,286,-1
 494 166 l 1,285,-1
494 641 m 1,287,-1
 498 632 l 1,288,-1
 494 641 l 1,287,-1
498 131 m 1,289,-1
 502 120 l 1,290,-1
 498 131 l 1,289,-1
498 675 m 1,291,-1
 502 668 l 1,292,-1
 498 675 l 1,291,-1
502 97 m 1,293,-1
 505 85 l 1,294,-1
 502 97 l 1,293,-1
502 710 m 1,295,-1
 505 698 l 1,296,-1
 502 710 l 1,295,-1
505 62 m 1,297,-1
 509 50 l 1,298,-1
 505 62 l 1,297,-1
505 741 m 1,299,-1
 509 733 l 1,300,-1
 505 741 l 1,299,-1
509 27 m 1,301,-1
 513 19 l 1,302,-1
 509 27 l 1,301,-1
509 776 m 1,303,-1
 513 768 l 1,304,-1
 509 776 l 1,303,-1
521 783 m 1,305,-1
 513 779 l 1,306,-1
 521 783 l 1,305,-1
537 694 m 1,307,-1
 537 691 l 1,308,-1
 540 691 l 1,309,-1
 540 694 l 1,310,-1
 537 694 l 1,307,-1
540 675 m 1,311,-1
 540 672 l 1,312,-1
 544 672 l 1,313,-1
 544 675 l 1,314,-1
 540 675 l 1,311,-1
544 656 m 1,315,-1
 544 652 l 1,316,-1
 548 652 l 1,317,-1
 548 656 l 1,318,-1
 544 656 l 1,315,-1
490 401 m 1,319,-1
 490 393 l 1,320,-1
 568 398 l 1,321,-1
 568 401 l 1,322,-1
 490 401 l 1,319,-1
575 370 m 1,323,-1
 575 367 l 1,324,-1
 578 367 l 1,325,-1
 578 370 l 1,326,-1
 575 370 l 1,323,-1
578 351 m 1,327,-1
 578 348 l 1,328,-1
 582 348 l 1,329,-1
 582 351 l 1,330,-1
 578 351 l 1,327,-1
582 359 m 1,331,-1
 582 355 l 1,332,-1
 587 355 l 1,333,-1
 587 359 l 1,334,-1
 582 359 l 1,331,-1
587 320 m 1,335,-1
 587 312 l 1,336,-1
 587 320 l 1,335,-1
606 370 m 1,337,-1
 606 367 l 1,338,-1
 609 367 l 1,339,-1
 609 370 l 1,340,-1
 606 370 l 1,337,-1
606 386 m 1,341,-1
 606 382 l 1,342,-1
 609 382 l 1,343,-1
 609 386 l 1,344,-1
 606 386 l 1,341,-1
587 421 m 1,345,-1
 587 398 l 1,346,-1
 598 398 l 1,347,-1
 598 390 l 1,348,-1
 606 393 l 1,349,-1
 594 428 l 1,350,-1
 598 424 l 1,351,-1
 609 448 l 1,352,353
 598 452 598 452 602 467 c 1,354,-1
 598 443 l 1,355,-1
 590 443 l 1,356,357
 599 440 599 440 587 421 c 1,345,-1
606 428 m 1,358,-1
 606 424 l 1,359,-1
 613 424 l 1,360,-1
 613 436 l 1,361,-1
 606 428 l 1,358,-1
609 367 m 1,362,-1
 609 359 l 1,363,-1
 618 362 l 1,364,-1
 618 367 l 1,365,-1
 609 367 l 1,362,-1
602 412 m 1,366,-1
 602 409 l 1,367,-1
 618 417 l 1,368,-1
 618 421 l 1,369,-1
 602 412 l 1,366,-1
618 317 m 1,370,-1
 618 312 l 1,371,-1
 621 312 l 1,372,-1
 621 317 l 1,373,-1
 618 317 l 1,370,-1
618 390 m 1,374,-1
 618 386 l 1,375,-1
 621 386 l 1,376,-1
 621 390 l 1,377,-1
 618 390 l 1,374,-1
613 409 m 1,378,-1
 613 398 l 1,379,-1
 621 401 l 1,380,-1
 621 417 l 1,381,-1
 613 409 l 1,378,-1
618 428 m 1,382,-1
 618 424 l 1,383,-1
 621 424 l 1,384,-1
 621 428 l 1,385,-1
 618 428 l 1,382,-1
621 401 m 1,386,-1
 621 398 l 1,387,-1
 625 398 l 1,388,-1
 625 401 l 1,389,-1
 621 401 l 1,386,-1
625 386 m 1,390,-1
 625 382 l 1,391,-1
 629 382 l 1,392,-1
 629 386 l 1,393,-1
 625 386 l 1,390,-1
621 436 m 1,394,-1
 621 432 l 1,395,-1
 629 432 l 1,396,-1
 629 436 l 1,397,-1
 621 436 l 1,394,-1
629 390 m 1,398,-1
 629 386 l 1,399,-1
 632 386 l 1,400,-1
 632 390 l 1,401,-1
 629 390 l 1,398,-1
648 405 m 1,402,-1
 648 401 l 1,403,-1
 652 401 l 1,404,-1
 652 405 l 1,405,-1
 648 405 l 1,402,-1
660 405 m 1,406,-1
 660 401 l 1,407,-1
 663 401 l 1,408,-1
 663 405 l 1,409,-1
 660 405 l 1,406,-1
482 405 m 1,410,-1
 521 764 l 1,411,-1
 532 741 l 1,412,-1
 528 725 l 1,413,-1
 537 725 l 1,414,-1
 575 540 l 1,415,-1
 571 525 l 1,416,-1
 578 528 l 1,417,-1
 575 502 l 1,418,-1
 582 498 l 1,419,-1
 578 436 l 1,420,-1
 568 401 l 1,421,-1
 582 405 l 1,422,-1
 578 424 l 1,423,-1
 587 432 l 1,424,425
 575 451 575 451 594 459 c 1,426,-1
 587 474 l 1,427,-1
 598 463 l 1,428,-1
 537 752 l 1,429,-1
 521 768 l 1,430,-1
 525 776 l 1,431,-1
 672 710 l 1,432,-1
 672 698 l 1,433,-1
 668 702 l 1,434,-1
 613 478 l 1,435,-1
 613 471 l 1,436,437
 632 471 632 471 621 443 c 1,438,-1
 629 448 l 1,439,-1
 675 691 l 1,440,-1
 698 424 l 1,441,-1
 682 185 l 1,442,-1
 675 158 l 1,443,444
 683 150 683 150 675 97 c 1,445,-1
 632 312 l 1,446,-1
 625 339 l 1,447,-1
 625 293 l 1,448,-1
 672 78 l 1,449,-1
 525 8 l 1,450,-1
 525 12 l 1,451,-1
 521 38 l 1,452,-1
 525 31 l 1,453,454
 540 31 540 31 540 50 c 1,455,-1
 594 308 l 1,456,-1
 606 339 l 1,457,-1
 606 348 l 1,458,-1
 590 343 l 1,459,-1
 598 339 l 1,460,-1
 590 336 l 1,461,-1
 594 324 l 1,462,-1
 582 332 l 1,463,-1
 521 42 l 1,464,-1
 482 370 l 1,465,-1
 482 398 l 1,466,-1
 490 409 l 1,467,-1
 482 405 l 1,410,-1
345 426 m 1,468,-1
 356 419 l 1,469,-1
 372 434 l 1,470,-1
 366 441 l 1,471,-1
 351 445 l 1,472,-1
 345 426 l 1,468,-1
362 414 m 1,473,-1
 365 402 l 1,474,-1
 386 404 l 1,475,-1
 383 417 l 1,476,-1
 376 427 l 1,477,-1
 362 414 l 1,473,-1
364 392 m 1,478,-1
 362 382 l 1,479,-1
 378 369 l 1,480,-1
 383 379 l 1,481,-1
 384 392 l 1,482,-1
 364 392 l 1,478,-1
337 426 m 1,483,-1
 339 442 l 1,484,-1
 330 441 l 1,485,-1
 320 432 l 1,486,-1
 329 421 l 1,487,-1
 337 426 l 1,483,-1
321 384 m 1,488,-1
 312 375 l 1,489,-1
 314 368 l 1,490,-1
 321 361 l 1,491,-1
 327 378 l 1,492,-1
 321 384 l 1,488,-1
342 420 m 1,493,494
 341 418 341 418 336.5 416 c 128,-1,495
 332 414 332 414 328.5 409 c 128,-1,496
 325 404 325 404 325.5 398.5 c 128,-1,497
 326 393 326 393 328 387.5 c 128,-1,498
 330 382 330 382 335.5 380 c 128,-1,499
 341 378 341 378 345 378 c 128,-1,500
 349 378 349 378 353 380 c 128,-1,501
 357 382 357 382 357.5 387 c 128,-1,502
 358 392 358 392 358 397 c 128,-1,503
 358 402 358 402 355.5 408 c 128,-1,504
 353 414 353 414 342 420 c 1,493,494
EndSplineSet
EndChar

StartChar: a
Encoding: 97 97 68
Width: 1405
VWidth: 833
Flags: W
LayerCount: 2
Fore
SplineSet
37 810 m 1,0,-1
 225 810 l 1,1,-1
 225 651 l 1,2,-1
 734 651 l 1,3,-1
 994 810 l 1,4,-1
 1372 810 l 1,5,-1
 734 463 l 1,6,-1
 37 463 l 1,7,-1
 37 810 l 1,0,-1
37 347 m 1,8,-1
 755 347 l 1,9,-1
 1381 0 l 1,10,-1
 1027 0 l 1,11,-1
 720 159 l 1,12,-1
 222 159 l 1,13,-1
 222 0 l 1,14,-1
 37 0 l 1,15,-1
 37 347 l 1,8,-1
EndSplineSet
EndChar

StartChar: b
Encoding: 98 98 69
Width: 1305
VWidth: 833
Flags: W
LayerCount: 2
Fore
SplineSet
258 804 m 1,0,-1
 1049 804 l 1,1,-1
 1282 542 l 1,2,-1
 1282 499 l 1,3,-1
 1077 499 l 1,4,-1
 983 623 l 1,5,-1
 327 623 l 1,6,-1
 229 499 l 1,7,-1
 25 499 l 1,8,-1
 25 542 l 1,9,-1
 258 804 l 1,0,-1
400 502 m 1,10,-1
 928 502 l 1,11,-1
 928 308 l 1,12,-1
 400 308 l 1,13,-1
 400 502 l 1,10,-1
22 286 m 1,14,-1
 228 286 l 1,15,-1
 323 178 l 1,16,-1
 982 178 l 1,17,-1
 1076 284 l 1,18,-1
 1280 284 l 1,19,-1
 1280 247 l 1,20,-1
 1048 -1 l 1,21,-1
 255 -1 l 1,22,-1
 22 247 l 1,23,-1
 22 286 l 1,14,-1
EndSplineSet
EndChar

StartChar: c
Encoding: 99 99 70
Width: 750
VWidth: 833
Flags: W
LayerCount: 2
Fore
SplineSet
32 805 m 1,0,-1
 219 805 l 1,1,-1
 219 248 l 1,2,-1
 32 248 l 1,3,-1
 32 805 l 1,0,-1
279 557 m 1,4,-1
 464 557 l 1,5,-1
 464 248 l 1,6,-1
 279 248 l 1,7,-1
 279 557 l 1,4,-1
524 557 m 1,8,-1
 712 557 l 1,9,-1
 712 0 l 1,10,-1
 524 0 l 1,11,-1
 524 557 l 1,8,-1
EndSplineSet
EndChar

StartChar: d
Encoding: 100 100 71
Width: 1033
VWidth: 833
Flags: W
LayerCount: 2
Fore
SplineSet
1001 804 m 1,0,-1
 998 790 l 1,1,-1
 328 0 l 1,2,-1
 85 0 l 1,3,-1
 358 308 l 1,4,-1
 62 308 l 1,5,-1
 188 493 l 1,6,-1
 519 493 l 1,7,-1
 628 619 l 1,8,-1
 18 620 l 1,9,-1
 138 804 l 1,10,-1
 1001 804 l 1,0,-1
EndSplineSet
EndChar

StartChar: e
Encoding: 101 101 72
Width: 1258
VWidth: 833
Flags: W
LayerCount: 2
Fore
SplineSet
1233 811 m 1,0,-1
 1233 624 l 1,1,-1
 1109 624 l 1,2,-1
 1109 0 l 1,3,-1
 941 0 l 1,4,-1
 941 624 l 1,5,-1
 918 624 l 1,6,-1
 621 0 l 1,7,-1
 405 0 l 1,8,-1
 16 811 l 1,9,-1
 225 811 l 1,10,-1
 515 231 l 1,11,-1
 796 811 l 1,12,-1
 1233 811 l 1,0,-1
EndSplineSet
EndChar

StartChar: f
Encoding: 102 102 73
Width: 1263
VWidth: 833
Flags: W
LayerCount: 2
Fore
SplineSet
710 806 m 1,0,-1
 710 612 l 1,1,2
 867 638 867 638 960 672 c 128,-1,3
 1053 706 1053 706 1230 817 c 1,4,-1
 1230 650 l 1,5,6
 1090 557 1090 557 981 512.5 c 128,-1,7
 872 468 872 468 710 434 c 1,8,-1
 710 186 l 1,9,-1
 1230 186 l 1,10,-1
 1230 0 l 1,11,-1
 33 0 l 1,12,-1
 33 558 l 1,13,-1
 252 558 l 1,14,15
 400 565 400 565 538 588 c 1,16,-1
 539 806 l 1,17,-1
 710 806 l 1,0,-1
218 186 m 1,18,-1
 539 186 l 1,19,-1
 539 395 l 1,20,21
 427 380 427 380 305 377 c 1,22,-1
 217 377 l 1,23,-1
 218 186 l 1,18,-1
EndSplineSet
EndChar

StartChar: g
Encoding: 103 103 74
Width: 1245
VWidth: 833
Flags: W
LayerCount: 2
Fore
SplineSet
1203 812 m 1,0,-1
 1201 798 l 1,1,-1
 765 0 l 1,2,-1
 55 0 l 1,3,-1
 55 812 l 1,4,-1
 208 812 l 1,5,-1
 208 188 l 1,6,-1
 675 188 l 1,7,-1
 908 639 l 1,8,-1
 908 644 l 1,9,-1
 518 644 l 1,10,-1
 518 595 l 1,11,-1
 363 595 l 1,12,-1
 363 812 l 1,13,-1
 1203 812 l 1,0,-1
EndSplineSet
EndChar

StartChar: h
Encoding: 104 104 75
Width: 1308
VWidth: 833
Flags: W
LayerCount: 2
Fore
SplineSet
1282 812 m 1,0,-1
 1282 626 l 1,1,-1
 21 626 l 1,2,-1
 21 812 l 1,3,-1
 1282 812 l 1,0,-1
238 501 m 1,4,-1
 1066 501 l 1,5,-1
 1066 314 l 1,6,-1
 238 314 l 1,7,-1
 238 501 l 1,4,-1
21 188 m 1,8,-1
 1282 188 l 1,9,-1
 1282 0 l 1,10,-1
 21 0 l 1,11,-1
 21 188 l 1,8,-1
EndSplineSet
EndChar

StartChar: i
Encoding: 105 105 76
Width: 524
VWidth: 833
Flags: W
LayerCount: 2
Fore
SplineSet
477 812 m 1,0,-1
 477 0 l 1,1,-1
 322 0 l 1,2,-1
 322 608 l 1,3,-1
 158 445 l 1,4,-1
 39 565 l 2,5,6
 37 572 37 572 46 578 c 2,7,-1
 276 812 l 1,8,-1
 477 812 l 1,0,-1
EndSplineSet
EndChar

StartChar: j
Encoding: 106 106 77
Width: 1217
VWidth: 833
Flags: W
LayerCount: 2
Fore
SplineSet
1188 809 m 1,0,-1
 800 0 l 1,1,-1
 43 0 l 1,2,-1
 43 182 l 1,3,-1
 687 182 l 1,4,-1
 800 436 l 1,5,6
 713 385 713 385 640 366.5 c 128,-1,7
 567 348 567 348 472 334.5 c 0,8,9
 377 322 377 322 163 318 c 1,10,-1
 47 318 l 1,11,-1
 47 500 l 1,12,-1
 167 500 l 1,13,14
 377 513 377 513 437 521.5 c 128,-1,15
 497 530 497 530 600 561 c 1,16,17
 727 608 727 608 807 650 c 128,-1,18
 887 692 887 692 987 810 c 1,19,-1
 1188 809 l 1,0,-1
EndSplineSet
EndChar

StartChar: k
Encoding: 107 107 78
Width: 1267
VWidth: 833
Flags: W
LayerCount: 2
Fore
SplineSet
1198 809 m 1,0,1
 1214 802 1214 802 1220 786 c 1,2,-1
 1220 28 l 1,3,4
 1214 8 1214 8 1193 0 c 1,5,-1
 52 0 l 1,6,-1
 52 187 l 1,7,-1
 1036 187 l 1,8,-1
 1036 623 l 1,9,-1
 52 623 l 1,10,-1
 52 809 l 1,11,-1
 1198 809 l 1,0,1
EndSplineSet
EndChar

StartChar: l
Encoding: 108 108 79
Width: 839
VWidth: 833
Flags: W
LayerCount: 2
Fore
SplineSet
787 813 m 1,0,-1
 787 -1 l 1,1,-1
 570 -1 l 1,2,-1
 45 343 l 1,3,-1
 142 496 l 1,4,-1
 622 185 l 1,5,-1
 622 813 l 1,6,-1
 787 813 l 1,0,-1
EndSplineSet
EndChar

StartChar: m
Encoding: 109 109 80
Width: 833
VWidth: 833
Flags: W
LayerCount: 2
Fore
SplineSet
745 810 m 1,0,-1
 745 592 l 1,1,-1
 572 591 l 1,2,-1
 341 187 l 1,3,-1
 801 187 l 1,4,-1
 688 0 l 1,5,-1
 26 0 l 1,6,-1
 472 810 l 1,7,-1
 745 810 l 1,0,-1
EndSplineSet
EndChar

StartChar: n
Encoding: 110 110 81
Width: 1318
VWidth: 833
Flags: W
LayerCount: 2
Fore
SplineSet
265 157 m 1,0,-1
 285 158 l 1,1,-1
 626 810 l 1,2,-1
 840 810 l 1,3,-1
 1293 0 l 1,4,-1
 1083 0 l 1,5,-1
 735 640 l 1,6,-1
 397 0 l 1,7,-1
 188 0 l 1,8,-1
 176 1 l 1,9,-1
 155 31 l 1,10,-1
 136 63 l 1,11,-1
 110 108 l 1,12,-1
 88 160 l 1,13,-1
 66 214 l 1,14,-1
 53 277 l 1,15,-1
 40 348 l 1,16,-1
 35 421 l 1,17,-1
 40 494 l 1,18,-1
 47 561 l 1,19,-1
 60 626 l 1,20,-1
 74 675 l 1,21,-1
 97 720 l 1,22,-1
 118 759 l 1,23,-1
 144 792 l 1,24,-1
 159 808 l 1,25,-1
 313 808 l 1,26,-1
 287 782 l 1,27,-1
 265 751 l 1,28,-1
 243 712 l 1,29,-1
 227 673 l 1,30,-1
 212 626 l 1,31,-1
 198 563 l 1,32,-1
 188 494 l 1,33,-1
 183 425 l 1,34,-1
 188 356 l 1,35,-1
 201 282 l 1,36,-1
 218 227 l 1,37,-1
 235 192 l 1,38,-1
 265 157 l 1,0,-1
EndSplineSet
EndChar

StartChar: o
Encoding: 111 111 82
Width: 1156
VWidth: 833
Flags: W
LayerCount: 2
Fore
SplineSet
863 810 m 1,0,-1
 1139 166 l 1,1,-1
 1029 0 l 1,2,-1
 140 0 l 1,3,-1
 26 168 l 1,4,-1
 292 810 l 1,5,-1
 863 810 l 1,0,-1
219 178 m 1,6,-1
 945 178 l 1,7,-1
 757 623 l 1,8,-1
 406 623 l 1,9,-1
 219 178 l 1,6,-1
EndSplineSet
EndChar

StartChar: p
Encoding: 112 112 83
Width: 851
VWidth: 833
Flags: W
LayerCount: 2
Fore
SplineSet
806 806 m 1,0,-1
 806 0 l 1,1,-1
 192 0 l 1,2,3
 39 112 39 112 29 362 c 1,4,5
 50 630 50 630 228 805 c 1,6,-1
 494 805 l 1,7,-1
 494 610 l 1,8,-1
 309 610 l 1,9,-1
 309 653 l 1,10,-1
 279 653 l 1,11,12
 216 580 216 580 216 362 c 1,13,14
 212 200 212 200 262 185 c 1,15,-1
 619 185 l 1,16,-1
 619 807 l 1,17,-1
 806 806 l 1,0,-1
EndSplineSet
EndChar

StartChar: q
Encoding: 113 113 84
Width: 1110
VWidth: 833
Flags: W
LayerCount: 2
Fore
SplineSet
1051 810 m 1,0,-1
 1081 780 l 1,1,-1
 1081 488 l 1,2,-1
 894 488 l 1,3,-1
 894 642 l 1,4,-1
 210 642 l 1,5,-1
 210 187 l 1,6,-1
 784 187 l 1,7,-1
 537 0 l 1,8,-1
 93 0 l 1,9,-1
 32 61 l 1,10,-1
 32 778 l 1,11,-1
 65 810 l 1,12,-1
 1051 810 l 1,0,-1
EndSplineSet
EndChar

StartChar: r
Encoding: 114 114 85
Width: 1085
VWidth: 833
Flags: W
LayerCount: 2
Fore
SplineSet
1062 810 m 1,0,-1
 382 0 l 1,1,-1
 147 0 l 1,2,-1
 647 600 l 1,3,-1
 647 614 l 1,4,-1
 47 614 l 1,5,-1
 193 810 l 1,6,-1
 1062 810 l 1,0,-1
EndSplineSet
EndChar

StartChar: s
Encoding: 115 115 86
Width: 1232
VWidth: 833
Flags: W
LayerCount: 2
Fore
SplineSet
402 810 m 1,0,-1
 1018 192 l 1,1,-1
 1018 810 l 1,2,-1
 1191 810 l 1,3,-1
 1191 0 l 1,4,-1
 953 0 l 1,5,-1
 142 810 l 1,6,-1
 402 810 l 1,0,-1
75 385 m 1,7,-1
 705 157 l 1,8,-1
 649 0 l 1,9,-1
 17 224 l 1,10,-1
 75 385 l 1,7,-1
EndSplineSet
EndChar

StartChar: t
Encoding: 116 116 87
Width: 1339
VWidth: 833
Flags: W
LayerCount: 2
Fore
SplineSet
740 810 m 1,0,-1
 740 154 l 1,1,-1
 793 154 l 1,2,-1
 1069 434 l 1,3,-1
 1312 434 l 1,4,-1
 875 0 l 1,5,-1
 451 0 l 1,6,-1
 10 437 l 1,7,-1
 254 437 l 1,8,-1
 532 157 l 1,9,-1
 583 157 l 1,10,-1
 583 810 l 1,11,-1
 740 810 l 1,0,-1
EndSplineSet
EndChar

StartChar: u
Encoding: 117 117 88
Width: 1184
VWidth: 833
Flags: W
LayerCount: 2
Fore
SplineSet
1113 810 m 1,0,-1
 1153 770 l 1,1,-1
 1153 42 l 1,2,-1
 1111 0 l 1,3,-1
 32 0 l 1,4,-1
 32 810 l 1,5,-1
 219 810 l 1,6,-1
 219 175 l 1,7,-1
 967 175 l 1,8,-1
 967 623 l 1,9,-1
 726 623 l 1,10,-1
 612 469 l 1,11,-1
 371 469 l 1,12,-1
 626 810 l 1,13,-1
 1113 810 l 1,0,-1
EndSplineSet
EndChar

StartChar: v
Encoding: 118 118 89
Width: 1050
VWidth: 833
Flags: W
LayerCount: 2
Fore
SplineSet
294 810 m 1,0,-1
 509 592 l 1,1,-1
 544 592 l 1,2,-1
 758 810 l 1,3,-1
 1022 810 l 1,4,-1
 604 390 l 1,5,-1
 604 0 l 1,6,-1
 448 0 l 1,7,-1
 448 390 l 1,8,-1
 30 808 l 1,9,-1
 294 810 l 1,0,-1
EndSplineSet
EndChar

StartChar: w
Encoding: 119 119 90
Width: 1224
VWidth: 833
Flags: W
LayerCount: 2
Fore
SplineSet
1189 798 m 1,0,-1
 1196 785 l 1,1,-1
 1201 755 l 1,2,-1
 1201 50 l 1,3,-1
 1197 24 l 1,4,-1
 1190 10 l 1,5,-1
 1173 5 l 1,6,-1
 1142 0 l 1,7,-1
 79 0 l 1,8,-1
 46 3 l 1,9,-1
 29 12 l 1,10,-1
 22 29 l 1,11,-1
 18 54 l 1,12,-1
 18 755 l 1,13,-1
 22 780 l 1,14,-1
 28 798 l 1,15,-1
 45 807 l 1,16,-1
 77 808 l 1,17,-1
 1142 808 l 1,18,-1
 1175 804 l 1,19,-1
 1189 798 l 1,0,-1
1040 196 m 1,20,-1
 1040 623 l 1,21,-1
 201 623 l 1,22,-1
 201 196 l 1,23,-1
 1040 196 l 1,20,-1
EndSplineSet
EndChar

StartChar: x
Encoding: 120 120 91
Width: 1007
VWidth: 833
Flags: W
LayerCount: 2
Fore
SplineSet
978 82 m 1,0,-1
 802 0 l 1,1,-1
 199 0 l 1,2,-1
 25 82 l 1,3,-1
 428 808 l 1,4,-1
 606 808 l 1,5,-1
 978 82 l 1,0,-1
749 160 m 1,6,-1
 518 630 l 1,7,-1
 262 160 l 1,8,-1
 749 160 l 1,6,-1
EndSplineSet
EndChar

StartChar: y
Encoding: 121 121 92
Width: 1190
VWidth: 833
Flags: W
LayerCount: 2
Fore
SplineSet
1165 812 m 1,0,-1
 717 0 l 1,1,-1
 437 0 l 1,2,-1
 25 742 l 1,3,-1
 25 780 l 1,4,-1
 48 806 l 1,5,-1
 75 812 l 1,6,-1
 451 812 l 1,7,-1
 640 475 l 1,8,-1
 445 475 l 1,9,-1
 323 720 l 1,10,-1
 232 720 l 1,11,-1
 558 130 l 1,12,-1
 600 130 l 1,13,-1
 982 812 l 1,14,-1
 1165 812 l 1,0,-1
EndSplineSet
EndChar

StartChar: z
Encoding: 122 122 93
Width: 1077
VWidth: 833
Flags: W
LayerCount: 2
Fore
SplineSet
1054 807 m 1,0,-1
 1054 -1 l 1,1,-1
 72 -1 l 1,2,-1
 30 41 l 1,3,-1
 30 264 l 1,4,-1
 246 264 l 1,5,-1
 246 188 l 1,6,-1
 868 188 l 1,7,-1
 868 467 l 1,8,-1
 481 467 l 1,9,-1
 358 341 l 1,10,-1
 76 341 l 1,11,-1
 386 651 l 1,12,-1
 868 651 l 1,13,-1
 868 807 l 1,14,-1
 1054 807 l 1,0,-1
EndSplineSet
EndChar

StartChar: braceleft
Encoding: 123 123 94
Width: 850
VWidth: 833
Flags: W
LayerCount: 2
Fore
SplineSet
73 608 m 1,0,-1
 73 598 l 1,1,-1
 73 608 l 1,0,-1
82 617 m 1,2,-1
 82 612 l 1,3,-1
 88 612 l 1,4,-1
 88 617 l 1,5,-1
 82 617 l 1,2,-1
161 695 m 1,6,-1
 161 691 l 1,7,-1
 166 691 l 1,8,-1
 166 695 l 1,9,-1
 161 695 l 1,6,-1
175 704 m 1,10,-1
 175 700 l 1,11,-1
 179 700 l 1,12,-1
 179 704 l 1,13,-1
 175 704 l 1,10,-1
189 713 m 1,14,-1
 189 709 l 1,15,-1
 193 709 l 1,16,-1
 193 713 l 1,17,-1
 189 713 l 1,14,-1
272 217 m 1,18,-1
 272 212 l 1,19,-1
 276 212 l 1,20,-1
 276 217 l 1,21,-1
 272 217 l 1,18,-1
392 392 m 1,22,-1
 392 387 l 1,23,-1
 396 387 l 1,24,-1
 396 392 l 1,25,-1
 392 392 l 1,22,-1
538 410 m 1,26,-1
 538 405 l 1,27,-1
 543 405 l 1,28,-1
 543 410 l 1,29,-1
 538 410 l 1,26,-1
552 382 m 1,30,-1
 552 363 l 1,31,-1
 562 368 l 1,32,-1
 558 382 l 1,33,-1
 552 382 l 1,30,-1
576 378 m 1,34,-1
 576 368 l 1,35,-1
 580 368 l 1,36,-1
 580 378 l 1,37,-1
 576 378 l 1,34,-1
603 336 m 1,38,-1
 603 308 l 1,39,-1
 608 308 l 1,40,-1
 608 336 l 1,41,-1
 603 336 l 1,38,-1
617 281 m 1,42,-1
 617 276 l 1,43,-1
 622 276 l 1,44,-1
 622 281 l 1,45,-1
 617 281 l 1,42,-1
608 382 m 1,46,-1
 612 363 l 1,47,-1
 622 368 l 1,48,-1
 622 382 l 1,49,-1
 608 382 l 1,46,-1
622 304 m 1,50,-1
 622 299 l 1,51,-1
 626 299 l 1,52,-1
 626 304 l 1,53,-1
 622 304 l 1,50,-1
622 313 m 1,54,-1
 622 308 l 1,55,-1
 626 308 l 1,56,-1
 626 313 l 1,57,-1
 622 313 l 1,54,-1
580 410 m 1,58,-1
 608 405 l 1,59,-1
 608 396 l 1,60,-1
 622 396 l 1,61,-1
 617 405 l 1,62,-1
 626 410 l 1,63,-1
 580 410 l 1,58,-1
622 419 m 1,64,-1
 622 414 l 1,65,-1
 626 414 l 1,66,-1
 626 419 l 1,67,-1
 622 419 l 1,64,-1
622 226 m 1,68,-1
 622 221 l 1,69,-1
 631 221 l 1,70,-1
 631 226 l 1,71,-1
 622 226 l 1,68,-1
635 212 m 1,72,-1
 635 208 l 1,73,-1
 640 208 l 1,74,-1
 640 212 l 1,75,-1
 635 212 l 1,72,-1
640 456 m 1,76,-1
 640 451 l 1,77,-1
 649 451 l 1,78,-1
 649 456 l 1,79,-1
 640 456 l 1,76,-1
649 193 m 1,80,-1
 649 189 l 1,81,-1
 654 189 l 1,82,-1
 654 193 l 1,83,-1
 649 193 l 1,80,-1
649 304 m 1,84,-1
 649 299 l 1,85,-1
 654 299 l 1,86,-1
 654 304 l 1,87,-1
 649 304 l 1,84,-1
649 460 m 1,88,-1
 649 456 l 1,89,-1
 654 456 l 1,90,-1
 654 460 l 1,91,-1
 649 460 l 1,88,-1
654 202 m 1,92,-1
 654 193 l 1,93,-1
 658 193 l 1,94,-1
 658 202 l 1,95,-1
 654 202 l 1,92,-1
658 208 m 1,96,-1
 658 202 l 1,97,-1
 663 202 l 1,98,-1
 663 208 l 1,99,-1
 658 208 l 1,96,-1
658 465 m 1,100,-1
 658 460 l 1,101,-1
 663 460 l 1,102,-1
 663 465 l 1,103,-1
 658 465 l 1,100,-1
663 470 m 1,104,-1
 663 465 l 1,105,-1
 677 470 l 1,106,-1
 677 479 l 1,107,-1
 663 470 l 1,104,-1
677 488 m 1,108,-1
 677 483 l 1,109,-1
 682 483 l 1,110,-1
 682 488 l 1,111,-1
 677 488 l 1,108,-1
635 226 m 1,112,-1
 640 217 l 1,113,114
 644 226 644 226 668 217 c 1,115,-1
 686 281 l 1,116,-1
 686 299 l 1,117,-1
 677 295 l 1,118,-1
 668 230 l 1,119,-1
 635 226 l 1,112,-1
682 313 m 1,120,-1
 682 308 l 1,121,-1
 691 308 l 1,122,-1
 691 345 l 1,123,-1
 682 313 l 1,120,-1
700 392 m 1,124,-1
 700 387 l 1,125,-1
 704 387 l 1,126,-1
 704 392 l 1,127,-1
 700 392 l 1,124,-1
700 299 m 1,128,-1
 700 276 l 1,129,-1
 709 295 l 1,130,-1
 709 327 l 1,131,-1
 700 299 l 1,128,-1
686 244 m 1,132,-1
 686 230 l 1,133,-1
 722 239 l 1,134,-1
 695 244 l 1,135,-1
 700 276 l 1,136,-1
 686 244 l 1,132,-1
722 248 m 1,137,-1
 722 244 l 1,138,-1
 732 244 l 1,139,-1
 732 248 l 1,140,-1
 722 248 l 1,137,-1
732 304 m 1,141,-1
 732 299 l 1,142,-1
 737 299 l 1,143,-1
 737 304 l 1,144,-1
 732 304 l 1,141,-1
742 410 m 1,145,-1
 746 401 l 1,146,-1
 742 410 l 1,145,-1
12 450 m 1,147,148
 59 627 59 627 180 704.5 c 128,-1,149
 301 782 301 782 378 769 c 1,150,151
 433 782 433 782 544 742 c 1,152,153
 737 644 737 644 765 451 c 1,154,-1
 765 419 l 1,155,-1
 719 423 l 1,156,-1
 705 479 l 1,157,-1
 710 419 l 1,158,-1
 673 428 l 1,159,-1
 655 414 l 1,160,-1
 632 419 l 1,161,-1
 632 405 l 1,162,-1
 664 401 l 1,163,-1
 692 405 l 1,164,165
 747 387 747 387 765 405 c 1,166,167
 756 392 756 392 770 378 c 1,168,-1
 632 382 l 1,169,170
 627 368 627 368 641 363 c 1,171,-1
 659 363 l 1,172,-1
 655 373 l 1,173,-1
 692 363 l 1,174,-1
 687 359 l 1,175,-1
 692 350 l 1,176,-1
 701 368 l 1,177,-1
 714 332 l 1,178,179
 710 387 710 387 765 368 c 1,180,181
 774 317 774 317 728 217 c 1,182,183
 636 33 636 33 415 9 c 1,184,185
 387 0 387 0 254 32 c 0,186,187
 176 54 176 54 74 170 c 1,188,189
 6 304 6 304 10 332 c 1,190,-1
 10 387 l 1,191,-1
 24 396 l 1,192,-1
 10 396 l 1,193,-1
 12 450 l 1,147,148
253 392 m 1,194,-1
 253 387 l 1,195,-1
 290 392 l 1,196,-1
 290 396 l 1,197,-1
 253 392 l 1,194,-1
442 392 m 1,198,-1
 442 382 l 1,199,-1
 502 387 l 1,200,-1
 442 392 l 1,198,-1
318 392 m 1,201,-1
 318 387 l 1,202,-1
 336 387 l 1,203,-1
 332 396 l 1,204,-1
 318 392 l 1,201,-1
454 389 m 1,205,-1
 452 412 l 1,206,-1
 452 422 l 1,207,-1
 452 474 l 1,208,-1
 448 428 l 1,209,-1
 424 430 l 1,210,-1
 448 424 l 1,211,-1
 448 410 l 1,212,-1
 408 407 l 1,213,-1
 446 407 l 1,214,-1
 446 399 l 1,215,-1
 432 398 l 1,216,-1
 454 389 l 1,205,-1
329 374 m 1,217,-1
 328 380 l 1,218,-1
 289 381 l 1,219,-1
 289 368 l 1,220,-1
 307 366 l 1,221,-1
 308 344 l 1,222,-1
 312 341 l 1,223,-1
 308 333 l 1,224,-1
 312 328 l 1,225,-1
 312 285 l 1,226,-1
 312 229 l 1,227,-1
 311 222 l 1,228,-1
 283 220 l 1,229,-1
 288 215 l 1,230,-1
 363 216 l 1,231,-1
 445 214 l 1,232,-1
 474 215 l 1,233,-1
 418 218 l 1,234,-1
 335 218 l 1,235,-1
 319 221 l 1,236,-1
 318 251 l 1,237,-1
 331 252 l 1,238,-1
 322 254 l 1,239,-1
 318 255 l 1,240,-1
 316 286 l 1,241,-1
 328 289 l 1,242,-1
 327 327 l 1,243,-1
 323 327 l 1,244,-1
 323 293 l 1,245,-1
 317 291 l 1,246,-1
 316 334 l 1,247,-1
 316 364 l 1,248,-1
 333 367 l 1,249,-1
 334 360 l 1,250,-1
 511 359 l 1,251,-1
 339 364 l 1,252,-1
 338 378 l 1,253,-1
 548 381 l 1,254,-1
 337 379 l 1,255,-1
 329 374 l 1,217,-1
483 400 m 1,256,-1
 542 394 l 1,257,-1
 542 399 l 1,258,-1
 534 402 l 1,259,-1
 534 413 l 1,260,-1
 547 414 l 1,261,-1
 548 393 l 1,262,-1
 603 390 l 1,263,-1
 602 400 l 1,264,-1
 581 405 l 1,265,-1
 577 412 l 1,266,-1
 614 415 l 1,267,-1
 618 422 l 1,268,-1
 631 424 l 1,269,-1
 638 422 l 1,270,-1
 656 418 l 1,271,-1
 672 433 l 1,272,-1
 707 425 l 1,273,-1
 703 459 l 1,274,-1
 702 485 l 1,275,-1
 708 484 l 1,276,-1
 709 474 l 1,277,-1
 716 459 l 1,278,-1
 723 448 l 1,279,-1
 720 442 l 1,280,-1
 726 428 l 1,281,-1
 760 424 l 1,282,-1
 763 433 l 1,283,-1
 762 452 l 1,284,-1
 759 472 l 1,285,-1
 753 496 l 1,286,-1
 744 527 l 1,287,-1
 736 548 l 1,288,-1
 725 571 l 1,289,-1
 711 596 l 1,290,-1
 690 626 l 1,291,-1
 679 627 l 1,292,-1
 679 616 l 1,293,-1
 682 607 l 1,294,-1
 675 604 l 1,295,-1
 658 616 l 1,296,-1
 660 611 l 1,297,-1
 667 597 l 1,298,-1
 663 589 l 1,299,-1
 668 582 l 1,300,-1
 673 566 l 1,301,-1
 680 552 l 1,302,-1
 680 540 l 1,303,-1
 679 518 l 1,304,-1
 674 498 l 1,305,-1
 667 483 l 1,306,-1
 660 473 l 1,307,-1
 669 479 l 1,308,-1
 676 489 l 1,309,-1
 684 495 l 1,310,-1
 687 487 l 1,311,-1
 688 473 l 1,312,-1
 674 464 l 1,313,-1
 673 458 l 1,314,-1
 657 447 l 1,315,-1
 640 445 l 1,316,-1
 628 454 l 1,317,-1
 601 458 l 1,318,-1
 577 464 l 1,319,-1
 562 473 l 1,320,-1
 550 482 l 1,321,-1
 540 492 l 1,322,-1
 529 502 l 1,323,-1
 513 534 l 1,324,-1
 522 519 l 1,325,-1
 536 504 l 1,326,-1
 548 490 l 1,327,-1
 564 480 l 1,328,-1
 566 484 l 1,329,-1
 572 486 l 1,330,-1
 573 489 l 1,331,-1
 578 498 l 1,332,-1
 580 502 l 1,333,-1
 582 511 l 1,334,-1
 577 516 l 1,335,-1
 580 522 l 1,336,-1
 579 531 l 1,337,-1
 577 542 l 1,338,-1
 581 544 l 1,339,-1
 578 554 l 1,340,-1
 587 566 l 1,341,-1
 591 568 l 1,342,-1
 590 572 l 1,343,-1
 590 592 l 1,344,-1
 592 582 l 1,345,-1
 597 581 l 1,346,-1
 620 598 l 1,347,-1
 624 594 l 1,348,-1
 645 595 l 1,349,-1
 656 588 l 1,350,-1
 652 595 l 1,351,-1
 641 615 l 1,352,-1
 628 632 l 1,353,-1
 610 647 l 1,354,-1
 592 659 l 1,355,-1
 563 667 l 1,356,-1
 536 666 l 1,357,-1
 512 656 l 1,358,-1
 492 631 l 1,359,-1
 486 595 l 1,360,-1
 494 538 l 1,361,-1
 508 511 l 1,362,-1
 520 492 l 1,363,-1
 534 478 l 1,364,-1
 554 458 l 1,365,-1
 578 448 l 1,366,-1
 580 439 l 1,367,-1
 566 431 l 1,368,-1
 556 429 l 1,369,-1
 541 426 l 1,370,-1
 525 421 l 1,371,-1
 519 423 l 1,372,-1
 516 425 l 1,373,-1
 512 412 l 1,374,-1
 498 408 l 1,375,-1
 483 400 l 1,256,-1
619 589 m 1,376,-1
 636 588 l 1,377,-1
 633 581 l 1,378,-1
 630 572 l 1,379,-1
 633 562 l 1,380,-1
 623 557 l 1,381,-1
 618 567 l 1,382,-1
 612 576 l 1,383,-1
 613 581 l 1,384,-1
 622 582 l 1,385,-1
 622 588 l 1,386,-1
 625 588 l 1,387,-1
 622 588 l 1,388,-1
 619 589 l 1,376,-1
602 572 m 1,389,-1
 612 567 l 1,390,-1
 610 558 l 1,391,-1
 613 553 l 1,392,-1
 611 548 l 1,393,-1
 609 541 l 1,394,-1
 605 532 l 1,395,-1
 602 546 l 1,396,-1
 599 537 l 1,397,-1
 596 534 l 1,398,-1
 598 524 l 1,399,-1
 597 514 l 1,400,-1
 603 512 l 1,401,-1
 610 500 l 1,402,-1
 602 503 l 1,403,-1
 600 497 l 1,404,-1
 598 487 l 1,405,-1
 587 492 l 1,406,-1
 598 502 l 1,407,-1
 594 512 l 1,408,-1
 595 518 l 1,409,-1
 606 527 l 1,410,-1
 590 542 l 1,411,-1
 593 546 l 1,412,-1
 603 552 l 1,413,-1
 606 562 l 1,414,-1
 605 572 l 1,415,-1
 602 572 l 1,389,-1
621 531 m 1,416,-1
 618 521 l 1,417,-1
 622 522 l 1,418,-1
 627 527 l 1,419,-1
 623 532 l 1,420,-1
 621 531 l 1,416,-1
587 524 m 1,421,-1
 589 507 l 1,422,-1
 588 497 l 1,423,-1
 582 486 l 1,424,-1
 573 483 l 1,425,-1
 566 491 l 1,426,-1
 576 478 l 1,427,-1
 573 474 l 1,428,-1
 598 465 l 1,429,-1
 588 482 l 1,430,-1
 600 480 l 1,431,-1
 609 487 l 1,432,-1
 598 493 l 1,433,-1
 619 495 l 1,434,-1
 616 508 l 1,435,-1
 591 527 l 1,436,-1
 620 522 l 1,437,-1
 597 556 l 1,438,-1
 624 551 l 1,439,-1
 639 546 l 1,440,-1
 642 562 l 1,441,-1
 641 582 l 1,442,-1
 656 570 l 1,443,-1
 665 559 l 1,444,-1
 663 571 l 1,445,-1
 652 578 l 1,446,-1
 642 587 l 1,447,-1
 650 550 l 1,448,-1
 652 523 l 1,449,-1
 643 534 l 1,450,-1
 605 558 l 1,451,-1
 599 563 l 1,452,-1
 629 535 l 1,453,-1
 600 542 l 1,454,-1
 592 539 l 1,455,-1
 587 524 l 1,421,-1
382 335 m 1,456,-1
 377 335 l 1,457,-1
 371 338 l 1,458,-1
 369 344 l 1,459,-1
 368 319 l 1,460,-1
 371 266 l 1,461,-1
 372 253 l 1,462,-1
 374 224 l 1,463,-1
 378 219 l 1,464,-1
 375 241 l 1,465,-1
 382 247 l 1,466,-1
 384 244 l 1,467,-1
 386 222 l 1,468,-1
 388 232 l 1,469,-1
 393 233 l 1,470,-1
 395 229 l 1,471,-1
 398 223 l 1,472,-1
 404 232 l 1,473,-1
 412 225 l 1,474,-1
 417 222 l 1,475,-1
 418 236 l 1,476,-1
 427 238 l 1,477,-1
 425 260 l 1,478,-1
 409 258 l 1,479,-1
 409 282 l 1,480,-1
 408 286 l 1,481,-1
 408 334 l 1,482,-1
 405 344 l 1,483,-1
 402 319 l 1,484,-1
 397 321 l 1,485,-1
 396 341 l 1,486,-1
 392 330 l 1,487,-1
 386 327 l 1,488,-1
 386 351 l 1,489,-1
 382 335 l 1,456,-1
376 321 m 1,490,-1
 385 319 l 1,491,-1
 391 322 l 1,492,-1
 395 312 l 1,493,-1
 406 312 l 1,494,-1
 405 267 l 1,495,-1
 403 300 l 1,496,-1
 393 303 l 1,497,-1
 392 239 l 1,498,-1
 390 300 l 1,499,-1
 386 308 l 1,500,-1
 381 307 l 1,501,-1
 380 273 l 1,502,-1
 381 254 l 1,503,-1
 377 275 l 1,504,-1
 378 300 l 1,505,-1
 376 321 l 1,490,-1
377 195 m 1,506,-1
 378 177 l 1,507,-1
 376 177 l 1,508,-1
 386 182 l 1,509,-1
 379 186 l 1,510,-1
 382 188 l 1,511,-1
 372 191 l 1,512,-1
 377 195 l 1,506,-1
402 189 m 1,513,-1
 408 168 l 1,514,-1
 411 153 l 1,515,-1
 403 139 l 1,516,-1
 414 138 l 1,517,-1
 412 122 l 1,518,-1
 413 120 l 1,519,-1
 418 99 l 1,520,-1
 418 128 l 1,521,-1
 418 161 l 1,522,-1
 417 174 l 1,523,-1
 428 175 l 1,524,-1
 424 186 l 1,525,-1
 414 181 l 1,526,-1
 412 182 l 1,527,-1
 417 191 l 1,528,-1
 409 190 l 1,529,-1
 402 189 l 1,513,-1
428 91 m 1,530,-1
 427 88 l 1,531,-1
 429 86 l 1,532,-1
 431 88 l 1,533,-1
 428 91 l 1,530,-1
439 142 m 1,534,-1
 440 137 l 1,535,-1
 450 142 l 1,536,-1
 447 147 l 1,537,-1
 443 142 l 1,538,-1
 439 142 l 1,534,-1
315 120 m 1,539,-1
 312 116 l 1,540,-1
 312 113 l 1,541,-1
 316 110 l 1,542,-1
 319 114 l 1,543,-1
 315 120 l 1,539,-1
338 184 m 1,544,-1
 338 181 l 1,545,-1
 338 174 l 1,546,-1
 339 179 l 1,547,-1
 338 184 l 1,544,-1
462 123 m 1,548,-1
 459 108 l 1,549,-1
 464 97 l 1,550,-1
 472 112 l 1,551,-1
 468 116 l 1,552,-1
 471 121 l 1,553,-1
 462 123 l 1,548,-1
397 267 m 1,554,-1
 398 248 l 1,555,-1
 418 243 l 1,556,-1
 422 277 l 1,557,-1
 420 303 l 1,558,-1
 398 285 l 1,559,-1
 397 267 l 1,554,-1
102 245 m 1,560,-1
 105 237 l 1,561,-1
 110 243 l 1,562,-1
 102 245 l 1,560,-1
123 280 m 1,563,-1
 128 275 l 1,564,-1
 131 279 l 1,565,-1
 129 282 l 1,566,-1
 123 280 l 1,563,-1
89 304 m 1,567,-1
 93 300 l 1,568,-1
 95 303 l 1,569,-1
 92 307 l 1,570,-1
 89 304 l 1,567,-1
110 304 m 1,571,-1
 113 300 l 1,572,-1
 116 303 l 1,573,-1
 113 305 l 1,574,-1
 110 304 l 1,571,-1
158 300 m 1,575,-1
 163 292 l 1,576,-1
 166 297 l 1,577,-1
 163 300 l 1,578,-1
 158 300 l 1,575,-1
145 292 m 1,579,-1
 148 288 l 1,580,-1
 150 292 l 1,581,-1
 148 295 l 1,582,-1
 145 292 l 1,579,-1
148 321 m 1,583,-1
 152 317 l 1,584,-1
 158 320 l 1,585,-1
 152 324 l 1,586,-1
 148 321 l 1,583,-1
207 343 m 1,587,-1
 202 342 l 1,588,-1
 205 338 l 1,589,-1
 208 341 l 1,590,-1
 207 343 l 1,587,-1
119 268 m 1,591,-1
 108 263 l 1,592,-1
 122 264 l 1,593,-1
 127 260 l 1,594,-1
 133 256 l 1,595,-1
 133 261 l 1,596,-1
 131 267 l 1,597,-1
 141 271 l 1,598,-1
 119 268 l 1,591,-1
142 282 m 1,599,-1
 142 278 l 1,600,-1
 147 275 l 1,601,-1
 150 281 l 1,602,-1
 146 285 l 1,603,-1
 142 282 l 1,599,-1
79 400 m 1,604,-1
 79 396 l 1,605,-1
 90 398 l 1,606,-1
 102 393 l 1,607,-1
 130 393 l 1,608,-1
 112 396 l 1,609,-1
 98 399 l 1,610,-1
 79 400 l 1,604,-1
91 354 m 1,611,-1
 95 352 l 1,612,-1
 100 356 l 1,613,-1
 97 360 l 1,614,-1
 91 354 l 1,611,-1
180 204 m 1,615,-1
 178 202 l 1,616,-1
 182 198 l 1,617,-1
 187 203 l 1,618,-1
 182 206 l 1,619,-1
 180 204 l 1,615,-1
117 546 m 1,620,-1
 118 541 l 1,621,-1
 127 543 l 1,622,-1
 125 546 l 1,623,-1
 117 546 l 1,620,-1
160 413 m 1,624,-1
 163 405 l 1,625,-1
 171 410 l 1,626,-1
 167 412 l 1,627,-1
 164 413 l 1,628,-1
 160 413 l 1,624,-1
51 443 m 1,629,-1
 54 440 l 1,630,-1
 58 443 l 1,631,-1
 57 446 l 1,632,-1
 51 443 l 1,629,-1
45 422 m 1024,633,-1
52 428 m 1,634,-1
 54 425 l 1,635,-1
 60 428 l 1,636,-1
 58 430 l 1,637,-1
 52 428 l 1,634,-1
74 440 m 1,638,-1
 78 434 l 1,639,-1
 80 438 l 1,640,-1
 79 441 l 1,641,-1
 74 440 l 1,638,-1
48 367 m 1,642,-1
 50 364 l 1,643,-1
 55 366 l 1,644,-1
 54 369 l 1,645,-1
 48 367 l 1,642,-1
638 175 m 1,646,-1
 618 150 l 1,647,-1
 638 162 l 1,648,-1
 648 170 l 1,649,-1
 648 180 l 1,650,-1
 638 175 l 1,646,-1
613 185 m 1,651,-1
 608 173 l 1,652,-1
 585 155 l 1,653,-1
 568 140 l 1,654,-1
 597 157 l 1,655,-1
 610 168 l 1,656,-1
 620 195 l 1,657,-1
 613 185 l 1,651,-1
EndSplineSet
EndChar

StartChar: braceright
Encoding: 125 125 96
Width: 850
VWidth: 833
Flags: W
LayerCount: 2
Fore
SplineSet
53 394 m 1,0,-1
 53 392 l 1,1,-1
 55 392 l 1,2,-1
 55 394 l 1,3,-1
 53 394 l 1,0,-1
29 412 m 1,4,-1
 38 402 l 1,5,-1
 51 400 l 1,6,-1
 53 396 l 1,7,8
 51 402 51 402 67 402 c 1,9,-1
 67 408 l 1,10,-1
 45 412 l 1,11,12
 40 408 40 408 28 412 c 1,13,-1
 29 412 l 1,4,-1
85 384 m 1,14,-1
 85 377 l 1,15,-1
 91 372 l 1,16,-1
 94 372 l 1,17,-1
 91 390 l 1,18,-1
 85 384 l 1,14,-1
97 308 m 1,19,-1
 97 293 l 1,20,-1
 102 293 l 1,21,22
 98 305 98 305 102 313 c 1,23,-1
 97 308 l 1,19,-1
97 485 m 1,24,-1
 98 477 l 1,25,-1
 102 482 l 1,26,-1
 102 488 l 1,27,-1
 97 485 l 1,24,-1
98 361 m 1,28,-1
 101 348 l 1,29,-1
 104 348 l 1,30,-1
 104 362 l 1,31,-1
 98 361 l 1,28,-1
104 448 m 1,32,-1
 104 442 l 1,33,-1
 108 443 l 1,34,-1
 107 448 l 1,35,-1
 104 448 l 1,32,-1
107 510 m 1,36,-1
 107 508 l 1,37,-1
 108 508 l 1,38,-1
 108 510 l 1,39,-1
 107 510 l 1,36,-1
102 432 m 1,40,-1
 104 428 l 1,41,-1
 110 429 l 1,42,-1
 110 432 l 1,43,-1
 102 432 l 1,40,-1
104 457 m 1,44,-1
 104 451 l 1,45,-1
 110 451 l 1,46,-1
 108 457 l 1,47,-1
 104 457 l 1,44,-1
75 406 m 1,48,-1
 75 398 l 1,49,50
 83 404 83 404 88 392 c 1,51,-1
 112 396 l 1,52,53
 112 402 112 402 94 404 c 1,54,55
 90 400 90 400 72 406 c 1,56,-1
 75 406 l 1,48,-1
118 347 m 1,57,-1
 118 345 l 1,58,-1
 120 345 l 1,59,-1
 120 347 l 1,60,-1
 118 347 l 1,57,-1
118 500 m 1,61,-1
 118 498 l 1,62,-1
 120 498 l 1,63,-1
 120 500 l 1,64,-1
 118 500 l 1,61,-1
116 548 m 1,65,-1
 120 540 l 1,66,-1
 124 540 l 2,67,68
 126 542 126 542 118 548 c 1,69,-1
 116 548 l 1,65,-1
124 530 m 1,70,-1
 124 526 l 1,71,-1
 126 526 l 1,72,-1
 126 530 l 1,73,-1
 124 530 l 1,70,-1
126 556 m 1,74,-1
 126 552 l 1,75,-1
 128 552 l 1,76,-1
 128 556 l 1,77,-1
 126 556 l 1,74,-1
124 550 m 1,78,-1
 126 543 l 1,79,-1
 130 543 l 1,80,-1
 126 550 l 1,81,-1
 124 550 l 1,78,-1
126 565 m 1,82,-1
 126 559 l 1,83,-1
 130 562 l 1,84,-1
 128 565 l 1,85,-1
 126 565 l 1,82,-1
130 231 m 1,86,-1
 130 227 l 1,87,-1
 132 227 l 1,88,-1
 132 231 l 1,89,-1
 130 231 l 1,86,-1
124 348 m 1,90,-1
 126 342 l 1,91,-1
 134 347 l 1,92,93
 136 353 136 353 130 355 c 2,94,-1
 126 355 l 1,95,-1
 124 348 l 1,90,-1
132 163 m 1,96,-1
 134 159 l 1,97,-1
 136 159 l 1,98,-1
 136 163 l 1,99,-1
 132 163 l 1,96,-1
122 308 m 1,100,101
 128 310 128 310 134 293 c 1,102,-1
 134 282 l 1,103,-1
 128 283 l 1,104,105
 124 275 124 275 136 274 c 1,106,-1
 138 258 l 1,107,-1
 128 260 l 1,108,-1
 124 278 l 1,109,-1
 126 286 l 1,110,111
 120 292 120 292 122 308 c 1,100,101
136 488 m 1,112,-1
 136 485 l 1,113,-1
 138 485 l 1,114,-1
 138 488 l 1,115,-1
 136 488 l 1,112,-1
134 563 m 1,116,-1
 136 556 l 1,117,-1
 138 556 l 1,118,-1
 138 563 l 1,119,-1
 134 563 l 1,116,-1
142 362 m 1,120,-1
 142 361 l 1,121,-1
 144 361 l 1,122,-1
 144 362 l 1,123,-1
 142 362 l 1,120,-1
142 442 m 1,124,-1
 142 439 l 1,125,-1
 144 439 l 1,126,-1
 144 442 l 1,127,-1
 142 442 l 1,124,-1
142 508 m 1,128,-1
 142 507 l 1,129,-1
 144 507 l 1,130,-1
 144 508 l 1,131,-1
 142 508 l 1,128,-1
140 543 m 1,132,-1
 140 540 l 1,133,-1
 144 540 l 1,134,-1
 144 543 l 1,135,-1
 140 543 l 1,132,-1
142 377 m 1,136,-1
 142 372 l 1,137,-1
 146 372 l 1,138,-1
 146 377 l 1,139,-1
 142 377 l 1,136,-1
144 426 m 1,140,-1
 144 423 l 1,141,-1
 146 423 l 1,142,-1
 146 426 l 1,143,-1
 144 426 l 1,140,-1
144 559 m 1,144,-1
 144 556 l 1,145,-1
 148 556 l 1,146,-1
 148 559 l 1,147,-1
 144 559 l 1,144,-1
148 142 m 1,148,-1
 148 140 l 1,149,-1
 150 140 l 1,150,-1
 150 142 l 1,151,-1
 148 142 l 1,148,-1
150 278 m 1,152,-1
 152 270 l 1,153,-1
 153 270 l 1,154,-1
 153 278 l 1,155,-1
 150 278 l 1,152,-1
152 463 m 1,156,-1
 152 459 l 1,157,-1
 156 459 l 1,158,-1
 156 463 l 1,159,-1
 152 463 l 1,156,-1
150 543 m 1,160,-1
 152 536 l 1,161,-1
 156 540 l 1,162,-1
 153 543 l 1,163,-1
 150 543 l 1,160,-1
152 563 m 1,164,-1
 152 559 l 1,165,-1
 156 559 l 1,166,-1
 156 563 l 1,167,-1
 152 563 l 1,164,-1
152 342 m 1,168,-1
 158 341 l 1,169,-1
 158 335 l 1,170,-1
 150 337 l 1,171,-1
 152 342 l 1,168,-1
156 321 m 1,172,-1
 158 315 l 1,173,-1
 159 315 l 1,174,-1
 159 321 l 1,175,-1
 156 321 l 1,172,-1
156 374 m 1,176,-1
 156 368 l 1,177,-1
 159 368 l 1,178,-1
 159 374 l 1,179,-1
 156 374 l 1,176,-1
158 520 m 1,180,-1
 158 516 l 1,181,-1
 159 516 l 1,182,-1
 159 520 l 1,183,-1
 158 520 l 1,180,-1
142 321 m 1,184,-1
 146 313 l 1,185,-1
 152 315 l 1,186,-1
 156 329 l 1,187,-1
 158 327 l 1,188,-1
 162 329 l 1,189,190
 158 357 158 357 162 364 c 1,191,-1
 158 362 l 1,192,-1
 153 351 l 1,193,-1
 144 361 l 1,194,-1
 142 352 l 1,195,196
 150 324 150 324 142 321 c 1,184,-1
136 159 m 1,197,-1
 140 150 l 1,198,-1
 148 156 l 1,199,-1
 158 146 l 1,200,-1
 163 146 l 1,201,-1
 159 156 l 1,202,-1
 152 156 l 1,203,-1
 150 159 l 1,204,-1
 146 158 l 1,205,-1
 136 159 l 1,197,-1
156 142 m 1,206,-1
 159 136 l 1,207,-1
 166 136 l 1,208,-1
 162 142 l 1,209,-1
 156 142 l 1,206,-1
166 128 m 1,210,-1
 166 124 l 1,211,-1
 169 124 l 1,212,-1
 169 128 l 1,213,-1
 166 128 l 1,210,-1
166 153 m 1,214,-1
 168 150 l 1,215,-1
 169 150 l 1,216,-1
 169 153 l 1,217,-1
 166 153 l 1,214,-1
168 358 m 1,218,-1
 168 357 l 1,219,-1
 172 357 l 1,220,-1
 172 358 l 1,221,-1
 168 358 l 1,218,-1
169 563 m 1,222,-1
 169 559 l 1,223,-1
 172 559 l 1,224,-1
 172 563 l 1,225,-1
 169 563 l 1,222,-1
169 168 m 1,226,-1
 169 166 l 1,227,-1
 173 166 l 1,228,-1
 173 168 l 1,229,-1
 169 168 l 1,226,-1
132 449 m 1,230,-1
 132 445 l 1,231,-1
 140 445 l 1,232,-1
 138 451 l 1,233,-1
 150 449 l 1,234,-1
 146 438 l 1,235,-1
 140 439 l 1,236,-1
 140 423 l 1,237,-1
 144 426 l 1,238,-1
 142 433 l 1,239,-1
 148 428 l 1,240,-1
 150 428 l 1,241,-1
 148 435 l 1,242,-1
 153 435 l 1,243,-1
 153 443 l 1,244,-1
 159 442 l 1,245,-1
 166 448 l 1,246,-1
 162 442 l 1,247,-1
 169 442 l 1,248,-1
 163 457 l 1,249,-1
 173 477 l 1,250,-1
 172 481 l 1,251,-1
 166 477 l 1,252,253
 164 459 164 459 158 457 c 0,254,255
 146 454 146 454 144 465 c 1,256,257
 132 461 132 461 132 455 c 2,258,-1
 134 449 l 1,259,-1
 132 449 l 1,230,-1
172 585 m 1,260,-1
 172 583 l 1,261,-1
 173 583 l 1,262,-1
 173 585 l 1,263,-1
 172 585 l 1,260,-1
172 222 m 1,264,-1
 173 218 l 1,265,-1
 175 218 l 1,266,-1
 175 222 l 1,267,-1
 172 222 l 1,264,-1
169 318 m 1,268,-1
 169 312 l 1,269,-1
 175 312 l 1,270,-1
 173 318 l 1,271,-1
 169 318 l 1,268,-1
172 487 m 1,272,-1
 172 481 l 1,273,-1
 175 482 l 1,274,-1
 173 487 l 1,275,-1
 172 487 l 1,272,-1
168 144 m 1,276,-1
 172 134 l 1,277,-1
 178 136 l 2,278,279
 180 138 180 138 172 144 c 1,280,-1
 168 144 l 1,276,-1
175 298 m 1,281,-1
 178 292 l 1,282,-1
 172 292 l 1,283,-1
 175 298 l 1,281,-1
175 552 m 1,284,-1
 175 548 l 1,285,-1
 178 548 l 1,286,-1
 178 552 l 1,287,-1
 175 552 l 1,284,-1
168 512 m 1,288,-1
 169 504 l 1,289,-1
 179 508 l 1,290,-1
 169 512 l 1,291,-1
 168 512 l 1,288,-1
178 518 m 1,292,-1
 178 516 l 1,293,-1
 179 516 l 1,294,-1
 179 518 l 1,295,-1
 178 518 l 1,292,-1
175 134 m 1,296,-1
 178 128 l 1,297,-1
 181 128 l 1,298,-1
 179 134 l 1,299,-1
 175 134 l 1,296,-1
175 153 m 1,300,-1
 179 146 l 1,301,-1
 181 146 l 1,302,-1
 179 153 l 1,303,-1
 175 153 l 1,300,-1
179 575 m 1,304,-1
 179 573 l 1,305,-1
 183 573 l 1,306,-1
 183 575 l 1,307,-1
 179 575 l 1,304,-1
183 492 m 1,308,-1
 183 491 l 1,309,-1
 185 491 l 1,310,-1
 185 492 l 1,311,-1
 183 492 l 1,308,-1
183 562 m 1,312,-1
 183 558 l 1,313,-1
 188 558 l 1,314,-1
 188 562 l 1,315,-1
 183 562 l 1,312,-1
185 134 m 1,316,-1
 185 130 l 1,317,-1
 189 130 l 1,318,-1
 189 134 l 1,319,-1
 185 134 l 1,316,-1
188 347 m 1,320,-1
 188 345 l 1,321,-1
 189 345 l 1,322,-1
 189 347 l 1,323,-1
 188 347 l 1,320,-1
178 358 m 1,324,-1
 185 352 l 1,325,-1
 189 355 l 1,326,-1
 188 361 l 1,327,-1
 178 358 l 1,324,-1
188 433 m 1,328,-1
 188 432 l 1,329,-1
 191 432 l 1,330,-1
 191 433 l 1,331,-1
 188 433 l 1,328,-1
188 451 m 1,332,-1
 189 445 l 1,333,-1
 193 448 l 1,334,-1
 193 451 l 1,335,-1
 188 451 l 1,332,-1
188 477 m 1,336,-1
 188 475 l 1,337,-1
 193 475 l 1,338,-1
 193 478 l 1,339,-1
 188 477 l 1,336,-1
181 335 m 1,340,-1
 183 331 l 1,341,-1
 189 333 l 1,342,-1
 189 327 l 1,343,-1
 197 331 l 1,344,-1
 191 342 l 1,345,-1
 188 342 l 1,346,-1
 189 335 l 1,347,-1
 181 335 l 1,340,-1
193 110 m 1,348,-1
 195 104 l 1,349,-1
 199 104 l 1,350,-1
 197 110 l 1,351,-1
 193 110 l 1,348,-1
191 191 m 1,352,-1
 199 188 l 1,353,-1
 195 188 l 1,354,-1
 199 181 l 1,355,-1
 199 169 l 1,356,-1
 191 179 l 1,357,-1
 191 191 l 1,352,-1
195 453 m 1,358,-1
 197 445 l 1,359,-1
 199 445 l 1,360,-1
 199 453 l 1,361,-1
 195 453 l 1,358,-1
195 492 m 1,362,-1
 197 488 l 1,363,-1
 199 488 l 1,364,-1
 199 492 l 1,365,-1
 195 492 l 1,362,-1
197 202 m 1,366,-1
 197 199 l 1,367,-1
 201 199 l 1,368,-1
 201 202 l 1,369,-1
 197 202 l 1,366,-1
199 104 m 1,370,-1
 201 101 l 1,371,-1
 202 101 l 1,372,-1
 202 104 l 1,373,-1
 199 104 l 1,370,-1
201 477 m 1,374,-1
 201 472 l 1,375,-1
 202 472 l 1,376,-1
 202 477 l 1,377,-1
 201 477 l 1,374,-1
201 465 m 1,378,-1
 202 461 l 1,379,-1
 207 463 l 1,380,-1
 207 465 l 1,381,-1
 201 465 l 1,378,-1
158 250 m 1,382,-1
 158 247 l 1,383,384
 166 250 166 250 175 237 c 1,385,-1
 185 247 l 1,386,-1
 202 242 l 1,387,-1
 209 244 l 1,388,-1
 207 248 l 1,389,390
 175 248 175 248 175 258 c 1,391,392
 172 262 172 262 158 250 c 1,382,-1
197 283 m 1,393,394
 194 275 194 275 202 274 c 1,395,-1
 199 268 l 1,396,-1
 205 262 l 1,397,-1
 212 264 l 1,398,-1
 211 272 l 1,399,400
 219 274 219 274 211 288 c 1,401,-1
 207 283 l 1,402,-1
 205 286 l 1,403,-1
 197 283 l 1,393,394
195 325 m 1,404,-1
 195 323 l 1,405,406
 203 326 203 326 205 323 c 1,407,-1
 209 327 l 1,408,-1
 215 319 l 1,409,-1
 212 333 l 1,410,-1
 209 331 l 1,411,-1
 202 337 l 1,412,413
 204 327 204 327 195 325 c 1,404,-1
217 380 m 1,414,-1
 212 378 l 1,415,-1
 217 380 l 1,414,-1
175 124 m 1,416,-1
 189 116 l 1,417,-1
 189 112 l 1,418,-1
 211 114 l 1,419,-1
 218 110 l 1,420,-1
 218 114 l 1,421,-1
 201 118 l 1,422,-1
 199 122 l 1,423,-1
 188 120 l 1,424,-1
 181 126 l 1,425,-1
 175 124 l 1,416,-1
215 357 m 1,426,-1
 215 351 l 1,427,-1
 218 351 l 1,428,-1
 217 357 l 1,429,-1
 215 357 l 1,426,-1
221 166 m 1,430,-1
 221 162 l 1,431,-1
 217 163 l 1,432,-1
 221 166 l 1,430,-1
217 280 m 1,433,-1
 217 278 l 1,434,-1
 221 278 l 1,435,-1
 221 280 l 1,436,-1
 217 280 l 1,433,-1
211 398 m 1,437,-1
 222 396 l 1,438,-1
 218 390 l 1,439,-1
 211 394 l 1,440,-1
 211 398 l 1,437,-1
222 313 m 1,441,-1
 222 309 l 1,442,-1
 225 309 l 1,443,-1
 225 313 l 1,444,-1
 222 313 l 1,441,-1
227 250 m 1,445,-1
 227 247 l 1,446,-1
 228 247 l 1,447,-1
 228 250 l 1,448,-1
 227 250 l 1,445,-1
227 313 m 1,449,-1
 227 312 l 1,450,-1
 228 312 l 1,451,-1
 228 313 l 1,452,-1
 227 313 l 1,449,-1
225 112 m 1,453,-1
 225 108 l 1,454,-1
 231 108 l 1,455,-1
 231 112 l 1,456,-1
 225 112 l 1,453,-1
231 347 m 1,457,-1
 231 345 l 1,458,-1
 232 345 l 1,459,-1
 232 347 l 1,460,-1
 231 347 l 1,457,-1
237 303 m 1,461,-1
 240 303 l 1,462,-1
 240 299 l 1,463,-1
 237 299 l 1,464,-1
 237 303 l 1,461,-1
238 232 m 1,465,-1
 238 231 l 1,466,-1
 242 231 l 1,467,-1
 242 232 l 1,468,-1
 238 232 l 1,465,-1
238 278 m 1,469,-1
 238 274 l 1,470,-1
 242 274 l 1,471,-1
 240 278 l 1,472,-1
 238 278 l 1,469,-1
238 325 m 1,473,-1
 242 323 l 1,474,-1
 238 313 l 1,475,-1
 240 323 l 1,476,-1
 238 325 l 1,473,-1
250 252 m 1,477,-1
 250 248 l 1,478,-1
 254 248 l 1,479,-1
 252 252 l 1,480,-1
 250 252 l 1,477,-1
234 394 m 1,481,-1
 248 392 l 1,482,-1
 252 394 l 1,483,-1
 256 390 l 1,484,-1
 252 386 l 1,485,-1
 232 390 l 1,486,-1
 234 394 l 1,481,-1
256 215 m 1,487,-1
 256 212 l 1,488,-1
 258 212 l 1,489,-1
 258 215 l 1,490,-1
 256 215 l 1,487,-1
256 222 m 1,491,-1
 256 218 l 1,492,-1
 262 221 l 1,493,-1
 260 225 l 1,494,-1
 256 222 l 1,491,-1
256 278 m 1,495,-1
 256 270 l 1,496,-1
 262 274 l 1,497,-1
 258 278 l 1,498,-1
 256 278 l 1,495,-1
258 303 m 1,499,-1
 262 302 l 1,500,-1
 262 298 l 1,501,-1
 258 298 l 1,502,-1
 258 303 l 1,499,-1
258 108 m 1,503,-1
 258 104 l 1,504,-1
 264 104 l 1,505,-1
 262 108 l 1,506,-1
 258 108 l 1,503,-1
264 325 m 1,507,508
 266 313 266 313 260 312 c 1,509,510
 258 320 258 320 250 321 c 1,511,512
 254 319 254 319 264 325 c 1,507,508
262 183 m 1,513,-1
 262 175 l 1,514,-1
 268 175 l 1,515,-1
 266 185 l 1,516,-1
 262 183 l 1,513,-1
266 364 m 1,517,-1
 266 362 l 1,518,-1
 268 362 l 1,519,-1
 268 364 l 1,520,-1
 266 364 l 1,517,-1
262 352 m 1,521,-1
 264 348 l 1,522,-1
 268 351 l 1,523,-1
 270 348 l 1,524,-1
 270 355 l 1,525,-1
 262 352 l 1,521,-1
268 140 m 1,526,-1
 268 134 l 1,527,-1
 272 134 l 1,528,-1
 270 140 l 1,529,-1
 268 140 l 1,526,-1
276 142 m 1,530,-1
 276 136 l 1,531,-1
 280 136 l 1,532,-1
 280 142 l 1,533,-1
 276 142 l 1,530,-1
280 212 m 1,534,-1
 280 211 l 1,535,-1
 282 211 l 1,536,-1
 282 212 l 1,537,-1
 280 212 l 1,534,-1
278 420 m 1,538,-1
 280 410 l 1,539,-1
 282 410 l 1,540,-1
 282 420 l 1,541,-1
 278 420 l 1,538,-1
179 205 m 1,542,543
 176 195 176 195 188 181 c 1,544,-1
 185 179 l 1,545,-1
 189 168 l 1,546,-1
 183 168 l 1,547,548
 175 148 175 148 201 144 c 1,549,-1
 202 130 l 1,550,-1
 191 132 l 1,551,-1
 191 128 l 1,552,-1
 199 126 l 1,553,-1
 207 130 l 1,554,-1
 211 124 l 1,555,-1
 212 124 l 1,556,-1
 199 159 l 1,557,-1
 248 152 l 1,558,-1
 252 134 l 1,559,-1
 256 130 l 1,560,-1
 254 150 l 1,561,-1
 276 146 l 1,562,-1
 280 150 l 1,563,-1
 286 148 l 1,564,-1
 286 152 l 1,565,566
 278 150 278 150 276 158 c 1,567,-1
 278 159 l 1,568,-1
 276 172 l 1,569,-1
 282 175 l 1,570,-1
 282 178 l 1,571,-1
 272 175 l 1,572,-1
 264 166 l 1,573,-1
 266 152 l 1,574,-1
 254 153 l 1,575,-1
 250 156 l 1,576,577
 252 162 252 162 244 175 c 1,578,579
 244 167 244 167 234 166 c 1,580,-1
 234 162 l 1,581,582
 242 164 242 164 242 168 c 1,583,-1
 247 159 l 1,584,-1
 244 156 l 1,585,-1
 227 162 l 1,586,-1
 228 168 l 1,587,-1
 222 173 l 1,588,589
 226 179 226 179 215 201 c 1,590,-1
 211 201 l 1,591,-1
 212 181 l 1,592,-1
 211 179 l 1,593,-1
 207 185 l 1,594,-1
 197 195 l 1,595,-1
 189 197 l 1,596,597
 189 209 189 209 179 205 c 1,542,543
286 262 m 1,598,-1
 288 254 l 1,599,-1
 292 256 l 1,600,-1
 290 264 l 1,601,602
 298 264 298 264 292 274 c 1,603,-1
 288 272 l 1,604,605
 292 264 292 264 286 262 c 1,598,-1
293 101 m 1,606,-1
 293 98 l 1,607,-1
 299 98 l 1,608,-1
 298 102 l 1,609,-1
 293 101 l 1,606,-1
298 388 m 1,610,-1
 302 388 l 1,611,-1
 299 382 l 1,612,-1
 298 388 l 1,610,-1
303 372 m 1,613,-1
 303 370 l 1,614,-1
 305 370 l 1,615,-1
 305 372 l 1,616,-1
 303 372 l 1,613,-1
305 418 m 1,617,-1
 305 416 l 1,618,-1
 308 416 l 1,619,-1
 308 418 l 1,620,-1
 305 418 l 1,617,-1
309 345 m 1,621,-1
 312 339 l 1,622,-1
 313 339 l 1,623,-1
 312 345 l 1,624,-1
 309 345 l 1,621,-1
309 388 m 1,625,-1
 313 388 l 1,626,-1
 313 382 l 1,627,-1
 309 384 l 1,628,-1
 309 388 l 1,625,-1
272 240 m 1,629,-1
 276 231 l 1,630,-1
 282 232 l 1,631,-1
 293 227 l 1,632,633
 295 219 295 219 305 218 c 1,634,-1
 309 222 l 1,635,636
 313 214 313 214 319 221 c 1,637,-1
 315 232 l 1,638,-1
 318 234 l 1,639,-1
 309 248 l 1,640,-1
 313 256 l 1,641,-1
 309 256 l 1,642,-1
 308 276 l 1,643,-1
 303 274 l 1,644,-1
 305 268 l 1,645,-1
 303 270 l 1,646,-1
 298 266 l 1,647,-1
 299 248 l 1,648,-1
 305 254 l 1,649,-1
 302 247 l 1,650,-1
 305 242 l 1,651,-1
 302 238 l 1,652,653
 292 238 292 238 290 247 c 1,654,-1
 290 242 l 1,655,-1
 272 240 l 1,629,-1
319 408 m 1,656,-1
 319 406 l 1,657,-1
 321 406 l 1,658,-1
 321 408 l 1,659,-1
 319 408 l 1,656,-1
98 264 m 1,660,-1
 98 260 l 1,661,-1
 120 254 l 1,662,-1
 124 248 l 1,663,-1
 122 242 l 1,664,665
 130 240 130 240 130 234 c 1,666,-1
 134 234 l 1,667,-1
 132 252 l 1,668,-1
 146 248 l 1,669,-1
 144 256 l 1,670,671
 153 266 153 266 150 270 c 1,672,-1
 142 272 l 1,673,-1
 138 305 l 1,674,-1
 144 303 l 1,675,676
 142 292 142 292 150 288 c 1,677,-1
 148 280 l 1,678,-1
 153 280 l 1,679,-1
 152 296 l 1,680,-1
 156 296 l 1,681,-1
 152 299 l 1,682,-1
 153 303 l 1,683,-1
 162 293 l 1,684,-1
 156 274 l 1,685,-1
 158 272 l 1,686,-1
 166 276 l 1,687,688
 162 266 162 266 166 262 c 1,689,-1
 175 262 l 1,690,-1
 183 270 l 1,691,-1
 185 288 l 1,692,-1
 181 296 l 1,693,694
 197 298 197 298 205 290 c 1,695,696
 207 298 207 298 215 298 c 1,697,-1
 215 292 l 1,698,-1
 231 293 l 1,699,700
 231 281 231 281 240 283 c 1,701,-1
 238 288 l 1,702,-1
 242 288 l 1,703,-1
 240 280 l 1,704,-1
 244 278 l 1,705,-1
 244 266 l 1,706,707
 250 266 250 266 248 260 c 1,708,-1
 252 262 l 1,709,-1
 250 286 l 1,710,-1
 258 288 l 1,711,-1
 290 283 l 1,712,-1
 313 292 l 1,713,-1
 305 293 l 1,714,-1
 305 298 l 1,715,-1
 302 296 l 1,716,-1
 299 298 l 1,717,-1
 299 303 l 1,718,-1
 303 299 l 1,719,-1
 315 298 l 1,720,-1
 315 293 l 1,721,-1
 321 298 l 1,722,-1
 323 308 l 1,723,-1
 321 313 l 1,724,725
 312 305 312 305 299 313 c 1,726,727
 304 323 304 323 298 325 c 1,728,729
 296 348 296 348 303 348 c 1,730,731
 297 348 297 348 299 370 c 1,732,-1
 296 368 l 1,733,-1
 298 362 l 1,734,735
 298 348 298 348 290 348 c 1,736,-1
 296 345 l 1,737,-1
 293 342 l 1,738,-1
 296 318 l 1,739,-1
 290 309 l 1,740,-1
 293 308 l 1,741,-1
 293 290 l 1,742,-1
 274 293 l 1,743,-1
 274 312 l 1,744,-1
 268 319 l 1,745,-1
 272 327 l 1,746,-1
 268 339 l 1,747,748
 272 337 272 337 278 345 c 1,749,-1
 276 347 l 1,750,-1
 262 345 l 1,751,752
 266 333 266 333 262 327 c 1,753,-1
 254 329 l 1,754,-1
 256 335 l 1,755,-1
 250 335 l 1,756,-1
 247 329 l 1,757,-1
 242 333 l 1,758,-1
 248 333 l 1,759,-1
 250 335 l 1,760,-1
 248 352 l 1,761,-1
 234 337 l 1,762,-1
 228 312 l 1,763,-1
 232 302 l 1,764,-1
 222 298 l 1,765,-1
 217 299 l 1,766,-1
 217 312 l 1,767,-1
 211 312 l 1,768,-1
 212 305 l 1,769,-1
 211 303 l 1,770,-1
 205 308 l 1,771,-1
 199 302 l 1,772,-1
 202 293 l 1,773,774
 199 301 199 301 189 303 c 2,775,-1
 166 305 l 1,776,-1
 159 312 l 1,777,778
 151 308 151 308 136 313 c 1,779,-1
 136 319 l 1,780,-1
 132 321 l 1,781,-1
 128 319 l 1,782,-1
 130 327 l 1,783,784
 124 329 124 329 126 337 c 1,785,-1
 122 333 l 1,786,-1
 122 312 l 2,787,788
 120 304 120 304 108 309 c 1,789,-1
 116 278 l 1,790,-1
 104 280 l 1,791,-1
 107 268 l 1,792,793
 120 268 120 268 118 262 c 1,794,-1
 98 264 l 1,660,-1
319 416 m 1,795,-1
 319 410 l 1,796,-1
 323 410 l 1,797,-1
 325 416 l 1,798,-1
 323 420 l 1,799,-1
 319 416 l 1,795,-1
325 378 m 1,800,-1
 329 378 l 1,801,-1
 327 370 l 1,802,-1
 325 378 l 1,800,-1
319 339 m 1,803,-1
 319 331 l 1,804,-1
 323 331 l 1,805,-1
 327 337 l 1,806,-1
 327 327 l 1,807,-1
 331 327 l 1,808,809
 335 337 335 337 323 341 c 1,810,-1
 325 351 l 1,811,-1
 319 348 l 1,812,-1
 319 339 l 1,803,-1
331 352 m 1,813,-1
 331 351 l 1,814,-1
 333 351 l 1,815,-1
 333 352 l 1,816,-1
 331 352 l 1,813,-1
333 358 m 1,817,-1
 333 355 l 1,818,-1
 337 355 l 1,819,-1
 337 358 l 1,820,-1
 333 358 l 1,817,-1
321 222 m 1,821,-1
 321 218 l 1,822,823
 329 218 329 218 329 215 c 1,824,-1
 339 218 l 1,825,-1
 337 222 l 1,826,-1
 321 222 l 1,821,-1
337 341 m 1,827,-1
 337 337 l 1,828,-1
 341 337 l 1,829,-1
 341 341 l 1,830,-1
 337 341 l 1,827,-1
321 178 m 1,831,-1
 323 158 l 1,832,-1
 337 152 l 1,833,-1
 342 153 l 1,834,-1
 342 163 l 1,835,836
 333 166 333 166 329 158 c 1,837,-1
 325 166 l 1,838,839
 333 172 333 172 325 179 c 1,840,-1
 321 178 l 1,831,-1
345 352 m 1,841,-1
 345 351 l 1,842,-1
 347 351 l 1,843,-1
 347 352 l 1,844,-1
 345 352 l 1,841,-1
335 280 m 1,845,-1
 335 276 l 1,846,-1
 339 278 l 1,847,-1
 347 274 l 1,848,-1
 348 276 l 1,849,-1
 347 282 l 1,850,-1
 335 280 l 1,845,-1
342 398 m 1,851,-1
 342 396 l 1,852,-1
 351 398 l 1,853,-1
 351 402 l 1,854,-1
 342 398 l 1,851,-1
347 221 m 1,855,-1
 347 217 l 1,856,-1
 352 217 l 1,857,-1
 352 222 l 1,858,-1
 347 221 l 1,855,-1
352 367 m 1,859,-1
 352 362 l 1,860,-1
 355 362 l 1,861,-1
 355 367 l 1,862,-1
 352 367 l 1,859,-1
348 423 m 1,863,-1
 351 420 l 1,864,-1
 355 422 l 1,865,-1
 355 432 l 1,866,-1
 351 432 l 1,867,-1
 348 423 l 1,863,-1
355 104 m 1,868,-1
 355 102 l 1,869,-1
 357 102 l 1,870,-1
 357 104 l 1,871,-1
 355 104 l 1,868,-1
358 87 m 1,872,-1
 358 85 l 1,873,-1
 361 85 l 1,874,-1
 361 87 l 1,875,-1
 358 87 l 1,872,-1
355 315 m 1,876,-1
 355 312 l 1,877,-1
 361 313 l 1,878,-1
 358 319 l 1,879,-1
 355 315 l 1,876,-1
347 124 m 1,880,-1
 348 120 l 1,881,-1
 352 122 l 1,882,883
 350 112 350 112 357 110 c 1,884,-1
 357 120 l 1,885,-1
 358 118 l 1,886,-1
 364 120 l 1,887,888
 366 128 366 128 358 130 c 1,889,-1
 362 142 l 1,890,-1
 351 142 l 1,891,-1
 347 124 l 1,880,-1
361 193 m 1,892,-1
 362 188 l 1,893,-1
 364 188 l 1,894,-1
 364 193 l 1,895,-1
 361 193 l 1,892,-1
357 225 m 1,896,-1
 358 215 l 1,897,-1
 364 217 l 1,898,-1
 362 232 l 1,899,-1
 358 232 l 1,900,-1
 361 227 l 1,901,-1
 357 225 l 1,896,-1
362 372 m 1,902,-1
 362 370 l 1,903,-1
 364 370 l 1,904,-1
 364 372 l 1,905,-1
 362 372 l 1,902,-1
367 102 m 1,906,-1
 367 98 l 1,907,-1
 368 98 l 1,908,-1
 368 102 l 1,909,-1
 367 102 l 1,906,-1
361 313 m 1,910,-1
 361 312 l 1,911,-1
 368 313 l 1,912,-1
 367 318 l 1,913,-1
 361 313 l 1,910,-1
290 150 m 1,914,-1
 290 146 l 1,915,-1
 325 140 l 1,916,-1
 329 110 l 1,917,-1
 335 108 l 1,918,-1
 333 101 l 1,919,-1
 342 98 l 1,920,-1
 345 92 l 1,921,-1
 358 92 l 1,922,-1
 361 87 l 1,923,-1
 364 92 l 1,924,-1
 370 92 l 1,925,-1
 368 97 l 1,926,-1
 357 94 l 1,927,-1
 357 101 l 1,928,-1
 351 97 l 1,929,-1
 345 98 l 1,930,931
 348 120 348 120 342 126 c 1,932,-1
 335 124 l 1,933,-1
 337 132 l 1,934,-1
 339 130 l 1,935,-1
 347 134 l 1,936,-1
 347 142 l 1,937,-1
 341 148 l 1,938,-1
 318 146 l 1,939,-1
 315 175 l 1,940,-1
 309 179 l 1,941,-1
 308 173 l 1,942,943
 314 158 314 158 312 148 c 1,944,-1
 299 150 l 1,945,-1
 302 173 l 1,946,-1
 296 173 l 1,947,-1
 298 169 l 1,948,-1
 293 166 l 1,949,-1
 298 156 l 2,950,951
 298 148 298 148 290 150 c 1,914,-1
367 185 m 1,952,-1
 370 178 l 1,953,-1
 374 178 l 1,954,955
 370 184 370 184 374 188 c 1,956,-1
 367 185 l 1,952,-1
370 361 m 1,957,-1
 370 357 l 1,958,-1
 377 357 l 1,959,-1
 377 361 l 1,960,-1
 370 361 l 1,957,-1
374 75 m 1,961,-1
 374 67 l 1,962,-1
 378 67 l 1,963,-1
 378 75 l 1,964,-1
 374 75 l 1,961,-1
372 333 m 1,965,-1
 374 315 l 1,966,-1
 378 318 l 1,967,-1
 377 335 l 1,968,-1
 372 333 l 1,965,-1
377 63 m 1,969,-1
 377 59 l 1,970,-1
 380 59 l 1,971,-1
 380 63 l 1,972,-1
 377 63 l 1,969,-1
370 91 m 1,973,-1
 370 85 l 1,974,-1
 380 88 l 1,975,-1
 380 92 l 1,976,-1
 370 91 l 1,973,-1
168 543 m 1,977,-1
 168 540 l 1,978,-1
 193 536 l 1,979,-1
 191 522 l 1,980,-1
 195 522 l 1,981,-1
 193 512 l 1,982,-1
 197 512 l 1,983,984
 194 508 194 508 202 502 c 1,985,-1
 205 487 l 1,986,-1
 212 481 l 1,987,-1
 215 471 l 1,988,989
 223 473 223 473 225 465 c 1,990,-1
 231 467 l 1,991,-1
 242 459 l 1,992,-1
 247 451 l 1,993,-1
 252 453 l 1,994,-1
 254 449 l 1,995,-1
 278 445 l 1,996,-1
 282 439 l 1,997,-1
 283 443 l 1,998,999
 296 446 296 446 298 438 c 1,1000,-1
 299 442 l 1,1001,1002
 347 442 347 442 380 467 c 1,1003,-1
 380 469 l 1,1004,-1
 347 461 l 1,1005,1006
 305 455 305 455 256 481 c 1,1007,-1
 250 488 l 1,1008,-1
 244 491 l 1,1009,1010
 238 504 238 504 222 510 c 1,1011,-1
 215 559 l 2,1012,1013
 213 572 213 572 221 602 c 1,1014,1015
 231 604 231 604 227 617 c 1,1016,1017
 239 621 239 621 237 628 c 1,1018,-1
 232 628 l 1,1019,-1
 211 595 l 1,1020,-1
 201 587 l 1,1021,-1
 202 579 l 1,1022,-1
 193 559 l 1,1023,-1
 195 556 l 1,1024,-1
 191 550 l 1,1025,-1
 193 542 l 1,1026,-1
 178 546 l 1,1027,-1
 168 543 l 1,977,-1
367 252 m 2,1028,-1
 368 248 l 1,1029,-1
 374 250 l 1,1030,-1
 372 242 l 1,1031,-1
 378 250 l 1,1032,-1
 382 250 l 1,1033,-1
 378 256 l 1,1034,1035
 367 258 367 258 367 252 c 2,1028,-1
352 280 m 1,1036,-1
 352 276 l 1,1037,-1
 358 276 l 1,1038,-1
 358 266 l 1,1039,-1
 364 268 l 1,1040,-1
 378 262 l 1,1041,-1
 382 266 l 1,1042,-1
 377 278 l 1,1043,-1
 370 276 l 1,1044,-1
 364 280 l 1,1045,-1
 362 278 l 1,1046,-1
 352 280 l 1,1036,-1
382 342 m 1,1047,-1
 384 339 l 1,1048,-1
 386 339 l 1,1049,-1
 386 342 l 1,1050,-1
 382 342 l 1,1047,-1
386 361 m 1,1051,-1
 386 357 l 1,1052,-1
 390 358 l 1,1053,-1
 390 361 l 1,1054,-1
 386 361 l 1,1051,-1
388 402 m 1,1055,-1
 388 400 l 1,1056,-1
 392 400 l 1,1057,-1
 392 402 l 1,1058,-1
 388 402 l 1,1055,-1
390 43 m 1,1059,-1
 390 38 l 1,1060,-1
 394 38 l 1,1061,-1
 394 43 l 1,1062,-1
 390 43 l 1,1059,-1
367 140 m 1,1063,-1
 368 130 l 1,1064,1065
 384 132 384 132 384 122 c 1,1066,-1
 377 116 l 1,1067,-1
 380 114 l 1,1068,-1
 378 102 l 1,1069,-1
 382 97 l 1,1070,1071
 391 95 391 95 396 101 c 1,1072,1073
 392 104 392 104 396 124 c 1,1074,-1
 390 136 l 1,1075,-1
 396 138 l 1,1076,1077
 400 160 400 160 386 162 c 2,1078,-1
 382 162 l 1,1079,-1
 378 136 l 1,1080,-1
 377 140 l 1,1081,-1
 367 140 l 1,1063,-1
384 172 m 1,1082,-1
 384 166 l 1,1083,-1
 392 162 l 1,1084,-1
 398 163 l 1,1085,-1
 390 173 l 1,1086,-1
 384 172 l 1,1082,-1
398 453 m 1,1087,-1
 398 449 l 1,1088,-1
 402 449 l 1,1089,-1
 402 453 l 1,1090,-1
 398 453 l 1,1087,-1
400 39 m 1,1091,-1
 402 33 l 1,1092,-1
 404 33 l 1,1093,-1
 404 39 l 1,1094,-1
 400 39 l 1,1091,-1
390 290 m 1,1095,-1
 392 282 l 1,1096,1097
 402 280 402 280 406 286 c 1,1098,-1
 400 296 l 1,1099,-1
 390 290 l 1,1095,-1
388 313 m 1,1100,-1
 392 302 l 1,1101,-1
 400 302 l 1,1102,-1
 400 298 l 1,1103,-1
 404 298 l 1,1104,-1
 412 315 l 1,1105,-1
 408 321 l 1,1106,-1
 410 335 l 1,1107,-1
 402 337 l 1,1108,-1
 404 339 l 1,1109,-1
 402 342 l 2,1110,1111
 400 344 400 344 394 337 c 1,1112,1113
 398 335 398 335 392 315 c 1,1114,-1
 388 313 l 1,1100,-1
410 75 m 1,1115,-1
 410 71 l 1,1116,-1
 413 71 l 1,1117,-1
 413 75 l 1,1118,-1
 410 75 l 1,1115,-1
398 352 m 1,1119,-1
 404 345 l 1,1120,-1
 408 345 l 1,1121,-1
 404 352 l 1,1122,-1
 406 351 l 1,1123,-1
 412 358 l 1,1124,-1
 416 358 l 1,1125,-1
 416 362 l 1,1126,-1
 406 361 l 1,1127,-1
 398 352 l 1,1119,-1
418 439 m 1,1128,-1
 418 435 l 1,1129,-1
 420 435 l 1,1130,-1
 420 439 l 1,1131,-1
 418 439 l 1,1128,-1
398 102 m 1,1132,-1
 400 92 l 1,1133,-1
 416 88 l 1,1134,-1
 423 92 l 1,1135,-1
 423 101 l 1,1136,-1
 420 101 l 1,1137,-1
 418 97 l 1,1138,1139
 414 114 414 114 398 102 c 1,1132,-1
422 412 m 1,1140,-1
 422 410 l 1,1141,-1
 423 410 l 1,1142,-1
 423 412 l 1,1143,-1
 422 412 l 1,1140,-1
428 33 m 1,1144,-1
 428 32 l 1,1145,-1
 429 32 l 1,1146,-1
 429 33 l 1,1147,-1
 428 33 l 1,1144,-1
412 38 m 1,1148,-1
 412 33 l 1,1149,-1
 418 32 l 1,1150,-1
 429 36 l 1,1151,-1
 426 39 l 1,1152,-1
 418 36 l 1,1153,-1
 412 38 l 1,1148,-1
404 144 m 1,1154,-1
 406 140 l 1,1155,-1
 422 138 l 1,1156,-1
 423 134 l 1,1157,-1
 429 136 l 1,1158,-1
 435 162 l 1,1159,-1
 432 169 l 1,1160,-1
 422 166 l 1,1161,-1
 418 168 l 1,1162,-1
 420 159 l 1,1163,1164
 404 159 404 159 404 144 c 1,1154,-1
435 63 m 1,1165,-1
 435 61 l 1,1166,-1
 438 61 l 1,1167,-1
 438 63 l 1,1168,-1
 435 63 l 1,1165,-1
433 140 m 1,1169,-1
 433 138 l 1,1170,-1
 438 138 l 1,1171,-1
 438 144 l 1,1172,-1
 433 140 l 1,1169,-1
433 270 m 1,1173,-1
 433 268 l 1,1174,-1
 438 268 l 1,1175,-1
 438 270 l 1,1176,-1
 433 270 l 1,1173,-1
439 144 m 1,1177,-1
 439 140 l 1,1178,-1
 442 140 l 1,1179,-1
 442 144 l 1,1180,-1
 439 144 l 1,1177,-1
442 221 m 1,1181,-1
 442 218 l 1,1182,-1
 445 218 l 1,1183,-1
 445 221 l 1,1184,-1
 442 221 l 1,1181,-1
443 413 m 1,1185,-1
 443 412 l 1,1186,-1
 445 412 l 1,1187,-1
 445 413 l 1,1188,-1
 443 413 l 1,1185,-1
445 29 m 1,1189,-1
 445 28 l 1,1190,-1
 448 28 l 1,1191,-1
 448 29 l 1,1192,-1
 445 29 l 1,1189,-1
402 128 m 1,1193,-1
 408 124 l 1,1194,1195
 402 114 402 114 413 110 c 1,1196,-1
 428 112 l 1,1197,-1
 428 110 l 1,1198,-1
 433 112 l 1,1199,-1
 438 122 l 1,1200,1201
 440 118 440 118 449 122 c 1,1202,-1
 448 128 l 1,1203,-1
 428 124 l 1,1204,-1
 423 128 l 1,1205,-1
 402 132 l 1,1206,-1
 402 128 l 1,1193,-1
448 144 m 1,1207,-1
 448 138 l 1,1208,-1
 449 138 l 1,1209,-1
 449 144 l 1,1210,-1
 448 144 l 1,1207,-1
439 378 m 1,1211,-1
 449 377 l 1,1212,-1
 449 372 l 1,1213,-1
 439 377 l 1,1214,-1
 439 378 l 1,1211,-1
426 72 m 2,1215,1216
 435 74 435 74 432 58 c 1,1217,-1
 435 63 l 1,1218,-1
 433 67 l 1,1219,-1
 439 67 l 1,1220,-1
 433 51 l 1,1221,-1
 435 48 l 1,1222,1223
 439 58 439 58 449 51 c 1,1224,-1
 455 58 l 1,1225,-1
 451 63 l 1,1226,-1
 448 58 l 1,1227,-1
 442 58 l 1,1228,1229
 448 64 448 64 445 69 c 2,1230,-1
 439 77 l 1,1231,-1
 429 77 l 1,1232,1233
 429 70 429 70 423 72 c 1,1234,-1
 426 72 l 2,1215,1216
451 729 m 1,1235,-1
 455 729 l 1,1236,-1
 455 725 l 1,1237,-1
 451 725 l 1,1238,-1
 451 729 l 1,1235,-1
455 144 m 1,1239,-1
 455 142 l 1,1240,-1
 457 142 l 1,1241,-1
 457 144 l 1,1242,-1
 455 144 l 1,1239,-1
448 318 m 1,1243,-1
 449 309 l 1,1244,-1
 457 309 l 1,1245,-1
 457 313 l 1,1246,-1
 451 318 l 1,1247,-1
 448 318 l 1,1243,-1
435 97 m 1,1248,-1
 438 91 l 1,1249,-1
 455 92 l 1,1250,-1
 455 87 l 1,1251,-1
 459 92 l 1,1252,-1
 448 102 l 1,1253,-1
 443 101 l 1,1254,-1
 445 97 l 1,1255,-1
 438 101 l 1,1256,-1
 435 97 l 1,1248,-1
428 288 m 1,1257,-1
 433 276 l 1,1258,1259
 444 280 444 280 448 276 c 1,1260,-1
 451 288 l 1,1261,-1
 457 286 l 1,1262,-1
 459 288 l 1,1263,1264
 455 294 455 294 449 293 c 1,1265,-1
 448 302 l 1,1266,-1
 429 302 l 1,1267,-1
 433 293 l 1,1268,-1
 432 288 l 1,1269,-1
 428 288 l 1,1257,-1
453 79 m 1,1270,-1
 453 75 l 1,1271,-1
 459 71 l 1,1272,-1
 463 72 l 1,1273,-1
 457 79 l 1,1274,-1
 453 79 l 1,1270,-1
461 325 m 1,1275,-1
 461 323 l 1,1276,-1
 463 323 l 1,1277,-1
 463 325 l 1,1278,-1
 461 325 l 1,1275,-1
461 400 m 1,1279,-1
 461 398 l 1,1280,-1
 463 398 l 1,1281,-1
 463 400 l 1,1282,-1
 461 400 l 1,1279,-1
455 28 m 1,1283,-1
 459 23 l 1,1284,-1
 469 26 l 1,1285,-1
 467 29 l 1,1286,-1
 455 28 l 1,1283,-1
463 288 m 1,1287,-1
 463 283 l 1,1288,-1
 469 286 l 1,1289,-1
 469 288 l 1,1290,-1
 463 288 l 1,1287,-1
465 745 m 1,1291,-1
 471 745 l 1,1292,-1
 471 741 l 1,1293,-1
 465 741 l 1,1294,-1
 465 745 l 1,1291,-1
471 136 m 1,1295,-1
 471 134 l 1,1296,-1
 472 134 l 1,1297,-1
 472 136 l 1,1298,-1
 471 136 l 1,1295,-1
472 61 m 1,1299,-1
 472 58 l 1,1300,-1
 472 61 l 1,1299,-1
471 79 m 1,1301,-1
 471 77 l 1,1302,-1
 475 77 l 1,1303,-1
 475 79 l 1,1304,-1
 471 79 l 1,1301,-1
459 416 m 1,1305,-1
 463 408 l 1,1306,-1
 461 406 l 1,1307,-1
 465 392 l 1,1308,-1
 475 390 l 1,1309,-1
 472 386 l 1,1310,-1
 465 390 l 1,1311,-1
 459 388 l 1,1312,-1
 461 396 l 1,1313,-1
 455 398 l 1,1314,-1
 461 408 l 1,1315,-1
 457 412 l 1,1316,-1
 459 416 l 1,1305,-1
467 148 m 1,1317,-1
 478 146 l 1,1318,-1
 478 142 l 1,1319,-1
 467 144 l 1,1320,-1
 467 148 l 1,1317,-1
463 120 m 2,1321,1322
 459 112 459 112 478 108 c 1,1323,-1
 485 108 l 1,1324,-1
 481 118 l 1,1325,-1
 472 116 l 1,1326,-1
 469 126 l 1,1327,-1
 463 120 l 2,1321,1322
485 122 m 1,1328,-1
 485 118 l 1,1329,-1
 488 118 l 1,1330,-1
 488 124 l 1,1331,-1
 485 122 l 1,1328,-1
485 107 m 1,1332,-1
 485 104 l 1,1333,-1
 491 104 l 1,1334,-1
 491 108 l 1,1335,-1
 485 107 l 1,1332,-1
482 142 m 1,1336,-1
 487 150 l 1,1337,-1
 492 146 l 1,1338,1339
 494 136 494 136 488 134 c 2,1340,-1
 482 134 l 1,1341,-1
 487 144 l 1,1342,-1
 482 142 l 1,1336,-1
494 232 m 1,1343,-1
 494 228 l 1,1344,-1
 497 228 l 1,1345,-1
 497 232 l 1,1346,-1
 494 232 l 1,1343,-1
491 36 m 1,1347,-1
 498 36 l 1,1348,-1
 494 29 l 1,1349,-1
 491 32 l 1,1350,-1
 491 36 l 1,1347,-1
500 282 m 1,1351,-1
 500 280 l 1,1352,-1
 502 280 l 1,1353,-1
 502 282 l 1,1354,-1
 500 282 l 1,1351,-1
507 63 m 1,1355,-1
 507 59 l 1,1356,-1
 507 63 l 1,1355,-1
448 150 m 1,1357,-1
 448 148 l 1,1358,-1
 453 150 l 1,1359,-1
 465 140 l 1,1360,1361
 473 144 473 144 475 138 c 1,1362,-1
 472 132 l 1,1363,-1
 475 130 l 1,1364,1365
 477 134 477 134 494 128 c 1,1366,-1
 504 138 l 1,1367,1368
 498 148 498 148 508 152 c 1,1369,-1
 492 153 l 1,1370,-1
 491 158 l 1,1371,-1
 467 153 l 1,1372,1373
 456 168 456 168 448 150 c 1,1357,-1
510 63 m 1,1374,-1
 512 59 l 1,1375,-1
 510 63 l 1,1374,-1
522 65 m 1,1376,-1
 518 63 l 1,1377,-1
 522 65 l 1,1376,-1
520 288 m 1,1378,-1
 522 283 l 1,1379,-1
 520 288 l 1,1378,-1
514 754 m 1,1380,-1
 522 754 l 1,1381,-1
 520 747 l 1,1382,-1
 514 751 l 1,1383,-1
 514 754 l 1,1380,-1
522 183 m 1,1384,-1
 522 179 l 1,1385,-1
 524 179 l 1,1386,-1
 524 183 l 1,1387,-1
 522 183 l 1,1384,-1
528 721 m 1,1388,-1
 532 719 l 1,1389,-1
 528 718 l 1,1390,-1
 528 721 l 1,1388,-1
530 288 m 1,1391,-1
 534 286 l 1,1392,-1
 534 280 l 1,1393,-1
 528 280 l 1,1394,-1
 530 288 l 1,1391,-1
530 55 m 1,1395,-1
 530 53 l 1,1396,-1
 536 53 l 1,1397,-1
 536 55 l 1,1398,-1
 530 55 l 1,1395,-1
488 739 m 1,1399,-1
 502 735 l 1,1400,1401
 508 739 508 739 522 735 c 1,1402,1403
 524 742 524 742 534 742 c 1,1404,1405
 530 726 530 726 514 729 c 1,1406,-1
 518 723 l 1,1407,-1
 526 725 l 1,1408,-1
 524 719 l 1,1409,-1
 522 721 l 1,1410,-1
 514 718 l 1,1411,-1
 507 721 l 1,1412,-1
 500 718 l 1,1413,-1
 491 723 l 1,1414,1415
 489 719 489 719 471 723 c 1,1416,-1
 477 732 l 1,1417,1418
 486 730 486 730 488 739 c 1,1399,-1
536 58 m 1,1419,-1
 536 55 l 1,1420,-1
 540 55 l 1,1421,-1
 540 58 l 1,1422,-1
 536 58 l 1,1419,-1
536 696 m 1,1423,-1
 536 692 l 1,1424,-1
 540 692 l 1,1425,-1
 540 696 l 1,1426,-1
 536 696 l 1,1423,-1
534 173 m 1,1427,-1
 536 168 l 1,1428,-1
 540 168 l 1,1429,-1
 538 172 l 1,1430,-1
 546 172 l 1,1431,-1
 546 175 l 1,1432,-1
 534 173 l 1,1427,-1
548 325 m 1,1433,-1
 552 325 l 1,1434,-1
 546 313 l 1,1435,-1
 548 325 l 1,1433,-1
546 739 m 1,1436,-1
 552 737 l 1,1437,-1
 542 725 l 1,1438,-1
 538 725 l 1,1439,-1
 546 739 l 1,1436,-1
552 148 m 1,1440,-1
 552 144 l 1,1441,-1
 553 144 l 1,1442,-1
 553 148 l 1,1443,-1
 552 148 l 1,1440,-1
520 713 m 1,1444,-1
 532 711 l 1,1445,-1
 540 703 l 1,1446,1447
 552 703 552 703 556 696 c 1,1448,-1
 546 683 l 1,1449,-1
 526 689 l 1,1450,-1
 528 696 l 1,1451,-1
 516 698 l 1,1452,-1
 520 713 l 1,1444,-1
552 725 m 1,1453,-1
 556 719 l 1,1454,-1
 556 709 l 1,1455,-1
 548 715 l 1,1456,-1
 552 725 l 1,1453,-1
543 274 m 1,1457,-1
 553 268 l 1,1458,-1
 559 268 l 2,1459,1460
 561 270 561 270 553 276 c 1,1461,-1
 543 274 l 1,1457,-1
556 283 m 1,1462,-1
 556 282 l 1,1463,-1
 559 282 l 1,1464,-1
 559 283 l 1,1465,-1
 556 283 l 1,1462,-1
534 612 m 1,1466,1467
 552 614 552 614 559 608 c 1,1468,-1
 558 605 l 1,1469,-1
 548 608 l 1,1470,-1
 536 605 l 1,1471,-1
 532 607 l 1,1472,-1
 534 612 l 1,1466,1467
562 662 m 1,1473,-1
 562 658 l 1,1474,-1
 563 658 l 1,1475,-1
 563 662 l 1,1476,-1
 562 662 l 1,1473,-1
556 758 m 1,1477,1478
 568 760 568 760 569 754 c 1,1479,-1
 568 751 l 1,1480,-1
 556 754 l 1,1481,-1
 556 758 l 1,1477,1478
572 731 m 1,1482,-1
 575 731 l 1,1483,-1
 575 725 l 1,1484,-1
 569 725 l 1,1485,-1
 572 731 l 1,1482,-1
575 605 m 1,1486,-1
 581 605 l 1,1487,-1
 581 601 l 1,1488,-1
 575 601 l 1,1489,-1
 575 605 l 1,1486,-1
575 242 m 1,1490,-1
 583 238 l 1,1491,-1
 575 238 l 1,1492,-1
 575 242 l 1,1490,-1
550 668 m 2,1493,1494
 558 675 558 675 579 654 c 1,1495,-1
 578 644 l 1,1496,-1
 587 640 l 1,1497,-1
 585 637 l 1,1498,-1
 579 637 l 1,1499,1500
 571 643 571 643 572 650 c 1,1501,1502
 570 640 570 640 558 646 c 1,1503,1504
 544 658 544 658 546 662 c 2,1505,-1
 550 668 l 2,1493,1494
587 748 m 1,1506,-1
 587 747 l 1,1507,-1
 589 747 l 1,1508,-1
 589 748 l 1,1509,-1
 587 748 l 1,1506,-1
587 530 m 1,1510,-1
 591 530 l 1,1511,-1
 591 526 l 1,1512,-1
 587 526 l 1,1513,-1
 587 530 l 1,1510,-1
593 258 m 1,1514,-1
 593 256 l 1,1515,-1
 595 256 l 1,1516,-1
 595 258 l 1,1517,-1
 593 258 l 1,1514,-1
579 624 m 1,1518,1519
 593 626 593 626 597 621 c 1,1520,-1
 593 608 l 1,1521,-1
 568 611 l 1,1522,-1
 573 612 l 1,1523,-1
 579 624 l 1,1518,1519
589 634 m 1,1524,-1
 597 634 l 1,1525,-1
 597 628 l 1,1526,-1
 587 628 l 1,1527,-1
 589 634 l 1,1524,-1
595 222 m 1,1528,-1
 595 218 l 1,1529,-1
 599 218 l 1,1530,-1
 599 222 l 1,1531,-1
 595 222 l 1,1528,-1
599 488 m 1,1532,-1
 608 487 l 1,1533,-1
 608 482 l 1,1534,-1
 597 482 l 1,1535,-1
 599 488 l 1,1532,-1
615 634 m 1,1536,-1
 611 632 l 1,1537,-1
 615 634 l 1,1536,-1
612 272 m 1,1538,-1
 617 270 l 1,1539,-1
 615 262 l 1,1540,-1
 612 272 l 1,1538,-1
617 191 m 1,1541,-1
 622 189 l 1,1542,-1
 622 185 l 1,1543,-1
 617 188 l 1,1544,-1
 617 191 l 1,1541,-1
624 599 m 1,1545,-1
 624 595 l 1,1546,-1
 618 597 l 1,1547,-1
 624 599 l 1,1545,-1
624 272 m 1,1548,-1
 628 270 l 1,1549,-1
 624 264 l 1,1550,-1
 624 272 l 1,1548,-1
508 201 m 1,1551,-1
 508 197 l 1,1552,-1
 514 199 l 1,1553,-1
 516 191 l 1,1554,-1
 516 189 l 1,1555,-1
 520 191 l 1,1556,-1
 518 195 l 1,1557,1558
 528 193 528 193 528 189 c 1,1559,-1
 536 189 l 1,1560,-1
 530 183 l 1,1561,-1
 532 181 l 1,1562,-1
 542 183 l 1,1563,-1
 553 169 l 1,1564,-1
 550 163 l 1,1565,-1
 552 159 l 1,1566,1567
 526 157 526 157 524 163 c 1,1568,-1
 514 158 l 1,1569,-1
 516 152 l 1,1570,1571
 536 156 536 156 563 152 c 1,1572,-1
 559 144 l 1,1573,-1
 569 144 l 1,1574,1575
 567 152 567 152 583 152 c 1,1576,1577
 583 156 583 156 573 156 c 1,1578,-1
 579 162 l 1,1579,-1
 579 166 l 1,1580,1581
 602 166 602 166 608 158 c 1,1582,-1
 612 163 l 1,1583,-1
 617 163 l 1,1584,-1
 612 173 l 1,1585,-1
 638 185 l 1,1586,-1
 638 189 l 1,1587,-1
 627 191 l 1,1588,-1
 627 195 l 1,1589,1590
 615 197 615 197 608 191 c 1,1591,-1
 611 188 l 1,1592,-1
 602 181 l 1,1593,-1
 597 181 l 1,1594,-1
 602 189 l 1,1595,1596
 584 192 584 192 573 178 c 1,1597,-1
 572 181 l 2,1598,1599
 566 189 566 189 558 181 c 1,1600,-1
 550 191 l 1,1601,-1
 540 188 l 1,1602,-1
 543 197 l 1,1603,-1
 524 205 l 1,1604,1605
 518 199 518 199 507 201 c 1,1606,-1
 508 201 l 1,1551,-1
608 534 m 1,1607,1608
 615 526 615 526 627 534 c 1,1609,-1
 638 530 l 1,1610,-1
 621 524 l 1,1611,-1
 607 528 l 1,1612,-1
 602 526 l 1,1613,-1
 608 534 l 1,1607,1608
638 282 m 1,1614,-1
 638 280 l 1,1615,-1
 640 280 l 1,1616,-1
 640 282 l 1,1617,-1
 638 282 l 1,1614,-1
632 599 m 1,1618,-1
 642 597 l 1,1619,-1
 642 593 l 1,1620,-1
 632 593 l 1,1621,-1
 632 599 l 1,1618,-1
612 622 m 1,1622,1623
 624 616 624 616 627 627 c 1,1624,-1
 628 621 l 1,1625,-1
 642 617 l 1,1626,-1
 640 611 l 1,1627,-1
 632 615 l 1,1628,-1
 621 612 l 1,1629,-1
 611 618 l 1,1630,-1
 612 622 l 1,1622,1623
644 205 m 1,1631,-1
 644 202 l 1,1632,-1
 646 202 l 1,1633,-1
 646 205 l 1,1634,-1
 644 205 l 1,1631,-1
648 195 m 1,1635,-1
 648 191 l 1,1636,-1
 650 191 l 1,1637,-1
 650 195 l 1,1638,-1
 648 195 l 1,1635,-1
648 205 m 1,1639,-1
 648 202 l 1,1640,-1
 650 202 l 1,1641,-1
 650 205 l 1,1642,-1
 648 205 l 1,1639,-1
648 617 m 1,1643,-1
 652 617 l 1,1644,-1
 652 612 l 1,1645,-1
 648 612 l 1,1646,-1
 648 617 l 1,1643,-1
581 202 m 1,1647,-1
 589 199 l 1,1648,1649
 605 202 605 202 608 197 c 1,1650,-1
 617 199 l 1,1651,-1
 615 205 l 1,1652,-1
 634 212 l 1,1653,-1
 640 212 l 1,1654,-1
 640 207 l 1,1655,-1
 644 207 l 1,1656,-1
 642 211 l 1,1657,-1
 654 217 l 1,1658,-1
 646 221 l 1,1659,-1
 646 227 l 1,1660,-1
 627 225 l 1,1661,-1
 624 221 l 1,1662,1663
 602 223 602 223 605 207 c 1,1664,-1
 591 209 l 1,1665,-1
 581 202 l 1,1647,-1
654 595 m 1,1666,-1
 658 595 l 1,1667,-1
 658 591 l 1,1668,-1
 654 591 l 1,1669,-1
 654 595 l 1,1666,-1
650 631 m 1,1670,-1
 660 627 l 1,1671,-1
 658 621 l 1,1672,-1
 642 622 l 1,1673,-1
 650 631 l 1,1670,-1
648 528 m 1,1674,-1
 668 526 l 1,1675,-1
 664 522 l 1,1676,-1
 646 522 l 1,1677,-1
 648 528 l 1,1674,-1
650 207 m 1,1678,-1
 654 199 l 1,1679,-1
 670 205 l 1,1680,-1
 670 209 l 1,1681,-1
 658 207 l 1,1682,-1
 658 211 l 1,1683,1684
 652 213 652 213 650 207 c 1,1678,-1
672 296 m 1,1685,-1
 674 292 l 1,1686,-1
 672 296 l 1,1685,-1
674 491 m 1,1687,-1
 678 491 l 1,1688,-1
 678 487 l 1,1689,-1
 674 487 l 1,1690,-1
 674 491 l 1,1687,-1
674 508 m 1,1691,-1
 682 504 l 1,1692,-1
 674 502 l 1,1693,-1
 674 508 l 1,1691,-1
683 221 m 1,1694,-1
 683 218 l 1,1695,-1
 688 218 l 1,1696,-1
 688 221 l 1,1697,-1
 683 221 l 1,1694,-1
672 593 m 1,1698,-1
 688 589 l 1,1699,-1
 688 585 l 1,1700,-1
 670 589 l 1,1701,-1
 672 593 l 1,1698,-1
668 237 m 1,1702,-1
 670 232 l 1,1703,-1
 680 231 l 1,1704,-1
 689 231 l 1,1705,-1
 689 237 l 1,1706,-1
 680 234 l 1,1707,-1
 676 238 l 1,1708,-1
 668 237 l 1,1702,-1
688 266 m 1,1709,-1
 689 262 l 1,1710,-1
 688 266 l 1,1709,-1
696 472 m 1,1711,-1
 696 469 l 1,1712,-1
 688 471 l 1,1713,-1
 696 472 l 1,1711,-1
698 443 m 1,1714,-1
 699 439 l 1,1715,-1
 696 439 l 1,1716,-1
 698 443 l 1,1714,-1
689 508 m 1,1717,-1
 699 504 l 1,1718,-1
 705 507 l 1,1719,-1
 705 502 l 1,1720,1721
 689 506 689 506 683 502 c 1,1722,-1
 689 508 l 1,1717,-1
693 325 m 1,1723,-1
 696 318 l 1,1724,-1
 699 319 l 1,1725,-1
 699 318 l 1,1726,-1
 703 321 l 1,1727,-1
 708 319 l 1,1728,-1
 699 303 l 1,1729,-1
 686 303 l 1,1730,1731
 682 310 682 310 676 308 c 1,1732,1733
 683 310 683 310 693 325 c 1,1723,-1
698 589 m 1,1734,-1
 709 587 l 1,1735,-1
 708 581 l 1,1736,1737
 698 585 698 585 696 581 c 1,1738,-1
 698 589 l 1,1734,-1
703 244 m 1,1739,-1
 703 238 l 1,1740,-1
 711 238 l 1,1741,-1
 709 244 l 1,1742,-1
 703 244 l 1,1739,-1
686 412 m 1,1743,-1
 711 408 l 1,1744,-1
 708 402 l 1,1745,-1
 683 406 l 1,1746,-1
 686 412 l 1,1743,-1
699 232 m 1,1747,-1
 699 227 l 1,1748,-1
 713 228 l 1,1749,-1
 713 232 l 1,1750,-1
 699 232 l 1,1747,-1
702 453 m 1,1751,-1
 715 451 l 1,1752,-1
 715 448 l 1,1753,-1
 702 449 l 1,1754,-1
 702 453 l 1,1751,-1
713 461 m 1,1755,-1
 718 461 l 1,1756,-1
 718 457 l 1,1757,-1
 713 457 l 1,1758,-1
 713 461 l 1,1755,-1
693 497 m 1,1759,-1
 705 494 l 1,1760,1761
 703 486 703 486 709 485 c 2,1762,-1
 718 481 l 1,1763,-1
 693 478 l 1,1764,1765
 693 485 693 485 686 485 c 1,1766,-1
 693 497 l 1,1759,-1
719 579 m 1,1767,-1
 719 575 l 1,1768,-1
 723 575 l 1,1769,-1
 723 579 l 1,1770,-1
 719 579 l 1,1767,-1
725 234 m 1,1771,-1
 725 231 l 1,1772,-1
 731 231 l 1,1773,-1
 731 234 l 1,1774,-1
 725 234 l 1,1771,-1
737 507 m 1,1775,-1
 737 504 l 1,1776,-1
 739 504 l 1,1777,-1
 739 507 l 1,1778,-1
 737 507 l 1,1775,-1
741 510 m 1,1779,-1
 741 507 l 1,1780,-1
 748 507 l 1,1781,-1
 748 510 l 1,1782,-1
 741 510 l 1,1779,-1
742 262 m 1,1783,-1
 745 258 l 1,1784,1785
 751 261 751 261 768 256 c 1,1786,-1
 762 262 l 1,1787,-1
 742 262 l 1,1783,-1
732 274 m 1,1788,-1
 732 270 l 1,1789,-1
 739 272 l 1,1790,-1
 742 268 l 1,1791,-1
 754 270 l 1,1792,1793
 764 262 764 262 770 268 c 1,1794,-1
 768 272 l 1,1795,1796
 756 270 756 270 752 278 c 1,1797,-1
 732 274 l 1,1788,-1
772 283 m 1,1798,-1
 762 283 l 1,1799,-1
 772 283 l 1,1798,-1
774 321 m 1,1800,-1
 774 318 l 1,1801,-1
 770 319 l 1,1802,-1
 774 321 l 1,1800,-1
808 433 m 1,1803,-1
 810 429 l 1,1804,-1
 808 433 l 1,1803,-1
394 802 m 0,1805,1806
 447 806 447 806 481 798 c 1,1807,1808
 483 784 483 784 557 768 c 1,1809,1810
 609 741 609 741 637 709 c 1,1811,1812
 630 689 630 689 613 677 c 1,1813,-1
 669 660 l 1,1814,-1
 672 652 l 1,1815,1816
 678 654 678 654 692 637 c 1,1817,-1
 693 624 l 1,1818,1819
 707 612 707 612 705 605 c 1,1820,1821
 721 589 721 589 731 581 c 1,1822,-1
 731 575 l 1,1823,-1
 711 569 l 1,1824,-1
 715 552 l 1,1825,1826
 744 550 744 550 742 530 c 1,1827,1828
 720 528 720 528 718 534 c 1,1829,-1
 725 518 l 1,1830,-1
 735 512 l 1,1831,-1
 735 508 l 1,1832,1833
 739 520 739 520 758 512 c 1,1834,-1
 754 500 l 1,1835,-1
 770 492 l 1,1836,1837
 770 482 770 482 762 481 c 1,1838,-1
 774 477 l 1,1839,-1
 770 457 l 1,1840,1841
 782 450 782 450 802 448 c 1,1842,-1
 800 433 l 1,1843,-1
 812 448 l 1,1844,-1
 822 428 l 1,1845,-1
 822 416 l 1,1846,1847
 816 438 816 438 810 438 c 2,1848,-1
 806 438 l 1,1849,1850
 804 424 804 424 790 426 c 1,1851,-1
 782 435 l 1,1852,1853
 791 435 791 435 796 443 c 1,1854,-1
 770 445 l 1,1855,-1
 758 463 l 1,1856,-1
 767 472 l 1,1857,-1
 752 475 l 1,1858,-1
 754 482 l 1,1859,-1
 752 488 l 1,1860,1861
 756 485 756 485 762 488 c 1,1862,-1
 761 494 l 1,1863,-1
 735 497 l 1,1864,-1
 727 502 l 1,1865,-1
 729 504 l 1,1866,1867
 732 510 732 510 718 512 c 1,1868,1869
 724 524 724 524 711 526 c 1,1870,1871
 715 534 715 534 711 536 c 2,1872,-1
 668 540 l 1,1873,-1
 662 546 l 1,1874,-1
 735 536 l 1,1875,-1
 737 538 l 1,1876,-1
 735 546 l 1,1877,-1
 719 543 l 1,1878,-1
 696 550 l 1,1879,-1
 696 553 l 1,1880,1881
 705 550 705 550 709 553 c 1,1882,-1
 709 559 l 1,1883,-1
 703 559 l 1,1884,-1
 703 568 l 1,1885,1886
 691 570 691 570 696 579 c 1,1887,-1
 715 578 l 1,1888,-1
 715 599 l 1,1889,1890
 705 589 705 589 702 593 c 1,1891,-1
 703 601 l 1,1892,-1
 693 615 l 1,1893,-1
 689 615 l 1,1894,-1
 686 602 l 1,1895,-1
 678 615 l 1,1896,-1
 666 612 l 1,1897,-1
 666 617 l 1,1898,-1
 668 615 l 1,1899,-1
 672 617 l 1,1900,-1
 668 624 l 1,1901,1902
 680 621 680 621 683 624 c 1,1903,-1
 683 628 l 1,1904,-1
 678 628 l 1,1905,-1
 682 637 l 1,1906,-1
 678 642 l 1,1907,-1
 664 646 l 1,1908,1909
 660 654 660 654 666 662 c 1,1910,-1
 658 666 l 1,1911,-1
 648 660 l 1,1912,-1
 640 666 l 1,1913,-1
 631 666 l 1,1914,-1
 628 672 l 1,1915,1916
 615 670 615 670 599 678 c 1,1917,-1
 599 682 l 1,1918,-1
 608 680 l 1,1919,-1
 627 692 l 1,1920,-1
 627 699 l 1,1921,-1
 631 702 l 1,1922,-1
 627 715 l 1,1923,-1
 615 735 l 1,1924,-1
 611 735 l 1,1925,-1
 612 725 l 1,1926,-1
 601 725 l 1,1927,-1
 599 735 l 1,1928,-1
 583 745 l 1,1929,-1
 581 752 l 1,1930,1931
 573 760 573 760 563 762 c 0,1932,1933
 555 760 555 760 524 776 c 1,1934,1935
 472 784 472 784 475 794 c 1,1936,-1
 384 796 l 1,1937,1938
 282 783 282 783 215 737 c 1,1939,-1
 215 727 l 1,1940,-1
 222 723 l 1,1941,-1
 218 715 l 1,1942,1943
 226 714 226 714 227 708 c 1,1944,-1
 231 709 l 1,1945,-1
 228 702 l 1,1946,-1
 237 699 l 1,1947,-1
 232 686 l 1,1948,-1
 237 683 l 1,1949,-1
 234 674 l 1,1950,-1
 247 680 l 1,1951,-1
 252 676 l 1,1952,-1
 248 658 l 1,1953,-1
 258 666 l 1,1954,1955
 256 678 256 678 270 676 c 1,1956,-1
 264 666 l 1,1957,1958
 272 664 272 664 264 648 c 1,1959,-1
 309 666 l 1,1960,1961
 362 674 362 674 398 648 c 0,1962,1963
 423 632 423 632 435 591 c 1,1964,1965
 437 540 437 540 432 530 c 2,1966,-1
 410 492 l 1,1967,-1
 390 471 l 1,1968,-1
 398 469 l 1,1969,-1
 392 461 l 1,1970,-1
 398 455 l 1,1971,-1
 402 457 l 1,1972,1973
 402 469 402 469 408 467 c 1,1974,-1
 408 461 l 1,1975,1976
 414 459 414 459 412 451 c 1,1977,-1
 416 455 l 1,1978,-1
 418 467 l 1,1979,-1
 420 465 l 1,1980,-1
 423 469 l 1,1981,-1
 423 463 l 1,1982,-1
 428 465 l 1,1983,-1
 426 459 l 1,1984,-1
 429 457 l 1,1985,1986
 426 442 426 442 429 435 c 1,1987,-1
 435 433 l 1,1988,1989
 432 431 432 431 438 420 c 1,1990,-1
 442 420 l 1,1991,-1
 439 433 l 1,1992,-1
 445 445 l 1,1993,-1
 443 448 l 1,1994,-1
 449 445 l 1,1995,-1
 445 443 l 1,1996,-1
 445 435 l 1,1997,-1
 451 426 l 1,1998,-1
 448 418 l 1,1999,-1
 453 418 l 1,2000,-1
 449 396 l 1,2001,-1
 453 388 l 1,2002,-1
 448 384 l 1,2003,2004
 436 388 436 388 433 384 c 1,2005,-1
 428 390 l 1,2006,-1
 423 386 l 1,2007,-1
 416 390 l 1,2008,-1
 388 394 l 1,2009,2010
 384 386 384 386 372 392 c 1,2011,-1
 367 390 l 1,2012,-1
 367 384 l 1,2013,2014
 357 388 357 388 355 384 c 1,2015,2016
 364 386 364 386 367 394 c 1,2017,-1
 358 402 l 1,2018,-1
 345 390 l 1,2019,-1
 337 396 l 1,2020,2021
 331 392 331 392 323 396 c 1,2022,-1
 325 408 l 1,2023,-1
 319 398 l 1,2024,-1
 312 394 l 1,2025,2026
 300 398 300 398 298 394 c 1,2027,-1
 299 400 l 1,2028,-1
 298 402 l 1,2029,-1
 292 400 l 1,2030,-1
 288 404 l 1,2031,-1
 272 402 l 1,2032,-1
 268 408 l 1,2033,2034
 266 402 266 402 258 404 c 1,2035,-1
 252 412 l 1,2036,-1
 250 406 l 1,2037,-1
 248 408 l 1,2038,-1
 237 406 l 1,2039,-1
 242 412 l 1,2040,-1
 242 413 l 1,2041,-1
 232 413 l 1,2042,-1
 231 410 l 1,2043,-1
 228 412 l 1,2044,2045
 220 404 220 404 211 412 c 1,2046,2047
 215 426 215 426 211 429 c 1,2048,-1
 215 443 l 1,2049,-1
 212 449 l 1,2050,-1
 205 449 l 1,2051,-1
 209 438 l 1,2052,2053
 212 412 212 412 201 410 c 1,2054,-1
 188 413 l 1,2055,-1
 185 410 l 1,2056,-1
 169 406 l 1,2057,-1
 166 412 l 1,2058,-1
 169 432 l 1,2059,-1
 166 433 l 1,2060,-1
 168 439 l 1,2061,-1
 153 432 l 1,2062,2063
 153 426 153 426 162 423 c 1,2064,-1
 156 410 l 1,2065,-1
 124 418 l 1,2066,-1
 112 416 l 1,2067,2068
 114 426 114 426 108 428 c 2,2069,-1
 102 426 l 1,2070,-1
 98 418 l 1,2071,-1
 94 420 l 1,2072,-1
 97 439 l 1,2073,-1
 88 438 l 1,2074,2075
 90 422 90 422 82 422 c 2,2076,-1
 36 429 l 1,2077,-1
 33 428 l 1,2078,-1
 36 418 l 1,2079,-1
 43 422 l 1,2080,-1
 49 416 l 1,2081,-1
 55 418 l 1,2082,-1
 59 413 l 1,2083,-1
 112 408 l 1,2084,-1
 118 410 l 1,2085,-1
 132 404 l 1,2086,2087
 136 407 136 407 158 402 c 1,2088,-1
 158 398 l 1,2089,2090
 125 401 125 401 114 398 c 1,2091,-1
 116 392 l 1,2092,-1
 132 390 l 1,2093,-1
 138 392 l 1,2094,-1
 150 384 l 1,2095,-1
 173 386 l 1,2096,-1
 178 382 l 1,2097,-1
 197 384 l 1,2098,2099
 195 370 195 370 205 372 c 1,2100,-1
 202 377 l 1,2101,-1
 205 378 l 1,2102,-1
 212 370 l 1,2103,-1
 222 372 l 1,2104,2105
 224 364 224 364 237 370 c 1,2106,-1
 232 378 l 1,2107,-1
 227 374 l 1,2108,-1
 227 382 l 1,2109,2110
 233 378 233 378 247 384 c 1,2111,2112
 255 382 255 382 254 372 c 0,2113,2114
 256 366 256 366 240 361 c 1,2115,-1
 238 357 l 1,2116,-1
 240 355 l 1,2117,-1
 247 355 l 1,2118,-1
 244 362 l 1,2119,-1
 258 361 l 1,2120,2121
 254 370 254 370 258 374 c 1,2122,-1
 276 367 l 1,2123,2124
 272 382 272 382 283 382 c 2,2125,-1
 296 380 l 1,2126,-1
 293 378 l 1,2127,-1
 296 374 l 1,2128,2129
 302 372 302 372 303 378 c 1,2130,-1
 313 374 l 1,2131,-1
 315 377 l 1,2132,-1
 313 380 l 1,2133,-1
 327 362 l 1,2134,2135
 334 382 334 382 345 380 c 1,2136,-1
 357 372 l 1,2137,-1
 362 377 l 1,2138,-1
 370 374 l 1,2139,-1
 377 368 l 1,2140,-1
 394 370 l 1,2141,-1
 402 367 l 1,2142,-1
 433 368 l 1,2143,-1
 451 362 l 1,2144,-1
 448 323 l 1,2145,-1
 449 321 l 1,2146,-1
 453 321 l 1,2147,-1
 457 362 l 1,2148,2149
 478 366 478 366 482 361 c 1,2150,-1
 482 355 l 1,2151,-1
 475 351 l 1,2152,-1
 475 347 l 1,2153,-1
 481 347 l 1,2154,-1
 477 321 l 1,2155,-1
 485 313 l 1,2156,-1
 492 313 l 1,2157,-1
 494 321 l 1,2158,-1
 500 321 l 1,2159,2160
 500 313 500 313 510 303 c 1,2161,-1
 508 292 l 1,2162,-1
 512 290 l 1,2163,2164
 508 270 508 270 512 268 c 2,2165,-1
 530 268 l 1,2166,-1
 534 260 l 1,2167,-1
 540 262 l 1,2168,-1
 538 266 l 1,2169,-1
 542 274 l 1,2170,-1
 540 293 l 1,2171,-1
 548 290 l 1,2172,2173
 550 296 550 296 553 293 c 1,2174,-1
 552 292 l 1,2175,-1
 558 286 l 1,2176,-1
 562 288 l 1,2177,-1
 568 280 l 1,2178,-1
 568 288 l 1,2179,-1
 579 288 l 1,2180,-1
 578 268 l 1,2181,2182
 587 271 587 271 585 286 c 1,2183,2184
 595 288 595 288 597 280 c 1,2185,-1
 611 278 l 1,2186,2187
 609 253 609 253 605 250 c 2,2188,-1
 569 247 l 1,2189,2190
 563 243 563 243 565 237 c 1,2191,-1
 562 237 l 1,2192,-1
 546 221 l 1,2193,-1
 530 221 l 1,2194,-1
 526 225 l 1,2195,-1
 538 227 l 1,2196,-1
 532 232 l 1,2197,-1
 518 231 l 1,2198,-1
 518 227 l 1,2199,-1
 524 225 l 1,2200,-1
 522 221 l 1,2201,-1
 520 222 l 1,2202,-1
 508 218 l 1,2203,-1
 504 221 l 1,2204,-1
 507 222 l 1,2205,-1
 504 228 l 1,2206,-1
 500 228 l 1,2207,-1
 500 225 l 1,2208,-1
 485 222 l 1,2209,-1
 487 218 l 1,2210,2211
 498 222 498 222 502 218 c 1,2212,2213
 490 218 490 218 492 209 c 1,2214,-1
 508 211 l 1,2215,-1
 518 207 l 1,2216,2217
 520 211 520 211 536 207 c 1,2218,-1
 534 211 l 1,2219,-1
 524 215 l 1,2220,-1
 536 218 l 1,2221,-1
 538 217 l 1,2222,-1
 579 218 l 1,2223,-1
 583 227 l 1,2224,2225
 586 223 586 223 597 227 c 1,2226,-1
 605 234 l 1,2227,-1
 602 228 l 1,2228,2229
 610 228 610 228 611 225 c 1,2230,-1
 617 227 l 1,2231,-1
 615 234 l 1,2232,-1
 617 232 l 1,2233,-1
 627 234 l 1,2234,-1
 632 228 l 1,2235,-1
 650 231 l 1,2236,-1
 660 222 l 1,2237,-1
 666 228 l 1,2238,2239
 666 238 666 238 656 240 c 1,2240,2241
 668 242 668 242 666 248 c 1,2242,2243
 652 248 652 248 642 240 c 1,2244,-1
 640 242 l 1,2245,-1
 621 237 l 1,2246,-1
 615 240 l 1,2247,-1
 615 247 l 1,2248,-1
 622 250 l 1,2249,-1
 621 254 l 1,2250,-1
 622 252 l 1,2251,-1
 640 256 l 1,2252,-1
 640 266 l 1,2253,-1
 632 266 l 1,2254,-1
 637 288 l 1,2255,-1
 644 296 l 1,2256,2257
 638 298 638 298 640 302 c 2,2258,-1
 648 305 l 1,2259,-1
 652 313 l 1,2260,-1
 662 305 l 1,2261,-1
 660 299 l 1,2262,-1
 648 296 l 1,2263,-1
 648 292 l 1,2264,-1
 658 292 l 1,2265,-1
 652 280 l 1,2266,-1
 658 283 l 1,2267,-1
 668 280 l 1,2268,-1
 670 282 l 1,2269,-1
 668 290 l 1,2270,-1
 678 280 l 1,2271,2272
 680 298 680 298 688 293 c 1,2273,-1
 688 286 l 1,2274,-1
 696 286 l 1,2275,-1
 702 293 l 1,2276,-1
 709 292 l 1,2277,-1
 693 276 l 1,2278,-1
 688 276 l 1,2279,-1
 682 270 l 1,2280,-1
 672 274 l 1,2281,-1
 662 274 l 1,2282,-1
 664 268 l 1,2283,-1
 652 270 l 1,2284,-1
 650 268 l 1,2285,-1
 658 262 l 1,2286,2287
 671 266 671 266 680 262 c 1,2288,-1
 683 266 l 1,2289,-1
 682 258 l 1,2290,-1
 705 258 l 1,2291,-1
 705 262 l 1,2292,-1
 698 268 l 1,2293,-1
 715 266 l 1,2294,-1
 718 268 l 1,2295,-1
 715 276 l 1,2296,-1
 719 276 l 1,2297,-1
 719 286 l 1,2298,2299
 712 288 712 288 718 299 c 1,2300,-1
 725 305 l 1,2301,-1
 725 309 l 1,2302,-1
 727 308 l 1,2303,-1
 732 309 l 1,2304,-1
 737 299 l 1,2305,-1
 758 296 l 1,2306,-1
 784 309 l 1,2307,2308
 776 319 776 319 784 323 c 1,2309,-1
 794 323 l 1,2310,-1
 790 309 l 1,2311,-1
 800 305 l 1,2312,-1
 806 308 l 1,2313,-1
 818 345 l 1,2314,-1
 804 286 l 1,2315,-1
 788 303 l 1,2316,2317
 786 285 786 285 754 292 c 1,2318,-1
 761 286 l 1,2319,-1
 742 292 l 1,2320,2321
 740 302 740 302 735 298 c 1,2322,-1
 735 288 l 1,2323,2324
 751 280 751 280 776 278 c 1,2325,2326
 774 253 774 253 770 250 c 2,2327,-1
 752 250 l 1,2328,-1
 745 256 l 1,2329,2330
 737 254 737 254 721 262 c 1,2331,-1
 718 258 l 1,2332,-1
 698 256 l 1,2333,-1
 737 244 l 1,2334,-1
 742 240 l 1,2335,-1
 741 232 l 1,2336,2337
 718 226 718 226 702 211 c 1,2338,-1
 699 217 l 1,2339,-1
 692 215 l 1,2340,-1
 693 209 l 1,2341,-1
 683 211 l 1,2342,-1
 674 193 l 1,2343,-1
 652 189 l 1,2344,2345
 654 177 654 177 646 172 c 2,2346,-1
 624 162 l 1,2347,2348
 621 140 621 140 589 156 c 1,2349,-1
 593 150 l 1,2350,2351
 605 144 605 144 601 136 c 1,2352,2353
 589 132 589 132 591 124 c 1,2354,-1
 617 126 l 1,2355,-1
 615 112 l 1,2356,2357
 613 118 613 118 565 116 c 1,2358,-1
 568 122 l 1,2359,-1
 581 120 l 1,2360,-1
 581 124 l 1,2361,-1
 572 124 l 1,2362,-1
 589 134 l 1,2363,-1
 593 140 l 1,2364,-1
 581 140 l 1,2365,2366
 579 134 579 134 572 136 c 1,2367,-1
 565 142 l 1,2368,-1
 558 138 l 1,2369,-1
 563 132 l 1,2370,2371
 544 134 544 134 538 126 c 1,2372,-1
 514 130 l 1,2373,2374
 516 122 516 122 520 122 c 2,2375,-1
 543 122 l 1,2376,-1
 548 112 l 1,2377,-1
 540 110 l 1,2378,-1
 534 110 l 1,2379,-1
 534 116 l 1,2380,-1
 508 112 l 1,2381,-1
 512 107 l 1,2382,-1
 538 102 l 1,2383,2384
 515 106 515 106 514 88 c 1,2385,-1
 507 92 l 1,2386,-1
 478 91 l 1,2387,-1
 467 98 l 1,2388,-1
 471 82 l 1,2389,2390
 479 80 479 80 481 88 c 1,2391,-1
 478 81 l 1,2392,-1
 491 77 l 1,2393,-1
 492 72 l 1,2394,-1
 497 72 l 1,2395,-1
 500 81 l 1,2396,2397
 518 83 518 83 520 75 c 1,2398,-1
 518 69 l 1,2399,-1
 516 71 l 1,2400,-1
 508 69 l 1,2401,-1
 504 72 l 1,2402,2403
 494 60 494 60 488 65 c 1,2404,2405
 486 75 486 75 481 71 c 1,2406,-1
 482 67 l 1,2407,-1
 478 65 l 1,2408,-1
 477 67 l 1,2409,-1
 461 65 l 1,2410,-1
 461 61 l 1,2411,-1
 471 51 l 1,2412,-1
 485 53 l 1,2413,-1
 487 51 l 1,2414,-1
 481 45 l 1,2415,-1
 472 48 l 1,2416,-1
 469 43 l 1,2417,-1
 467 45 l 1,2418,-1
 459 43 l 1,2419,-1
 461 39 l 1,2420,-1
 487 42 l 1,2421,-1
 494 48 l 1,2422,-1
 482 38 l 1,2423,-1
 485 32 l 1,2424,-1
 471 28 l 1,2425,-1
 477 23 l 1,2426,-1
 487 28 l 1,2427,-1
 500 20 l 1,2428,-1
 530 26 l 1,2429,-1
 540 33 l 1,2430,-1
 552 33 l 1,2431,-1
 565 42 l 1,2432,-1
 589 49 l 1,2433,2434
 601 47 601 47 605 53 c 1,2435,-1
 605 55 l 1,2436,2437
 573 53 573 53 556 42 c 1,2438,-1
 548 45 l 1,2439,-1
 536 42 l 1,2440,-1
 530 45 l 1,2441,-1
 518 39 l 1,2442,-1
 516 42 l 1,2443,2444
 508 44 508 44 504 38 c 1,2445,-1
 500 39 l 1,2446,-1
 508 49 l 1,2447,-1
 507 53 l 1,2448,-1
 508 51 l 1,2449,-1
 526 58 l 1,2450,-1
 543 72 l 1,2451,-1
 534 79 l 1,2452,-1
 540 87 l 1,2453,-1
 530 87 l 1,2454,-1
 530 94 l 1,2455,2456
 540 91 540 91 552 94 c 1,2457,2458
 548 102 548 102 552 104 c 1,2459,-1
 553 102 l 1,2460,2461
 573 110 573 110 591 102 c 1,2462,-1
 587 110 l 1,2463,-1
 607 108 l 1,2464,2465
 597 92 597 92 562 92 c 1,2466,-1
 562 85 l 1,2467,-1
 553 69 l 1,2468,-1
 540 58 l 1,2469,-1
 553 58 l 1,2470,-1
 556 53 l 1,2471,2472
 572 53 572 53 605 63 c 1,2473,-1
 617 55 l 1,2474,2475
 526 6 526 6 451 4 c 0,2476,2477
 272 -2 272 -2 150 110 c 0,2478,2479
 39 215 39 215 23 374 c 1,2480,2481
 17 553 17 553 130 676 c 0,2482,2483
 234 786 234 786 394 802 c 0,1805,1806
627 443 m 1,2484,-1
 621 439 l 1,2485,-1
 601 442 l 1,2486,-1
 599 445 l 1,2487,-1
 627 443 l 1,2484,-1
662 467 m 1,2488,-1
 703 463 l 1,2489,-1
 698 459 l 1,2490,-1
 692 453 l 1,2491,-1
 702 455 l 1,2492,-1
 741 449 l 1,2493,-1
 718 449 l 1,2494,2495
 718 443 718 443 711 445 c 2,2496,-1
 698 448 l 1,2497,-1
 698 443 l 1,2498,-1
 731 442 l 1,2499,-1
 719 433 l 1,2500,2501
 703 435 703 435 703 439 c 1,2502,-1
 692 435 l 1,2503,-1
 693 438 l 1,2504,-1
 692 448 l 1,2505,-1
 688 445 l 1,2506,-1
 682 449 l 1,2507,2508
 676 442 676 442 668 448 c 1,2509,-1
 672 451 l 1,2510,-1
 678 449 l 1,2511,-1
 680 451 l 1,2512,-1
 672 453 l 1,2513,-1
 672 457 l 1,2514,-1
 668 451 l 1,2515,-1
 662 453 l 1,2516,-1
 666 461 l 1,2517,2518
 660 464 660 464 662 467 c 1,2488,-1
587 491 m 1,2519,-1
 599 487 l 1,2520,-1
 599 491 l 1,2521,-1
 601 488 l 1,2522,-1
 612 488 l 1,2523,2524
 614 496 614 496 627 491 c 1,2525,-1
 627 481 l 1,2526,-1
 621 488 l 1,2527,-1
 615 488 l 1,2528,-1
 612 481 l 1,2529,-1
 587 485 l 1,2530,-1
 587 491 l 1,2519,-1
674 535 m 1,2531,-1
 666 533 l 1,2532,-1
 638 538 l 1,2533,-1
 579 540 l 1,2534,-1
 647 541 l 1,2535,-1
 674 535 l 1,2531,-1
551 551 m 1,2536,-1
 598 551 l 1,2537,-1
 642 548 l 1,2538,-1
 674 545 l 1,2539,-1
 607 548 l 1,2540,-1
 584 548 l 1,2541,-1
 553 550 l 1,2542,-1
 551 551 l 1,2536,-1
692 515 m 1,2543,-1
 652 516 l 1,2544,-1
 622 518 l 1,2545,-1
 600 518 l 1,2546,-1
 644 518 l 1,2547,-1
 672 518 l 1,2548,-1
 692 515 l 1,2543,-1
647 585 m 1,2549,-1
 608 587 l 1,2550,-1
 576 588 l 1,2551,-1
 554 589 l 1,2552,-1
 612 588 l 1,2553,-1
 658 585 l 1,2554,-1
 686 580 l 1,2555,-1
 647 585 l 1,2549,-1
730 487 m 1,2556,-1
 717 492 l 1,2557,-1
 644 497 l 1,2558,-1
 610 498 l 1,2559,-1
 662 497 l 1,2560,-1
 687 496 l 1,2561,-1
 727 491 l 1,2562,-1
 730 487 l 1,2556,-1
559 624 m 1,2563,-1
 541 626 l 1,2564,-1
 566 626 l 1,2565,-1
 570 624 l 1,2566,-1
 559 624 l 1,2563,-1
678 559 m 1,2567,-1
 662 558 l 1,2568,-1
 640 560 l 1,2569,-1
 602 559 l 1,2570,-1
 636 557 l 1,2571,-1
 655 556 l 1,2572,-1
 672 558 l 1,2573,-1
 678 559 l 1,2567,-1
639 456 m 1,2574,-1
 607 458 l 1,2575,-1
 598 458 l 1,2576,-1
 642 453 l 1,2577,-1
 665 452 l 1,2578,-1
 639 456 l 1,2574,-1
683 429 m 1,2579,-1
 691 426 l 1,2580,-1
 722 424 l 1,2581,-1
 755 422 l 1,2582,-1
 778 422 l 1,2583,-1
 784 423 l 1,2584,-1
 787 421 l 1,2585,-1
 777 420 l 1,2586,-1
 740 422 l 1,2587,-1
 692 424 l 1,2588,-1
 641 428 l 1,2589,-1
 683 429 l 1,2579,-1
638 438 m 1,2590,-1
 686 438 l 1,2591,-1
 768 434 l 1,2592,-1
 755 432 l 1,2593,-1
 671 435 l 1,2594,-1
 638 438 l 1,2590,-1
746 480 m 1,2595,-1
 738 478 l 1,2596,-1
 657 480 l 1,2597,-1
 639 484 l 1,2598,-1
 667 483 l 1,2599,-1
 746 480 l 1,2595,-1
EndSplineSet
EndChar

StartChar: Ccedilla
Encoding: 65539 -1 98
Width: 826
VWidth: 833
Flags: W
LayerCount: 2
Fore
SplineSet
727 813 m 1,0,-1
 727 394 l 1,1,-1
 432 394 l 1,2,-1
 18 813 l 1,3,-1
 254 813 l 1,4,-1
 540 520 l 1,5,-1
 540 813 l 1,6,-1
 727 813 l 1,0,-1
EndSplineSet
EndChar

StartChar: Eacute
Encoding: 65540 -1 99
Width: 826
VWidth: 833
Flags: W
LayerCount: 2
Fore
SplineSet
67 813 m 1,0,-1
 67 394 l 1,1,-1
 361 394 l 1,2,-1
 775 813 l 1,3,-1
 539 813 l 1,4,-1
 253 520 l 1,5,-1
 253 813 l 1,6,-1
 67 813 l 1,0,-1
EndSplineSet
EndChar

StartChar: ntilde
Encoding: 65541 -1 100
Width: 500
VWidth: 833
Flags: W
LayerCount: 2
Fore
SplineSet
327 904 m 1,0,-1
 427 830 l 1,1,-1
 277 830 l 1,2,-1
 277 321 l 1,3,-1
 92 498 l 1,4,-1
 92 904 l 1,5,-1
 327 904 l 1,0,-1
EndSplineSet
EndChar

StartChar: oacute
Encoding: 65542 -1 101
Width: 500
VWidth: 833
Flags: W
LayerCount: 2
Fore
SplineSet
192 904 m 1,0,-1
 92 830 l 1,1,-1
 242 830 l 1,2,-1
 242 321 l 1,3,-1
 427 498 l 1,4,-1
 427 904 l 1,5,-1
 192 904 l 1,0,-1
EndSplineSet
EndChar

StartChar: dagger
Encoding: 65543 -1 102
Width: 833
VWidth: 833
Flags: W
LayerCount: 2
Fore
SplineSet
42 500 m 1,0,-1
 167 500 l 1,1,-1
 320 325 l 1,2,-1
 320 500 l 1,3,-1
 423 500 l 1,4,-1
 423 250 l 1,5,-1
 257 250 l 1,6,-1
 42 500 l 1,0,-1
EndSplineSet
EndChar

StartChar: degree
Encoding: 65544 -1 103
Width: 833
VWidth: 833
Flags: W
LayerCount: 2
Fore
SplineSet
83 500 m 1,0,-1
 198 500 l 1,1,-1
 343 313 l 1,2,-1
 343 500 l 1,3,-1
 433 500 l 1,4,-1
 433 250 l 1,5,-1
 272 250 l 1,6,-1
 83 500 l 1,0,-1
EndSplineSet
EndChar

StartChar: cent
Encoding: 65545 -1 104
Width: 1120
VWidth: 833
Flags: W
LayerCount: 2
Fore
SplineSet
1051 810 m 1,0,-1
 1081 780 l 1,1,-1
 1081 488 l 1,2,-1
 894 488 l 1,3,-1
 894 642 l 1,4,-1
 210 642 l 1,5,-1
 210 187 l 1,6,-1
 784 187 l 1,7,-1
 537 0 l 1,8,-1
 93 0 l 1,9,-1
 32 61 l 1,10,-1
 32 778 l 1,11,-1
 65 810 l 1,12,-1
 1051 810 l 1,0,-1
EndSplineSet
EndChar

StartChar: sterling
Encoding: 65546 -1 105
Width: 1049
VWidth: 833
Flags: W
LayerCount: 2
Fore
SplineSet
1003 810 m 1,0,-1
 1003 2 l 1,1,-1
 838 2 l 1,2,-1
 838 624 l 1,3,-1
 510 624 l 1,4,-1
 205 2 l 1,5,-1
 21 2 l 1,6,-1
 317 610 l 1,7,-1
 317 624 l 1,8,-1
 163 624 l 1,9,-1
 163 810 l 1,10,-1
 1003 810 l 1,0,-1
EndSplineSet
EndChar

StartChar: section
Encoding: 65547 -1 106
Width: 856
VWidth: 833
Flags: W
LayerCount: 2
Fore
SplineSet
759 810 m 1,0,-1
 810 759 l 1,1,-1
 810 56 l 1,2,-1
 759 5 l 1,3,-1
 468 5 l 1,4,-1
 468 191 l 1,5,-1
 624 191 l 1,6,-1
 624 624 l 1,7,-1
 468 624 l 1,8,-1
 468 810 l 1,9,-1
 759 810 l 1,0,-1
387 810 m 1,10,-1
 387 624 l 1,11,-1
 231 624 l 1,12,-1
 231 191 l 1,13,-1
 387 191 l 1,14,-1
 387 5 l 1,15,-1
 96 5 l 1,16,-1
 44 56 l 1,17,-1
 44 759 l 1,18,-1
 96 810 l 1,19,-1
 387 810 l 1,10,-1
EndSplineSet
EndChar

StartChar: bullet
Encoding: 182 182 107
Width: 873
VWidth: 833
Flags: W
LayerCount: 2
Fore
SplineSet
255 940 m 1,0,-1
 377 953 l 1,1,-1
 382 932 l 1,2,-1
 328 897 l 1,3,-1
 294 893 l 1,4,-1
 272 662 l 1,5,6
 299 726 299 726 334.5 751 c 128,-1,7
 370 776 370 776 418 782.5 c 128,-1,8
 466 789 466 789 514.5 783.5 c 128,-1,9
 563 778 563 778 588.5 761 c 128,-1,10
 614 744 614 744 632 708.5 c 128,-1,11
 650 673 650 673 656 635 c 1,12,-1
 662 622 l 1,13,-1
 664 566 l 1,14,-1
 690 359 l 1,15,-1
 598 313 l 1,16,-1
 602 304 l 1,17,-1
 611 297 l 1,18,19
 712 322 712 322 717 295 c 1,20,-1
 757 288 l 1,21,22
 779 263 779 263 757 251 c 1,23,-1
 294 239 l 1,24,-1
 138 220 l 1,25,26
 115 238 115 238 198 275 c 1,27,-1
 296 283 l 1,28,-1
 282 298 l 1,29,-1
 277 314 l 1,30,-1
 288 333 l 1,31,-1
 290 340 l 1,32,-1
 246 360 l 1,33,-1
 264 566 l 1,34,-1
 264 617 l 1,35,36
 252 620 252 620 246 638 c 1,37,-1
 272 892 l 1,38,-1
 252 901 l 1,39,-1
 243 926 l 1,40,-1
 255 940 l 1,0,-1
512 617 m 1,41,-1
 512 563 l 1,42,-1
 516 557 l 1,43,-1
 515 295 l 1,44,-1
 539 294 l 1,45,-1
 542 576 l 1,46,-1
 546 576 l 1,47,-1
 546 614 l 1,48,-1
 512 617 l 1,41,-1
388 621 m 1,49,-1
 378 589 l 1,50,-1
 408 582 l 1,51,-1
 416 619 l 1,52,-1
 388 621 l 1,49,-1
340 592 m 1,53,-1
 345 619 l 1,54,-1
 335 621 l 1,55,-1
 328 592 l 1,56,-1
 340 592 l 1,53,-1
290 598 m 1,57,-1
 294 598 l 1,58,-1
 296 611 l 1,59,-1
 273 612 l 1,60,-1
 273 602 l 1,61,-1
 290 598 l 1,57,-1
594 611 m 1,62,-1
 588 578 l 1,63,-1
 601 578 l 1,64,-1
 612 609 l 1,65,-1
 594 611 l 1,62,-1
612 578 m 1,66,-1
 637 578 l 1,67,-1
 648 592 l 1,68,-1
 648 607 l 1,69,-1
 622 611 l 1,70,-1
 612 578 l 1,66,-1
268 589 m 1,71,-1
 378 578 l 1,72,-1
 444 566 l 1,73,-1
 441 335 l 1,74,-1
 433 396 l 2,75,76
 427 463 427 463 418 487.5 c 128,-1,77
 409 512 409 512 392.5 532 c 128,-1,78
 376 552 376 552 357 560 c 128,-1,79
 338 568 338 568 318.5 569.5 c 128,-1,80
 299 571 299 571 273 572 c 1,81,-1
 268 589 l 1,71,-1
552 564 m 1,82,-1
 648 578 l 1,83,-1
 648 554 l 1,84,85
 630 547 630 547 619 542.5 c 128,-1,86
 608 538 608 538 598.5 526 c 128,-1,87
 589 514 589 514 579 488 c 128,-1,88
 569 462 569 462 559 385 c 2,89,-1
 551 318 l 1,90,-1
 552 564 l 1,82,-1
263 596 m 1,91,-1
 268 566 l 1,92,93
 288 567 288 567 310 565.5 c 128,-1,94
 332 564 332 564 351 554 c 128,-1,95
 370 544 370 544 388 526 c 128,-1,96
 406 508 406 508 412 485.5 c 128,-1,97
 418 463 418 463 437 319 c 1,98,-1
 444 314 l 1,99,-1
 449 572 l 1,100,-1
 377 583 l 1,101,-1
 263 596 l 1,91,-1
548 571 m 1,102,-1
 548 296 l 1,103,-1
 554 297 l 1,104,105
 572 455 572 455 585 486.5 c 128,-1,106
 598 518 598 518 607.5 527.5 c 128,-1,107
 617 537 617 537 632 542.5 c 128,-1,108
 647 548 647 548 655 548 c 1,109,-1
 655 582 l 1,110,-1
 548 571 l 1,102,-1
437 295 m 1,111,112
 426 335 426 335 419 359 c 128,-1,113
 412 383 412 383 405 410.5 c 128,-1,114
 398 438 398 438 383 466 c 128,-1,115
 368 494 368 494 338 504 c 1,116,117
 306 502 306 502 294 487 c 128,-1,118
 282 472 282 472 272 446.5 c 128,-1,119
 262 421 262 421 251 364 c 1,120,-1
 437 295 l 1,111,112
660 353 m 1,121,122
 648 443 648 443 638 472.5 c 128,-1,123
 628 502 628 502 614 497 c 1,124,125
 596 484 596 484 589 469.5 c 128,-1,126
 582 455 582 455 580 439.5 c 128,-1,127
 578 424 578 424 569 379 c 1,128,-1
 566 328 l 1,129,-1
 560 298 l 1,130,-1
 660 349 l 1,131,-1
 660 353 l 1,121,122
272 627 m 1,132,-1
 268 622 l 1,133,-1
 275 616 l 1,134,-1
 313 621 l 1,135,-1
 355 624 l 1,136,-1
 412 626 l 1,137,-1
 508 622 l 1,138,-1
 570 616 l 1,139,-1
 637 614 l 1,140,-1
 656 606 l 1,141,-1
 656 627 l 1,142,143
 630 637 630 637 599.5 641.5 c 128,-1,144
 569 646 569 646 524 649 c 128,-1,145
 479 652 479 652 435.5 651.5 c 128,-1,146
 392 651 392 651 355.5 649 c 128,-1,147
 319 647 319 647 272 627 c 1,132,-1
281 629 m 1,148,149
 327 641 327 641 382 642 c 128,-1,150
 437 643 437 643 465.5 643 c 128,-1,151
 494 643 494 643 531.5 642 c 128,-1,152
 569 641 569 641 599.5 636.5 c 128,-1,153
 630 632 630 632 652 622 c 1,154,-1
 656 611 l 1,155,-1
 630 617 l 1,156,-1
 542 622 l 1,157,-1
 479 626 l 1,158,-1
 403 627 l 1,159,-1
 348 627 l 1,160,-1
 301 622 l 1,161,-1
 275 618 l 1,162,-1
 272 622 l 1,163,-1
 281 629 l 1,148,149
400 761 m 1,164,165
 448 755 448 755 475 753.5 c 128,-1,166
 502 752 502 752 528 750.5 c 128,-1,167
 554 749 554 749 560.5 752 c 128,-1,168
 567 755 567 755 563 760 c 128,-1,169
 559 765 559 765 548.5 770 c 128,-1,170
 538 775 538 775 513 777.5 c 128,-1,171
 488 780 488 780 470 780 c 128,-1,172
 452 780 452 780 435 777.5 c 128,-1,173
 418 775 418 775 400 761 c 1,164,165
558 742 m 1,174,175
 561 722 561 722 574 717 c 128,-1,176
 587 712 587 712 594.5 709.5 c 128,-1,177
 602 707 602 707 607 713.5 c 128,-1,178
 612 720 612 720 607 727.5 c 128,-1,179
 602 735 602 735 594.5 740 c 128,-1,180
 587 745 587 745 579.5 747 c 128,-1,181
 572 749 572 749 558 742 c 1,174,175
572 745 m 0,182,183
 584 744 584 744 593 738 c 128,-1,184
 602 732 602 732 606 726 c 128,-1,185
 610 720 610 720 606 717.5 c 128,-1,186
 602 715 602 715 599 716 c 128,-1,187
 596 717 596 717 589 718.5 c 128,-1,188
 582 720 582 720 575.5 726 c 128,-1,189
 569 732 569 732 567 737.5 c 128,-1,190
 565 743 565 743 572 745 c 0,182,183
280 895 m 1,191,-1
 263 712 l 1,192,-1
 286 895 l 1,193,-1
 280 895 l 1,191,-1
206 255 m 1,194,195
 158 247 158 247 144 239.5 c 128,-1,196
 130 232 130 232 136 228 c 128,-1,197
 142 224 142 224 152.5 225.5 c 128,-1,198
 163 227 163 227 175.5 234 c 128,-1,199
 188 241 188 241 206 255 c 1,194,195
761 265 m 1,200,201
 755 281 755 281 741.5 279.5 c 128,-1,202
 728 278 728 278 717 272 c 128,-1,203
 706 266 706 266 685.5 263.5 c 128,-1,204
 665 261 665 261 651 257.5 c 128,-1,205
 637 254 637 254 677 257 c 128,-1,206
 717 260 717 260 761 265 c 1,200,201
208 195 m 1,207,208
 217 150 217 150 191 141 c 1,209,-1
 208 132 l 1,210,211
 226 204 226 204 262 212 c 1,212,213
 351 212 351 212 361 176 c 0,214,215
 380 106 380 106 317 78 c 1,216,-1
 262 78 l 1,217,-1
 218 123 l 1,218,219
 209 70 209 70 91 78 c 1,220,-1
 82 167 l 1,221,-1
 60 167 l 1,222,-1
 60 212 l 1,223,224
 208 220 208 220 208 195 c 1,207,208
128 159 m 1,225,-1
 162 159 l 1,226,-1
 162 176 l 1,227,-1
 128 176 l 1,228,-1
 128 159 l 1,225,-1
128 106 m 1,229,-1
 172 115 l 1,230,-1
 162 132 l 1,231,-1
 128 132 l 1,232,-1
 128 106 l 1,229,-1
280 106 m 1,233,-1
 317 115 l 1,234,-1
 306 176 l 1,235,-1
 262 167 l 1,236,237
 252 124 252 124 280 106 c 1,233,-1
370 212 m 1,238,239
 487 220 487 220 495 195 c 0,240,241
 506 150 506 150 478 141 c 1,242,243
 506 150 506 150 506 115 c 1,244,-1
 540 212 l 1,245,-1
 602 212 l 1,246,-1
 638 106 l 1,247,-1
 638 78 l 1,248,-1
 550 106 l 1,249,-1
 531 78 l 1,250,-1
 487 98 l 1,251,252
 451 70 451 70 370 78 c 1,253,-1
 370 212 l 1,238,239
416 159 m 1,254,-1
 451 159 l 1,255,-1
 451 176 l 1,256,-1
 416 176 l 1,257,-1
 416 159 l 1,254,-1
416 106 m 1,258,-1
 459 115 l 1,259,-1
 451 132 l 1,260,-1
 416 132 l 1,261,-1
 416 106 l 1,258,-1
559 132 m 1,262,-1
 587 132 l 1,263,-1
 578 176 l 1,264,-1
 559 159 l 1,265,-1
 559 132 l 1,262,-1
167 58 m 1,266,-1
 292 58 l 1,267,-1
 292 12 l 1,268,-1
 230 3 l 1,269,-1
 275 3 l 1,270,-1
 275 -22 l 1,271,-1
 239 -22 l 1,272,-1
 221 -77 l 1,273,-1
 187 -67 l 1,274,-1
 167 12 l 1,275,-1
 167 58 l 1,266,-1
444 21 m 0,276,277
 462 -48 462 -48 400 -77 c 1,278,279
 311 -77 311 -77 301 -32 c 1,280,281
 283 12 283 12 347 58 c 1,282,283
 436 58 436 58 444 21 c 0,276,277
364 -48 m 1,284,-1
 400 -40 l 1,285,-1
 392 21 l 1,286,-1
 347 12 l 1,287,288
 337 -32 337 -32 364 -48 c 1,284,-1
455 60 m 1,289,290
 489 76 489 76 527 22 c 1,291,292
 527 60 527 60 544 60 c 2,293,-1
 688 60 l 1,294,-1
 688 13 l 1,295,-1
 652 13 l 1,296,-1
 652 -30 l 1,297,-1
 733 -30 l 1,298,299
 671 32 671 32 717 60 c 1,300,-1
 807 60 l 1,301,-1
 807 22 l 1,302,-1
 762 6 l 1,303,304
 817 -46 817 -46 762 -72 c 1,305,-1
 618 -72 l 1,306,-1
 608 6 l 1,307,-1
 572 13 l 1,308,-1
 563 -72 l 1,309,-1
 536 -72 l 1,310,-1
 489 -30 l 1,311,-1
 489 -72 l 1,312,-1
 455 -72 l 1,313,-1
 455 60 l 1,289,290
EndSplineSet
EndChar

StartChar: paragraph
Encoding: 352 352 108
Width: 1452
VWidth: 833
Flags: W
LayerCount: 2
Fore
SplineSet
1418 807 m 1,0,-1
 1041 -1 l 1,1,-1
 300 -1 l 1,2,-1
 300 248 l 1,3,-1
 456 248 l 1,4,-1
 456 188 l 1,5,-1
 931 188 l 1,6,-1
 1136 622 l 1,7,-1
 1148 642 l 1,8,-1
 1148 644 l 1,9,-1
 456 644 l 1,10,-1
 456 590 l 1,11,-1
 300 590 l 1,12,-1
 300 807 l 1,13,-1
 1418 807 l 1,0,-1
208 807 m 1,14,-1
 208 590 l 1,15,-1
 21 590 l 1,16,-1
 21 807 l 1,17,-1
 208 807 l 1,14,-1
21 248 m 1,18,-1
 208 248 l 1,19,-1
 208 -1 l 1,20,-1
 21 -1 l 1,21,-1
 21 248 l 1,18,-1
EndSplineSet
EndChar

StartChar: germandbls
Encoding: 353 353 109
Width: 1452
VWidth: 833
Flags: W
LayerCount: 2
Fore
SplineSet
1418 807 m 1,0,-1
 1041 -1 l 1,1,-1
 300 -1 l 1,2,-1
 300 248 l 1,3,-1
 456 248 l 1,4,-1
 456 188 l 1,5,-1
 931 188 l 1,6,-1
 1136 622 l 1,7,-1
 1148 642 l 1,8,-1
 1148 644 l 1,9,-1
 456 644 l 1,10,-1
 456 590 l 1,11,-1
 300 590 l 1,12,-1
 300 807 l 1,13,-1
 1418 807 l 1,0,-1
208 807 m 1,14,-1
 208 590 l 1,15,-1
 21 590 l 1,16,-1
 21 807 l 1,17,-1
 208 807 l 1,14,-1
21 248 m 1,18,-1
 208 248 l 1,19,-1
 208 -1 l 1,20,-1
 21 -1 l 1,21,-1
 21 248 l 1,18,-1
EndSplineSet
EndChar

StartChar: registered
Encoding: 198 198 110
Width: 1183
VWidth: 833
Flags: W
LayerCount: 2
Fore
SplineSet
1152 807 m 1,0,-1
 1152 -1 l 1,1,-1
 85 -1 l 1,2,-1
 34 50 l 1,3,-1
 34 328 l 1,4,-1
 220 328 l 1,5,-1
 220 171 l 1,6,-1
 982 171 l 1,7,-1
 982 325 l 1,8,-1
 498 325 l 1,9,-1
 498 495 l 1,10,-1
 982 495 l 1,11,-1
 982 637 l 1,12,-1
 220 637 l 1,13,-1
 220 469 l 1,14,-1
 34 469 l 1,15,-1
 34 765 l 1,16,-1
 76 807 l 1,17,-1
 1152 807 l 1,0,-1
EndSplineSet
EndChar

StartChar: copyright
Encoding: 230 230 111
Width: 1183
VWidth: 833
Flags: W
LayerCount: 2
Fore
SplineSet
1152 807 m 1,0,-1
 1152 -1 l 1,1,-1
 85 -1 l 1,2,-1
 34 50 l 1,3,-1
 34 328 l 1,4,-1
 220 328 l 1,5,-1
 220 171 l 1,6,-1
 982 171 l 1,7,-1
 982 325 l 1,8,-1
 498 325 l 1,9,-1
 498 495 l 1,10,-1
 982 495 l 1,11,-1
 982 637 l 1,12,-1
 220 637 l 1,13,-1
 220 469 l 1,14,-1
 34 469 l 1,15,-1
 34 765 l 1,16,-1
 76 807 l 1,17,-1
 1152 807 l 1,0,-1
EndSplineSet
EndChar

StartChar: trademark
Encoding: 216 216 112
Width: 850
VWidth: 833
Flags: W
LayerCount: 2
Fore
SplineSet
759 805 m 1,0,-1
 810 754 l 1,1,-1
 810 51 l 1,2,-1
 759 0 l 1,3,-1
 468 0 l 1,4,-1
 468 186 l 1,5,-1
 624 186 l 1,6,-1
 624 619 l 1,7,-1
 468 619 l 1,8,-1
 468 805 l 1,9,-1
 759 805 l 1,0,-1
387 805 m 1,10,-1
 387 619 l 1,11,-1
 231 619 l 1,12,-1
 231 186 l 1,13,-1
 387 186 l 1,14,-1
 387 0 l 1,15,-1
 96 0 l 1,16,-1
 44 51 l 1,17,-1
 44 754 l 1,18,-1
 96 805 l 1,19,-1
 387 805 l 1,10,-1
EndSplineSet
EndChar

StartChar: acute
Encoding: 248 248 113
Width: 850
VWidth: 833
Flags: W
LayerCount: 2
Fore
SplineSet
759 805 m 1,0,-1
 810 754 l 1,1,-1
 810 51 l 1,2,-1
 759 0 l 1,3,-1
 468 0 l 1,4,-1
 468 186 l 1,5,-1
 624 186 l 1,6,-1
 624 619 l 1,7,-1
 468 619 l 1,8,-1
 468 805 l 1,9,-1
 759 805 l 1,0,-1
387 805 m 1,10,-1
 387 619 l 1,11,-1
 231 619 l 1,12,-1
 231 186 l 1,13,-1
 387 186 l 1,14,-1
 387 0 l 1,15,-1
 96 0 l 1,16,-1
 44 51 l 1,17,-1
 44 754 l 1,18,-1
 96 805 l 1,19,-1
 387 805 l 1,10,-1
EndSplineSet
EndChar

StartChar: dieresis
Encoding: 208 208 114
Width: 1180
VWidth: 833
Flags: W
LayerCount: 2
Fore
SplineSet
1126 11 m 1,0,-1
 1105 5 l 1,1,-1
 1074 0 l 1,2,-1
 92 0 l 1,3,-1
 59 3 l 1,4,-1
 39 10 l 1,5,-1
 31 27 l 1,6,-1
 28 54 l 1,7,-1
 28 758 l 1,8,-1
 32 784 l 1,9,-1
 41 800 l 1,10,-1
 58 809 l 1,11,-1
 92 812 l 1,12,-1
 1074 812 l 1,13,-1
 1110 810 l 1,14,-1
 1128 803 l 1,15,-1
 1135 788 l 1,16,-1
 1139 758 l 1,17,-1
 1139 54 l 1,18,-1
 1136 25 l 1,19,-1
 1126 11 l 1,0,-1
957 163 m 1,20,-1
 957 630 l 1,21,-1
 213 630 l 1,22,-1
 213 493 l 1,23,-1
 677 493 l 1,24,-1
 677 327 l 1,25,-1
 210 327 l 1,26,-1
 210 163 l 1,27,-1
 957 163 l 1,20,-1
EndSplineSet
EndChar

StartChar: notequal
Encoding: 240 240 115
Width: 1180
VWidth: 833
Flags: W
LayerCount: 2
Fore
SplineSet
1126 11 m 1,0,-1
 1105 5 l 1,1,-1
 1074 0 l 1,2,-1
 92 0 l 1,3,-1
 59 3 l 1,4,-1
 39 10 l 1,5,-1
 31 27 l 1,6,-1
 28 54 l 1,7,-1
 28 758 l 1,8,-1
 32 784 l 1,9,-1
 41 800 l 1,10,-1
 58 809 l 1,11,-1
 92 812 l 1,12,-1
 1074 812 l 1,13,-1
 1110 810 l 1,14,-1
 1128 803 l 1,15,-1
 1135 788 l 1,16,-1
 1139 758 l 1,17,-1
 1139 54 l 1,18,-1
 1136 25 l 1,19,-1
 1126 11 l 1,0,-1
957 163 m 1,20,-1
 957 630 l 1,21,-1
 213 630 l 1,22,-1
 213 493 l 1,23,-1
 677 493 l 1,24,-1
 677 327 l 1,25,-1
 210 327 l 1,26,-1
 210 163 l 1,27,-1
 957 163 l 1,20,-1
EndSplineSet
EndChar

StartChar: AE
Encoding: 8216 8216 116
Width: 500
VWidth: 833
Flags: W
LayerCount: 2
Fore
SplineSet
192 904 m 1,0,-1
 92 830 l 1,1,-1
 242 830 l 1,2,-1
 242 321 l 1,3,-1
 427 498 l 1,4,-1
 427 904 l 1,5,-1
 192 904 l 1,0,-1
EndSplineSet
EndChar

StartChar: Oslash
Encoding: 8217 8217 117
Width: 500
VWidth: 833
Flags: W
LayerCount: 2
Fore
SplineSet
327 904 m 1,0,-1
 427 830 l 1,1,-1
 277 830 l 1,2,-1
 277 321 l 1,3,-1
 92 498 l 1,4,-1
 92 904 l 1,5,-1
 327 904 l 1,0,-1
EndSplineSet
EndChar

StartChar: infinity
Encoding: 8220 8220 118
Width: 826
VWidth: 833
Flags: W
LayerCount: 2
Fore
SplineSet
727 813 m 1,0,-1
 727 394 l 1,1,-1
 432 394 l 1,2,-1
 18 813 l 1,3,-1
 254 813 l 1,4,-1
 540 520 l 1,5,-1
 540 813 l 1,6,-1
 727 813 l 1,0,-1
EndSplineSet
EndChar

StartChar: plusminus
Encoding: 8221 8221 119
Width: 826
VWidth: 833
Flags: W
LayerCount: 2
Fore
SplineSet
67 813 m 1,0,-1
 67 394 l 1,1,-1
 361 394 l 1,2,-1
 775 813 l 1,3,-1
 539 813 l 1,4,-1
 253 520 l 1,5,-1
 253 813 l 1,6,-1
 67 813 l 1,0,-1
EndSplineSet
EndChar

StartChar: lessequal
Encoding: 209 209 120
Width: 1042
VWidth: 833
Flags: W
LayerCount: 2
Fore
SplineSet
1005 807 m 1,0,-1
 1005 -1 l 1,1,-1
 840 -1 l 1,2,-1
 840 621 l 1,3,-1
 512 621 l 1,4,-1
 207 -1 l 1,5,-1
 22 -1 l 1,6,-1
 318 607 l 1,7,-1
 318 621 l 1,8,-1
 165 621 l 1,9,-1
 165 807 l 1,10,-1
 1005 807 l 1,0,-1
EndSplineSet
EndChar

StartChar: greaterequal
Encoding: 241 241 121
Width: 1042
VWidth: 833
Flags: W
LayerCount: 2
Fore
SplineSet
1005 807 m 1,0,-1
 1005 -1 l 1,1,-1
 840 -1 l 1,2,-1
 840 621 l 1,3,-1
 512 621 l 1,4,-1
 207 -1 l 1,5,-1
 22 -1 l 1,6,-1
 318 607 l 1,7,-1
 318 621 l 1,8,-1
 165 621 l 1,9,-1
 165 807 l 1,10,-1
 1005 807 l 1,0,-1
EndSplineSet
EndChar

StartChar: yen
Encoding: 199 199 122
Width: 1297
VWidth: 833
Flags: W
LayerCount: 2
Fore
SplineSet
887 807 m 1,0,-1
 1276 -1 l 1,1,-1
 17 -1 l 1,2,-1
 17 188 l 1,3,-1
 992 188 l 1,4,-1
 780 621 l 1,5,-1
 17 621 l 1,6,-1
 17 807 l 1,7,-1
 887 807 l 1,0,-1
EndSplineSet
EndChar

StartChar: mu
Encoding: 231 231 123
Width: 1297
VWidth: 833
Flags: W
LayerCount: 2
Fore
SplineSet
887 807 m 1,0,-1
 1276 -1 l 1,1,-1
 17 -1 l 1,2,-1
 17 188 l 1,3,-1
 992 188 l 1,4,-1
 780 621 l 1,5,-1
 17 621 l 1,6,-1
 17 807 l 1,7,-1
 887 807 l 1,0,-1
EndSplineSet
EndChar

StartChar: partialdiff
Encoding: 338 338 124
Width: 1373
VWidth: 833
Flags: W
LayerCount: 2
Fore
SplineSet
82 189 m 1,0,-1
 136 0 l 1,1,-1
 1226 0 l 1,2,-1
 1277 189 l 1,3,-1
 82 189 l 1,0,-1
78 217 m 1,4,-1
 25 371 l 1,5,-1
 106 410 l 1,6,-1
 175 460 l 1,7,-1
 243 521 l 1,8,-1
 301 583 l 1,9,-1
 340 655 l 1,10,-1
 369 728 l 1,11,-1
 392 810 l 1,12,-1
 986 810 l 1,13,-1
 1002 746 l 1,14,-1
 1032 664 l 1,15,-1
 1071 588 l 1,16,-1
 1128 517 l 1,17,-1
 1198 457 l 1,18,-1
 1263 414 l 1,19,-1
 1345 371 l 1,20,-1
 1286 217 l 1,21,-1
 1186 266 l 1,22,-1
 1086 331 l 1,23,-1
 982 420 l 1,24,-1
 917 491 l 1,25,-1
 872 561 l 1,26,-1
 842 629 l 1,27,-1
 518 629 l 1,28,-1
 478 548 l 1,29,-1
 437 492 l 1,30,-1
 367 414 l 1,31,-1
 275 338 l 1,32,-1
 175 270 l 1,33,-1
 78 217 l 1,4,-1
EndSplineSet
EndChar

StartChar: summation
Encoding: 339 339 125
Width: 1373
VWidth: 833
Flags: W
LayerCount: 2
Fore
SplineSet
82 189 m 1,0,-1
 136 0 l 1,1,-1
 1226 0 l 1,2,-1
 1277 189 l 1,3,-1
 82 189 l 1,0,-1
78 217 m 1,4,-1
 25 371 l 1,5,-1
 106 410 l 1,6,-1
 175 460 l 1,7,-1
 243 521 l 1,8,-1
 301 583 l 1,9,-1
 340 655 l 1,10,-1
 369 728 l 1,11,-1
 392 810 l 1,12,-1
 986 810 l 1,13,-1
 1002 746 l 1,14,-1
 1032 664 l 1,15,-1
 1071 588 l 1,16,-1
 1128 517 l 1,17,-1
 1198 457 l 1,18,-1
 1263 414 l 1,19,-1
 1345 371 l 1,20,-1
 1286 217 l 1,21,-1
 1186 266 l 1,22,-1
 1086 331 l 1,23,-1
 982 420 l 1,24,-1
 917 491 l 1,25,-1
 872 561 l 1,26,-1
 842 629 l 1,27,-1
 518 629 l 1,28,-1
 478 548 l 1,29,-1
 437 492 l 1,30,-1
 367 414 l 1,31,-1
 275 338 l 1,32,-1
 175 270 l 1,33,-1
 78 217 l 1,4,-1
EndSplineSet
EndChar
